{"glyphs":{"0":{"ha":713,"x_min":31,"x_max":686,"o":"m 361 24 q 118 110 206 24 q 31 340 31 196 q 91 554 31 460 q 265 682 151 649 q 347 695 301 692 q 444 699 392 699 q 470 699 457 699 q 497 696 483 699 q 514 681 514 688 q 493 668 514 668 q 481 668 488 668 q 467 669 474 668 q 453 671 458 671 q 443 671 447 671 q 280 633 351 671 q 167 526 208 594 q 125 364 125 457 q 182 169 125 246 q 354 93 239 93 q 492 126 431 93 q 588 219 553 160 q 624 357 624 279 q 591 477 624 425 q 505 559 558 529 q 389 589 451 589 q 297 510 297 589 q 351 421 297 421 q 401 443 374 421 l 419 458 l 429 465 q 453 454 453 465 q 406 410 453 431 q 336 396 374 396 q 233 499 233 396 q 382 614 233 614 q 535 578 467 614 q 645 477 604 542 q 686 328 686 413 q 644 166 686 235 q 529 60 603 97 q 361 24 456 24 z "},"1":{"ha":363,"x_min":28,"x_max":293,"o":"m 53 -46 q 28 -28 28 -46 q 79 11 28 -15 q 112 26 94 19 q 143 38 129 33 l 138 38 q 128 124 128 65 q 142 310 128 207 q 181 521 156 413 q 119 481 143 493 q 81 469 96 469 q 64 478 64 469 q 85 500 64 490 q 121 522 104 511 q 153 544 138 533 q 203 604 185 569 q 257 644 222 644 q 292 624 292 644 q 232 394 292 565 q 185 241 200 307 q 171 131 171 175 q 174 82 171 103 q 183 47 178 61 q 231 51 207 51 q 293 29 293 51 q 269 11 293 11 q 247 12 258 11 q 226 13 236 13 q 144 1 176 13 q 68 -42 113 -10 q 53 -46 67 -46 z "},"2":{"ha":713,"x_min":49,"x_max":703,"o":"m 538 -18 q 278 106 415 -18 q 139 72 201 72 q 49 140 49 72 q 85 208 49 181 q 164 236 121 236 q 326 158 208 236 q 517 331 431 218 q 615 567 615 458 q 518 658 615 658 q 429 645 482 658 q 326 610 376 632 q 241 560 275 588 q 207 507 207 533 q 242 482 207 482 q 325 519 269 482 q 374 558 378 556 l 379 558 q 389 546 389 554 q 372 524 389 539 q 343 503 356 514 l 289 458 q 207 438 251 438 q 159 455 176 438 q 142 494 142 472 q 181 569 142 533 q 282 632 221 604 q 411 676 343 660 q 538 693 479 693 q 703 579 703 693 q 576 326 703 469 q 469 226 528 274 q 350 142 411 178 q 569 42 506 42 q 656 92 656 42 q 650 114 656 103 q 643 135 643 132 q 663 147 643 147 q 689 125 679 147 q 694 94 694 113 q 671 38 694 64 q 611 -3 647 13 q 538 -18 575 -18 m 167 107 q 257 126 207 107 q 164 201 176 201 q 128 150 128 201 q 167 107 128 107 z "},"3":{"ha":650,"x_min":71,"x_max":594,"o":"m 199 -26 q 71 67 71 -26 q 128 174 71 125 q 249 217 181 217 q 310 147 310 217 q 285 131 310 131 q 261 156 264 131 q 255 174 258 167 q 244 181 251 181 q 163 147 208 181 q 122 69 122 115 q 199 10 122 10 q 341 41 275 10 q 447 128 407 72 q 488 261 488 185 q 426 376 488 336 q 193 300 308 300 q 150 307 163 300 q 138 328 138 314 q 171 392 139 367 q 251 429 203 417 q 344 442 299 442 q 399 437 372 442 q 450 425 426 432 q 495 498 476 457 q 514 575 514 539 q 490 635 514 611 q 407 660 465 660 q 324 653 371 660 q 232 634 276 646 q 156 606 188 622 q 122 569 125 589 q 137 556 122 560 q 165 551 151 551 q 222 554 186 551 q 283 564 258 557 q 292 567 288 565 q 301 568 297 568 q 315 558 315 568 q 294 542 315 549 q 167 528 251 528 q 72 569 72 528 q 108 622 72 597 q 199 666 144 647 q 309 696 253 685 q 407 707 365 707 q 578 594 578 707 q 479 415 578 496 q 594 258 594 365 q 560 142 594 194 q 469 53 526 90 q 341 -6 411 15 q 199 -26 271 -26 m 249 336 q 403 389 314 336 q 319 406 361 406 q 247 392 281 406 q 214 346 214 379 q 224 338 214 340 q 249 336 235 336 z "},"4":{"ha":815,"x_min":25,"x_max":781,"o":"m 424 -40 q 401 -32 406 -40 q 374 192 374 31 q 374 228 374 210 q 375 268 374 247 l 381 268 q 239 301 297 290 q 146 313 181 313 q 110 307 131 313 q 71 300 79 300 q 42 310 56 300 q 25 331 25 322 q 61 363 25 343 q 157 443 81 371 l 315 593 q 342 619 325 603 q 374 647 360 635 q 383 656 388 660 q 417 669 397 669 q 439 657 439 669 q 410 619 439 650 q 333 542 382 589 q 253 460 301 510 q 146 347 206 411 l 150 347 q 242 340 186 347 q 379 313 299 332 q 393 422 385 367 q 415 532 401 476 q 493 739 447 667 q 513 747 500 747 q 539 731 539 747 q 535 721 539 725 q 476 535 497 642 q 454 300 454 428 l 449 300 q 564 288 514 288 q 729 347 729 288 q 619 407 729 407 q 547 396 579 407 q 514 361 514 385 q 526 346 514 346 q 541 349 532 346 q 563 356 550 351 q 596 365 583 365 q 621 346 621 365 q 578 319 621 333 q 524 311 549 311 q 464 361 464 311 q 488 409 464 390 q 547 437 511 428 q 619 446 582 446 q 698 435 661 446 q 758 401 735 424 q 781 347 781 379 q 751 284 781 310 q 676 245 721 258 q 588 232 632 232 q 526 235 558 232 q 456 247 494 239 q 461 197 457 228 q 475 122 465 165 q 489 48 485 79 q 493 -3 493 17 q 481 -19 493 -11 q 451 -34 468 -28 q 424 -40 435 -40 z "},"5":{"ha":693,"x_min":3,"x_max":629,"o":"m 169 -175 q 47 -135 90 -175 q 3 -26 3 -94 q 83 165 3 81 q 275 250 163 250 q 326 230 304 250 q 362 182 349 210 q 375 129 375 154 q 340 31 375 74 q 244 -11 304 -11 q 149 72 149 -11 q 154 115 149 97 q 182 144 163 144 q 206 126 206 144 q 196 101 206 119 q 189 72 189 83 q 228 17 189 17 q 265 36 250 17 q 287 85 279 56 q 294 142 294 114 q 275 214 294 214 q 142 119 203 214 q 89 -46 89 38 q 158 -139 89 -139 q 368 -15 256 -139 q 436 70 406 25 q 492 164 467 115 q 550 369 550 276 q 392 522 550 522 q 226 458 311 522 l 176 422 l 179 422 q 156 407 179 407 q 131 424 131 407 q 106 713 131 617 q 314 736 114 736 q 371 736 338 736 q 449 735 404 736 q 472 734 458 735 q 494 733 486 733 q 544 732 522 732 q 582 732 567 732 q 606 715 606 732 q 582 697 606 700 l 575 697 l 485 690 l 319 679 q 233 668 274 676 q 160 649 193 660 l 165 649 q 182 578 172 618 q 207 494 192 539 l 228 511 l 243 522 q 392 558 296 558 q 565 500 506 558 q 629 332 629 438 q 494 -8 629 151 q 169 -175 353 -175 z "},"6":{"ha":693,"x_min":21,"x_max":642,"o":"m 226 -111 q 76 -62 131 -111 q 21 69 21 -14 q 131 414 21 236 q 250 565 182 496 q 389 674 318 633 q 518 721 471 721 q 547 708 535 721 q 563 685 563 693 q 551 675 563 679 q 509 660 528 668 q 476 644 490 651 q 211 399 338 567 q 71 69 71 213 q 222 -69 71 -69 q 453 0 338 -69 q 526 58 492 24 q 583 132 561 92 q 606 215 606 172 q 524 300 606 300 q 455 287 494 300 q 377 252 415 274 q 314 205 339 231 q 289 153 289 179 q 322 111 289 119 q 352 106 333 108 q 396 101 371 104 q 443 89 443 97 q 344 72 443 72 q 238 146 238 72 q 274 258 238 211 q 367 331 310 306 q 486 357 424 357 q 601 315 560 357 q 642 207 642 274 q 499 -24 642 78 q 226 -111 369 -111 z "},"7":{"ha":693,"x_min":25,"x_max":661,"o":"m 181 -61 q 117 19 117 -61 q 263 358 117 156 q 390 515 322 444 q 519 635 457 586 l 269 647 q 253 648 261 647 q 239 649 246 649 q 115 624 156 649 q 75 558 75 599 l 75 549 q 76 544 75 546 q 76 540 76 543 q 57 529 76 529 q 25 594 25 529 q 85 681 25 658 q 201 692 122 692 q 265 689 228 692 q 354 682 303 686 q 444 674 406 676 q 507 672 482 672 q 560 679 542 672 q 600 693 581 688 q 629 699 619 699 q 661 675 661 699 q 643 641 661 660 q 590 614 625 622 q 532 565 567 596 q 458 494 497 533 q 381 417 418 456 q 318 349 344 379 q 208 186 251 271 q 165 8 165 101 q 181 -24 165 -12 q 204 -43 204 -36 q 181 -61 204 -61 z "},"8":{"ha":693,"x_min":7,"x_max":754,"o":"m 244 -86 q 132 -73 186 -86 q 42 -30 78 -60 q 7 49 7 0 q 40 146 7 100 q 125 232 72 192 q 239 306 178 272 q 357 364 300 339 l 368 369 l 367 369 q 211 533 211 463 q 237 603 211 571 q 303 661 263 636 q 389 700 343 686 q 475 714 435 714 q 586 631 586 714 q 563 576 586 600 q 503 539 539 553 q 432 525 468 525 q 410 542 410 525 q 432 557 410 557 q 506 574 471 557 q 542 631 542 592 q 478 675 542 675 q 398 660 438 675 q 333 618 358 646 q 307 550 307 590 q 425 396 307 472 q 506 447 467 418 q 585 507 546 475 q 689 663 689 597 q 675 712 689 696 q 635 738 661 728 q 575 761 610 747 q 554 781 554 769 q 578 794 554 794 q 664 772 624 794 q 729 713 704 750 q 754 632 754 676 q 461 372 754 518 l 463 372 q 613 258 563 311 q 663 124 663 206 q 621 26 663 65 q 514 -39 579 -14 q 376 -75 449 -64 q 244 -86 304 -86 m 267 -44 q 363 -33 311 -44 q 467 -1 414 -21 q 555 58 529 25 q 581 133 581 92 q 558 221 581 185 q 495 286 535 257 q 407 347 456 315 q 262 273 329 317 q 153 175 194 229 q 111 58 111 121 q 267 -44 111 -44 z "},"9":{"ha":693,"x_min":74,"x_max":676,"o":"m 382 -231 q 358 -183 358 -231 q 375 -43 358 -131 q 424 154 392 44 q 475 316 449 242 q 525 438 501 390 q 459 378 497 410 q 381 318 421 347 q 260 247 314 272 q 167 222 206 222 q 74 333 74 222 q 226 619 74 463 q 513 774 379 774 q 603 714 603 774 q 513 608 603 661 q 462 585 493 599 q 403 560 431 571 q 365 550 375 550 q 329 561 329 550 q 422 597 329 567 q 463 620 442 607 q 503 646 485 633 q 551 717 551 683 q 524 739 551 739 q 271 607 411 739 q 133 360 133 478 q 189 272 133 272 q 547 544 292 272 l 585 586 l 614 619 q 644 629 624 629 q 676 611 676 629 q 608 450 676 604 q 407 -182 407 -7 q 408 -187 407 -183 q 410 -194 408 -190 l 410 -207 q 382 -231 410 -231 z "}," ":{"ha":276,"x_min":0,"x_max":0,"o":""},"a":{"ha":540,"x_min":-37,"x_max":583,"o":"m 54 1 q 37 8 49 1 q 14 22 25 14 q -20 52 -8 28 q -35 110 -32 76 q -33 176 -37 143 q -19 232 -29 210 q 19 321 -4 274 q 76 411 42 368 q 160 483 111 454 q 275 514 208 511 q 338 498 310 514 q 367 461 367 482 q 349 426 367 443 q 300 401 332 408 q 288 399 294 400 q 275 399 282 399 q 256 403 256 399 q 264 407 256 407 q 307 424 288 407 q 326 465 326 440 q 308 489 326 490 q 210 441 253 481 q 138 347 168 401 q 89 238 108 293 q 58 140 69 182 q 47 85 51 113 q 44 38 42 57 q 57 19 46 19 q 113 44 81 19 q 180 109 146 69 q 244 194 214 149 q 294 278 275 239 q 290 311 292 294 q 288 344 289 328 q 299 362 288 350 q 326 385 311 374 q 353 401 342 396 q 363 400 364 407 q 374 317 364 365 q 400 219 383 269 q 440 125 417 168 q 490 57 463 82 q 544 32 518 32 q 558 34 551 32 q 569 38 564 36 q 581 40 575 40 q 583 38 583 40 q 572 26 583 29 q 489 7 529 7 q 407 38 442 7 q 334 138 358 82 q 299 254 310 193 q 249 168 278 213 q 186 85 219 124 q 119 24 153 47 q 54 1 85 1 z "},"b":{"ha":461,"x_min":-118,"x_max":397,"o":"m 228 -6 q 171 22 197 -6 q 133 117 144 49 q 129 163 129 140 q 142 251 129 208 q 175 325 156 293 q 249 381 206 374 q 263 378 263 381 q 250 372 263 375 q 188 319 218 365 q 151 172 151 258 q 156 115 151 144 q 181 42 165 65 q 214 18 196 18 q 278 76 246 18 q 310 174 300 117 q 321 289 321 231 q 319 335 321 313 q 314 378 317 357 q 295 453 308 422 q 256 483 282 483 q 219 471 240 483 q 178 430 200 460 q 138 364 157 400 q 119 305 132 346 q 106 213 106 264 q 111 156 106 182 q 100 113 117 129 q 65 90 83 96 q 44 89 46 85 q 28 200 33 143 q 24 314 24 257 q 26 395 24 354 q 31 475 28 436 l 35 525 q -35 513 1 513 q -93 527 -68 513 q -118 572 -118 542 q -90 639 -118 617 q -21 672 -62 661 q -10 674 -11 675 q -18 669 -8 672 q -78 635 -56 657 q -101 578 -101 613 q -81 538 -101 551 q -31 525 -61 525 q -19 525 -25 525 q -8 526 -14 525 q 15 532 3 529 q 38 540 26 535 q 69 717 47 628 q 131 875 92 807 q 176 940 150 908 q 231 971 203 971 q 285 953 260 971 q 325 912 310 936 q 340 865 340 888 q 318 778 340 822 q 261 695 296 735 q 188 622 226 656 q 114 567 149 589 q 100 435 104 496 q 96 322 96 375 q 201 470 149 429 q 296 511 253 511 q 343 492 325 511 q 372 443 361 472 q 389 385 383 414 q 397 301 397 343 q 382 176 397 236 q 346 76 367 117 q 295 20 328 46 q 228 -6 263 -6 m 118 585 q 178 632 146 603 q 242 698 211 661 q 293 773 274 735 q 313 847 313 811 q 294 894 313 879 q 261 910 276 910 q 226 885 244 910 q 194 838 208 861 q 151 732 172 794 q 118 585 131 669 z "},"c":{"ha":411,"x_min":33,"x_max":478,"o":"m 172 -11 q 67 52 100 -11 q 33 213 33 115 q 40 319 33 263 q 63 424 47 375 q 106 501 79 474 q 218 543 140 543 q 286 523 251 543 q 321 456 321 503 q 310 404 321 431 q 281 360 300 378 q 238 342 263 342 q 229 342 233 342 q 219 344 225 343 q 214 352 217 349 q 211 358 211 356 q 225 368 211 364 q 239 365 233 365 q 269 381 258 365 q 281 417 281 396 q 274 458 281 435 q 253 498 267 481 q 221 515 240 515 q 157 457 185 515 q 124 360 135 418 q 114 244 114 303 q 119 156 114 203 q 141 78 125 110 q 189 46 157 46 q 248 71 217 46 q 310 135 279 96 q 370 216 342 174 q 422 293 399 258 q 460 344 446 328 q 469 353 467 353 q 468 340 478 353 q 408 253 442 306 q 340 143 375 200 q 271 38 306 86 q 223 -2 249 7 q 172 -11 197 -11 z "},"d":{"ha":653,"x_min":42,"x_max":724,"o":"m 147 -40 q 97 -22 126 -40 q 57 15 68 -3 q 42 176 42 85 q 58 338 42 258 q 108 468 74 418 q 169 519 132 500 q 254 539 206 539 q 306 531 282 539 q 347 508 329 522 q 365 663 351 586 q 397 806 378 739 q 435 923 415 874 q 471 994 454 972 q 486 1003 478 1003 q 510 990 499 1003 q 529 960 522 976 q 531 931 536 943 q 463 731 494 843 q 396 496 432 618 q 385 350 385 426 q 392 244 385 294 q 419 161 400 193 q 471 129 439 129 q 528 150 497 129 q 588 199 560 171 q 650 274 624 235 q 704 354 676 314 q 717 361 711 364 q 718 351 724 358 q 656 263 686 311 q 597 167 626 215 q 567 115 585 143 q 524 66 549 86 q 468 46 500 46 q 403 72 429 46 q 365 142 378 99 q 346 236 351 185 q 340 338 340 288 q 340 373 340 356 q 342 406 340 390 q 285 290 314 354 q 232 162 257 225 q 190 47 207 99 q 167 -31 172 -4 q 147 -40 161 -40 m 131 4 q 169 89 142 31 q 229 217 196 147 q 286 326 257 278 q 333 419 315 375 q 340 450 340 438 q 322 497 340 478 q 278 517 303 517 q 198 472 226 517 q 156 372 169 426 q 133 244 139 307 q 128 118 128 181 q 128 62 128 90 q 131 4 129 33 z "},"e":{"ha":411,"x_min":33,"x_max":478,"o":"m 178 -19 q 99 13 131 -19 q 50 97 67 44 q 33 213 33 150 q 40 319 33 263 q 63 424 47 375 q 106 501 79 474 q 218 543 140 543 q 308 515 283 543 q 332 444 332 488 q 326 399 332 424 q 314 351 321 375 q 285 283 303 317 q 240 226 268 249 q 169 200 213 203 q 147 203 164 200 q 114 219 129 207 q 124 144 117 182 q 149 80 131 106 q 201 54 167 54 q 267 84 235 54 q 325 152 299 114 q 368 215 351 190 q 415 285 392 250 q 460 344 439 321 q 469 353 467 353 q 468 340 478 353 q 378 203 425 283 q 301 78 332 128 q 243 5 271 29 q 178 -19 215 -19 m 167 217 q 198 236 183 217 q 224 283 213 256 q 242 336 235 311 q 250 374 249 361 q 255 419 251 393 q 258 468 258 446 q 252 508 258 492 q 228 525 246 525 q 192 505 213 525 q 157 457 172 485 q 126 363 136 418 q 114 251 115 308 q 135 228 124 239 q 167 217 147 217 z "},"f":{"ha":444,"x_min":7,"x_max":446,"o":"m 268 -424 q 201 -403 235 -424 q 144 -335 168 -383 q 99 -194 118 -282 q 68 0 79 -106 q 54 210 57 106 q 42 192 47 201 q 31 172 36 182 q 13 154 18 154 q 13 178 7 154 q 39 233 19 203 q 46 244 42 239 q 54 254 50 250 l 54 282 q 69 478 54 374 q 110 683 83 582 q 175 867 138 785 q 258 999 213 950 q 353 1049 303 1049 q 399 1035 381 1049 q 429 989 417 1021 q 446 950 446 981 q 433 889 446 925 q 392 794 419 850 q 328 677 364 739 q 256 553 293 615 q 185 438 218 492 q 128 344 151 383 q 126 330 126 338 q 126 314 126 322 q 144 324 135 319 q 163 333 153 328 q 272 378 213 358 q 390 397 332 397 q 408 397 400 397 q 425 394 417 396 q 429 390 429 393 q 425 386 429 388 q 268 356 347 382 q 125 281 189 329 q 126 247 125 264 q 128 215 126 231 q 224 171 181 207 q 300 83 267 135 q 354 -29 333 31 q 377 -123 365 -64 q 389 -243 389 -182 q 378 -331 389 -290 q 342 -398 368 -372 q 268 -424 315 -424 m 129 379 q 202 499 161 431 q 285 642 243 568 q 360 785 326 717 q 411 906 394 854 q 421 954 421 935 q 413 982 421 974 q 393 990 404 990 q 354 974 371 990 q 239 808 286 907 q 165 597 192 708 q 129 379 139 485 m 301 -374 q 344 -333 332 -374 q 356 -240 356 -293 q 347 -127 356 -183 q 329 -44 338 -71 q 281 63 310 13 q 213 149 251 114 q 125 193 175 185 q 129 152 126 193 q 140 47 132 111 q 159 -90 147 -18 q 190 -227 171 -162 q 237 -333 210 -292 q 301 -374 264 -374 z "},"g":{"ha":494,"x_min":-57,"x_max":436,"o":"m 154 -494 q 49 -465 97 -494 q -28 -386 0 -436 q -57 -275 -57 -336 q -31 -158 -57 -212 q 37 -69 -4 -103 q 119 -35 78 -35 q 199 -57 165 -35 q 253 -112 232 -79 q 285 -181 275 -146 q 296 -240 296 -215 q 270 -333 296 -303 q 211 -364 244 -364 q 145 -335 172 -364 q 104 -267 118 -307 q 90 -190 90 -226 q 110 -131 90 -151 q 161 -110 131 -110 q 178 -114 172 -110 q 183 -121 183 -118 q 168 -125 183 -129 q 160 -123 164 -124 q 153 -122 157 -122 q 119 -139 131 -122 q 108 -179 108 -156 q 123 -242 108 -210 q 163 -295 138 -274 q 217 -317 188 -317 q 265 -294 250 -317 q 281 -240 281 -272 q 263 -162 281 -203 q 216 -92 246 -121 q 149 -64 186 -64 q 60 -126 97 -65 q 22 -282 22 -187 q 60 -425 22 -371 q 157 -479 99 -479 q 292 -429 243 -479 q 363 -298 342 -379 q 383 -125 383 -217 q 373 24 383 -50 q 347 163 363 99 q 311 274 331 228 q 273 197 300 243 q 209 105 246 150 q 132 30 172 60 q 54 1 92 0 q 37 8 49 1 q 14 22 25 14 q -27 47 -15 29 q -39 88 -39 64 q -28 146 -39 113 q 3 234 -12 190 q 38 318 18 278 q 33 325 29 318 q 61 363 43 344 q 142 468 94 421 q 219 519 175 500 q 311 539 263 539 q 388 522 353 539 q 424 478 424 506 q 403 440 424 460 q 346 414 382 421 q 243 400 293 403 q 149 375 193 397 q 112 306 131 349 q 77 214 93 263 q 51 122 61 165 q 42 51 42 79 q 57 19 42 19 q 115 44 82 19 q 181 108 147 69 q 244 193 214 147 q 294 281 274 239 q 322 354 315 324 q 330 363 322 358 q 344 368 338 368 q 360 354 354 368 q 398 237 381 306 q 426 90 415 168 q 436 -67 436 13 q 422 -226 436 -149 q 376 -363 408 -303 q 289 -459 343 -424 q 154 -494 235 -494 m 157 393 q 230 409 193 404 q 303 421 267 414 q 356 450 339 428 q 374 490 374 472 q 356 511 374 511 q 271 492 313 514 q 199 440 229 469 q 157 393 168 411 z "},"h":{"ha":679,"x_min":53,"x_max":749,"o":"m 115 -131 q 122 -72 117 -107 q 138 3 128 -37 q 100 -14 118 -7 q 82 -18 82 -21 q 60 141 68 56 q 53 319 53 226 q 66 545 53 431 q 108 766 79 660 q 183 963 136 872 q 297 1117 229 1053 q 335 1132 315 1132 q 383 1113 358 1132 q 419 1061 407 1093 q 436 1022 436 1053 q 424 961 436 997 q 371 844 407 914 q 290 698 335 775 q 201 551 244 621 q 126 431 157 481 q 125 400 125 415 q 125 369 125 385 q 134 203 125 281 q 154 75 143 125 q 193 208 172 142 q 233 319 214 274 q 284 410 256 369 q 335 451 313 451 q 364 415 354 451 q 380 369 367 401 q 413 298 393 338 q 456 222 432 258 q 503 165 479 186 q 549 149 526 143 q 594 177 560 151 q 679 278 629 203 q 706 317 693 297 q 733 353 719 336 q 744 358 740 361 q 743 349 749 356 q 656 222 700 290 q 579 86 611 153 q 551 53 568 64 q 514 42 533 42 q 431 96 463 42 q 338 260 371 199 q 276 322 306 322 q 233 278 254 322 q 196 176 215 238 q 160 50 176 114 q 165 36 163 43 q 169 24 167 29 q 150 8 169 19 q 133 -70 140 -33 q 125 -131 126 -107 q 120 -135 125 -136 q 115 -131 115 -135 m 128 463 q 200 583 160 515 q 280 723 240 651 q 352 861 319 794 q 401 978 385 928 q 411 1028 411 1008 q 389 1058 411 1058 q 351 1040 369 1058 q 213 836 267 960 q 140 581 160 713 q 128 463 131 521 z "},"i":{"ha":278,"x_min":13,"x_max":346,"o":"m 160 485 q 119 503 133 485 q 106 547 106 521 q 117 583 106 574 q 154 593 128 593 q 182 595 168 593 q 208 597 196 597 q 236 576 236 597 q 224 538 236 560 q 195 501 213 517 q 160 485 178 485 m 118 -46 q 92 -37 114 -50 q 49 -8 69 -25 q 25 19 28 10 q 13 128 13 61 q 23 248 13 186 q 53 363 33 310 q 100 442 72 415 q 119 442 106 447 q 149 428 133 438 q 174 408 165 418 q 178 393 183 399 q 130 313 151 364 q 97 205 108 261 q 85 103 85 149 q 90 54 85 76 q 104 19 94 32 q 159 111 122 53 q 241 235 196 169 q 331 353 286 300 q 342 358 338 361 q 340 349 346 356 q 310 305 325 329 q 278 254 294 281 q 178 83 222 163 q 118 -46 133 3 z "},"j":{"ha":297,"x_min":-296,"x_max":232,"o":"m 90 485 q 50 503 64 485 q 36 547 36 521 q 47 583 36 574 q 85 593 58 593 q 113 595 99 593 q 139 597 126 597 q 167 576 167 597 q 155 538 167 560 q 126 501 143 517 q 90 485 108 485 m -46 -503 q -187 -472 -132 -503 q -269 -392 -243 -440 q -296 -294 -296 -344 q -274 -206 -296 -247 q -211 -137 -253 -164 q -110 -111 -169 -111 q -3 -143 -47 -111 q 66 -221 42 -175 q 90 -311 90 -267 q 67 -380 90 -351 q -6 -408 44 -408 q -76 -388 -42 -408 q -131 -337 -110 -368 q -153 -276 -153 -307 q -126 -224 -153 -240 q -69 -207 -100 -207 q -43 -217 -43 -207 q -60 -218 -43 -222 q -78 -217 -65 -217 q -117 -230 -100 -217 q -133 -267 -133 -243 q -112 -317 -133 -293 q -59 -357 -90 -342 q 0 -372 -28 -372 q 58 -352 40 -372 q 75 -301 75 -332 q 53 -228 75 -267 q -6 -163 32 -190 q -92 -136 -43 -136 q -168 -160 -136 -136 q -217 -221 -200 -183 q -233 -301 -233 -258 q -212 -390 -233 -347 q -147 -462 -192 -433 q -33 -490 -103 -490 q 80 -448 39 -490 q 138 -334 121 -406 q 156 -176 156 -262 q 144 -8 156 -94 q 113 160 132 78 q 74 308 94 242 q 33 414 53 374 q 78 428 50 421 q 122 436 107 436 q 172 288 146 379 q 215 92 197 197 q 232 -117 232 -14 q 207 -308 232 -219 q 122 -449 182 -396 q -46 -503 61 -503 z "},"k":{"ha":613,"x_min":53,"x_max":682,"o":"m 82 -18 q 60 141 68 56 q 53 319 53 226 q 66 545 53 431 q 108 766 79 660 q 183 963 136 872 q 297 1117 229 1053 q 335 1132 315 1132 q 383 1113 358 1132 q 419 1061 407 1093 q 436 1022 436 1053 q 413 935 436 990 q 353 811 390 879 q 275 672 317 743 q 194 538 233 601 q 126 431 154 475 q 124 372 125 401 q 125 315 124 343 q 204 419 156 369 q 304 500 253 468 q 394 532 356 532 q 431 520 419 532 q 443 490 443 508 q 410 413 443 451 q 335 346 378 375 q 257 301 292 317 q 276 279 265 296 q 344 207 304 239 q 421 159 383 175 q 482 149 458 143 q 528 177 493 151 q 613 278 563 203 q 640 317 626 297 q 667 353 653 336 q 678 358 674 361 q 676 349 682 356 q 589 222 633 290 q 513 86 544 153 q 489 60 503 68 q 460 51 475 51 q 392 74 429 51 q 318 129 354 97 q 254 192 282 161 q 214 240 226 224 q 196 279 196 267 q 205 295 196 290 q 224 303 214 300 q 235 306 231 304 q 247 306 240 308 q 285 340 264 317 q 322 389 306 364 q 338 431 338 414 q 314 450 338 450 q 240 428 279 450 q 169 360 200 406 q 129 243 139 315 q 169 24 144 85 q 158 13 171 21 q 127 -2 144 6 q 96 -15 110 -10 q 82 -18 82 -19 m 128 463 q 188 563 153 503 q 263 691 224 622 q 335 826 301 760 q 390 945 369 892 q 411 1028 411 999 q 389 1058 411 1058 q 351 1040 369 1058 q 213 836 267 960 q 140 581 160 713 q 128 463 131 521 z "},"l":{"ha":390,"x_min":57,"x_max":461,"o":"m 199 46 q 120 82 149 46 q 78 171 92 118 q 60 278 64 224 q 57 371 57 333 q 71 573 57 465 q 113 783 85 681 q 185 969 142 886 q 288 1093 229 1051 q 347 1113 314 1113 q 390 1101 369 1113 q 419 1061 410 1089 q 436 1022 436 1053 q 424 961 436 997 q 371 846 407 914 q 290 702 335 778 q 203 556 246 626 q 129 436 160 486 q 131 346 128 396 q 142 251 135 296 q 161 176 150 206 q 184 141 171 151 q 214 131 197 131 q 267 151 238 131 q 322 199 296 172 q 385 276 358 235 q 444 356 413 317 q 453 361 449 361 q 454 349 461 361 q 392 262 422 308 q 332 167 361 215 q 300 115 319 143 q 256 66 281 86 q 199 46 231 46 m 132 469 q 205 589 165 522 q 283 726 244 656 q 353 863 322 797 q 401 978 385 928 q 411 1028 411 1008 q 389 1058 411 1058 q 351 1040 369 1058 q 256 920 296 989 q 188 772 215 851 q 157 669 168 717 q 141 575 146 622 q 132 469 136 528 z "},"m":{"ha":710,"x_min":7,"x_max":778,"o":"m 71 -14 q 58 -8 63 -14 q 39 37 44 7 q 33 103 33 67 q 40 198 33 149 q 53 288 46 247 q 64 347 61 329 q 46 323 54 336 q 18 285 38 310 q 14 283 17 283 q 9 287 11 283 q 8 293 7 290 q 58 369 36 333 q 94 433 79 406 q 113 428 99 442 q 141 395 128 414 q 153 369 154 376 q 135 306 143 346 q 122 221 126 265 q 117 139 117 176 q 188 283 149 214 q 275 415 226 353 q 363 469 318 469 q 397 429 397 469 q 392 394 397 413 q 373 332 383 374 q 355 238 363 290 q 343 136 347 186 q 365 183 354 160 q 386 225 375 206 q 444 327 414 278 q 506 415 475 376 q 593 469 549 469 q 628 429 628 469 q 622 394 628 413 q 606 341 615 376 q 589 263 597 306 q 576 181 581 221 q 571 110 571 140 q 576 68 571 79 q 651 194 606 117 q 763 353 696 271 q 774 358 769 361 q 772 349 778 356 q 740 303 756 325 q 710 258 725 282 q 592 26 624 121 q 563 31 588 22 q 517 53 539 39 q 492 75 494 67 q 505 238 493 158 q 531 375 517 317 q 524 389 535 389 q 505 381 517 389 q 481 356 493 374 q 434 283 460 328 q 387 186 408 238 q 357 88 365 135 q 338 67 353 56 q 292 90 317 75 q 264 114 267 104 q 276 257 265 197 q 300 375 286 317 q 293 389 304 389 q 274 381 286 389 q 250 356 263 374 q 197 270 226 324 q 145 158 167 217 q 124 49 124 99 q 128 6 124 17 q 99 -6 115 1 q 71 -14 82 -14 z "},"n":{"ha":479,"x_min":7,"x_max":547,"o":"m 71 -14 q 58 -8 63 -14 q 39 37 44 7 q 33 103 33 67 q 40 198 33 149 q 53 288 46 247 q 64 347 61 329 q 46 323 54 336 q 18 285 38 310 q 14 283 17 283 q 9 287 11 283 q 8 293 7 290 q 58 369 36 333 q 94 433 79 406 q 113 428 99 442 q 141 395 128 414 q 153 369 154 376 q 135 306 143 346 q 122 221 126 265 q 117 139 117 176 q 188 283 149 214 q 275 415 226 353 q 363 469 318 469 q 397 429 397 469 q 392 394 397 413 q 376 341 385 376 q 358 263 367 306 q 345 181 350 221 q 340 110 340 140 q 346 68 340 79 q 420 194 375 117 q 532 353 465 271 q 543 358 539 361 q 542 349 547 356 q 428 174 475 260 q 361 26 382 89 q 333 31 357 22 q 286 53 308 39 q 261 75 264 67 q 274 238 263 158 q 300 375 286 317 q 293 389 304 389 q 274 381 286 389 q 250 356 263 374 q 197 270 226 324 q 145 158 167 217 q 124 49 124 99 q 128 6 124 17 q 99 -6 115 1 q 71 -14 82 -14 z "},"o":{"ha":401,"x_min":21,"x_max":347,"o":"m 189 -35 q 117 -6 149 -35 q 65 66 86 22 q 32 156 43 110 q 21 239 21 203 q 50 439 21 350 q 139 561 81 529 q 210 576 172 576 l 226 576 q 240 576 233 576 q 253 574 246 576 q 268 563 268 564 q 246 561 268 561 q 149 528 183 561 q 101 447 115 496 q 83 345 86 397 q 79 254 79 293 q 83 205 79 236 q 99 142 88 174 q 134 90 111 111 q 194 68 157 68 q 258 99 231 68 q 303 173 286 131 q 319 249 319 215 q 310 341 319 293 q 279 421 300 389 q 201 474 243 474 q 150 399 150 474 q 181 314 150 314 q 195 321 188 314 q 207 336 203 328 q 213 346 210 342 q 218 353 215 350 q 221 357 221 356 q 228 347 228 357 q 207 306 228 322 q 172 290 188 290 q 138 316 149 290 q 126 389 126 342 q 194 496 126 496 q 293 439 249 496 q 329 366 315 407 q 346 278 343 325 q 347 255 346 267 q 347 228 347 243 q 338 151 347 196 q 310 65 329 107 q 261 -6 292 22 q 189 -35 231 -35 z "},"p":{"ha":449,"x_min":29,"x_max":397,"o":"m 156 -325 q 131 -304 138 -325 q 71 -103 93 -212 q 39 126 49 7 q 29 365 29 246 q 30 438 29 401 q 32 510 31 475 q 57 546 46 529 q 78 574 68 563 q 107 597 97 597 q 114 567 118 597 q 100 435 104 496 q 96 322 96 375 q 201 470 149 429 q 296 511 253 511 q 354 478 332 511 q 387 397 376 446 q 397 301 397 349 q 382 176 397 236 q 346 76 367 117 q 295 20 328 46 q 228 -6 263 -6 q 171 22 193 -6 q 139 89 149 50 q 129 163 129 128 q 142 251 129 208 q 175 325 156 293 q 249 381 206 374 q 263 378 263 381 q 250 372 263 375 q 188 319 218 365 q 151 172 151 258 q 158 103 151 139 q 179 43 165 68 q 214 18 193 18 q 278 76 246 18 q 310 174 300 117 q 321 289 321 231 q 315 377 321 332 q 295 453 310 422 q 256 483 281 483 q 219 471 240 483 q 178 430 200 460 q 138 364 157 400 q 110 270 118 318 q 103 178 103 222 q 111 51 103 118 q 133 -78 119 -17 q 158 -183 146 -139 q 166 -210 160 -189 q 182 -249 172 -231 q 200 -267 192 -267 q 217 -243 211 -267 q 225 -231 221 -231 q 228 -246 231 -231 q 217 -278 228 -260 q 189 -311 206 -297 q 156 -325 172 -325 z "},"q":{"ha":526,"x_min":32,"x_max":590,"o":"m 371 -539 q 291 -513 321 -539 q 246 -444 261 -487 q 225 -347 231 -400 q 219 -237 219 -293 q 232 -24 219 -139 q 265 196 244 90 q 303 346 281 269 q 241 202 272 278 q 188 63 210 126 q 157 -31 165 0 q 138 -40 151 -40 q 88 -22 117 -40 q 47 15 58 -3 q 32 176 32 85 q 48 338 32 258 q 99 468 64 418 q 159 519 122 500 q 244 539 196 539 q 310 526 281 539 q 354 492 339 513 l 354 490 q 375 540 364 514 q 400 592 386 565 q 425 617 408 608 q 456 626 442 626 q 476 620 467 626 q 485 601 485 614 q 484 595 485 599 q 482 588 483 592 q 465 545 481 581 q 426 455 449 510 q 381 335 404 400 q 342 204 358 269 q 322 82 325 139 q 401 126 363 93 q 472 202 439 160 q 533 285 506 244 q 578 353 560 326 q 586 360 582 360 q 590 355 589 360 q 588 344 590 350 q 487 193 540 269 q 367 60 433 117 q 478 -74 449 13 q 508 -261 508 -160 q 502 -356 508 -307 q 481 -446 496 -404 q 439 -513 465 -487 q 371 -539 413 -539 m 121 4 q 159 89 132 31 q 219 217 186 147 q 267 310 242 265 q 312 391 293 354 q 331 450 331 428 q 312 497 331 478 q 268 517 293 517 q 188 472 217 517 q 146 372 160 426 q 124 244 129 307 q 118 118 118 181 q 119 62 118 90 q 121 4 119 33 m 386 -494 q 428 -474 411 -500 q 456 -403 446 -447 q 472 -311 467 -360 q 476 -225 476 -262 q 445 -67 476 -143 q 347 44 414 8 q 328 31 340 39 q 311 21 317 24 q 303 -81 308 -17 q 297 -217 297 -146 q 305 -344 297 -282 q 332 -447 313 -406 q 386 -494 351 -487 z "},"r":{"ha":328,"x_min":-44,"x_max":396,"o":"m 178 -37 q 160 -35 174 -42 q 129 -15 146 -28 q 99 9 113 -3 q 85 28 86 21 q 108 172 85 101 q 163 298 132 242 q 214 388 193 354 q 103 342 157 342 q 68 347 83 342 q 16 278 42 313 q -35 208 -10 244 q -43 200 -40 200 q -44 203 -44 200 q -40 217 -44 208 q 8 288 -15 253 q 50 356 31 322 q 9 404 24 372 q -6 469 -6 436 q 25 548 -6 521 q 99 575 56 575 q 145 565 124 575 q 167 531 167 554 q 150 474 167 507 q 113 409 133 440 q 78 358 92 378 q 106 354 90 354 q 174 372 139 354 q 231 413 210 390 q 244 418 235 418 q 278 408 260 418 q 289 390 296 399 q 243 305 271 364 q 192 168 215 246 q 163 4 168 90 q 200 72 176 29 q 253 164 224 114 q 315 263 282 214 q 381 353 347 313 q 392 358 388 361 q 390 349 396 356 q 324 251 357 304 q 261 142 290 197 q 210 40 232 88 q 178 -37 188 -7 m 57 367 q 90 424 71 386 q 108 489 108 461 q 99 515 108 507 q 81 524 90 524 q 39 498 56 524 q 22 442 22 472 q 31 399 22 419 q 57 367 40 378 z "},"s":{"ha":490,"x_min":-60,"x_max":443,"o":"m 103 -32 q 43 -18 69 -32 q 7 25 17 -4 q -56 17 -24 17 q -59 22 -60 17 q -54 26 -58 26 q -25 28 -39 25 q 4 35 -11 31 q 2 47 3 40 q 1 58 1 53 q 10 108 1 82 q 68 224 26 165 q 157 319 110 283 q 201 344 178 336 q 243 353 224 353 q 287 339 269 353 q 304 297 304 325 q 295 256 304 279 q 267 204 286 233 q 211 142 247 176 q 128 78 175 108 q 28 31 82 47 q 79 -15 36 -15 q 168 18 118 -15 q 242 84 206 43 q 308 173 278 125 q 355 269 338 221 q 372 356 372 317 q 360 396 372 381 q 315 411 347 411 q 303 410 310 411 q 290 408 297 410 q 212 389 251 403 q 140 359 172 375 q 92 329 108 343 q 79 322 90 322 q 51 331 67 322 q 35 346 36 339 q 87 451 43 399 q 202 542 131 503 q 364 592 274 581 q 372 593 367 593 q 381 593 376 593 q 422 585 400 593 q 443 554 443 578 q 424 508 443 532 q 383 475 406 483 q 378 474 382 474 q 375 477 375 474 q 381 485 375 481 q 395 494 386 488 q 410 504 404 500 q 414 515 414 511 q 399 524 414 524 q 301 503 358 522 q 188 444 243 483 q 99 344 132 406 q 165 380 125 361 q 251 412 206 399 q 338 425 297 425 q 420 395 399 425 q 442 326 442 365 q 406 199 442 264 q 317 79 371 133 q 203 -6 263 25 q 103 -32 154 -32 m 28 42 q 120 89 75 58 q 201 152 165 119 q 254 210 236 185 q 283 262 274 239 q 292 301 292 285 q 250 342 292 342 q 213 333 233 342 q 169 307 192 325 q 89 211 125 271 q 36 99 53 151 q 28 42 25 65 z "},"t":{"ha":278,"x_min":-243,"x_max":444,"o":"m 118 -46 q 92 -37 114 -50 q 49 -8 69 -25 q 25 19 28 10 q 8 118 13 60 q 3 244 3 176 q 8 390 3 315 q 21 534 13 465 q 39 656 29 603 q -85 656 -26 656 q -185 659 -144 657 q -237 664 -226 661 q -235 682 -243 667 q -212 712 -226 697 q -186 724 -199 726 q -89 707 -150 717 q 47 690 -28 697 q 114 881 72 794 q 210 1014 156 968 q 263 1032 232 1032 q 308 1019 286 1032 q 340 978 331 1006 q 347 960 347 975 q 333 897 347 938 q 311 828 319 856 q 284 758 300 796 q 247 678 268 719 q 338 682 292 678 q 428 697 383 686 q 431 698 431 697 q 433 699 432 699 q 444 690 444 699 q 435 681 444 685 q 379 669 414 669 q 313 665 344 668 l 239 661 q 166 528 207 596 q 82 403 125 461 q 78 329 79 368 q 76 250 76 290 q 83 103 76 169 q 104 19 90 36 q 159 111 122 53 q 241 235 196 169 q 331 353 286 300 q 342 358 338 361 q 340 349 346 356 q 310 305 325 329 q 278 254 294 281 q 178 83 222 163 q 118 -46 133 3 m 217 679 q 258 770 240 726 q 289 854 275 814 q 303 929 303 900 q 286 964 303 964 q 272 957 279 964 q 183 835 218 907 q 125 683 147 763 q 158 681 142 682 q 193 681 175 681 q 204 679 199 679 q 217 679 210 679 m 82 438 q 147 544 114 488 q 207 660 179 601 q 163 659 185 660 q 117 657 140 658 q 94 543 101 599 q 82 438 86 488 z "},"u":{"ha":506,"x_min":8,"x_max":600,"o":"m 150 1 q 144 2 147 1 q 136 4 140 3 l 128 8 q 63 42 89 28 q 33 88 36 56 q 36 155 32 111 q 49 251 40 199 q 65 351 57 304 q 46 326 56 340 q 17 288 36 313 q 11 287 14 283 q 11 294 8 290 q 53 358 29 322 q 97 427 76 393 q 128 479 118 461 q 147 474 132 488 q 174 441 161 460 q 186 415 188 422 q 169 365 181 400 q 146 284 157 329 q 126 192 135 239 q 118 106 118 144 q 127 46 118 71 q 154 18 136 21 q 203 38 179 15 q 249 100 228 61 q 286 183 269 139 q 314 267 303 228 q 308 306 311 286 q 304 344 306 325 q 316 362 304 350 q 343 385 328 374 q 369 401 358 396 q 379 400 381 407 q 390 317 381 365 q 417 219 400 269 q 456 125 433 168 q 507 57 479 82 q 561 32 535 32 q 574 34 568 32 q 586 38 581 36 q 597 40 592 40 q 600 38 600 40 q 589 26 600 32 l 568 18 q 537 10 553 13 q 506 7 521 7 q 424 38 456 7 q 355 130 379 78 q 319 238 331 182 q 278 127 303 183 q 222 35 254 71 q 150 1 190 -1 z "},"v":{"ha":456,"x_min":8,"x_max":489,"o":"m 147 -11 q 149 15 149 -1 q 150 51 150 31 q 147 142 150 92 q 134 242 143 193 q 109 329 125 292 q 68 381 93 367 q 63 383 65 382 q 57 383 60 383 q 28 363 43 383 q 15 353 19 353 q 8 363 8 353 q 19 385 8 375 q 81 400 43 400 q 160 366 131 400 q 202 280 189 332 q 219 171 215 228 q 222 68 222 114 l 228 89 q 248 165 239 129 q 268 232 257 200 q 289 299 276 260 q 320 376 301 338 q 365 441 339 415 q 426 467 392 467 q 454 464 440 467 q 482 453 468 461 q 487 445 489 449 q 478 446 485 442 q 461 451 471 451 q 404 415 435 451 q 342 321 374 378 q 285 203 311 264 q 241 95 258 143 q 221 28 224 47 l 221 19 l 219 19 q 197 2 217 13 q 161 -13 178 -8 q 147 -11 144 -18 z "},"w":{"ha":767,"x_min":8,"x_max":729,"o":"m 150 1 q 144 2 147 1 q 136 4 140 3 l 128 8 q 63 44 90 32 q 33 88 36 56 q 36 155 32 111 q 49 251 40 199 q 65 351 57 304 q 46 326 56 340 q 17 288 36 313 q 11 287 14 283 q 11 294 8 290 q 53 358 29 322 q 97 427 76 393 q 128 479 118 461 q 147 474 132 488 q 174 441 161 460 q 186 415 188 422 q 169 365 181 400 q 146 284 157 329 q 126 192 135 239 q 118 106 118 144 q 127 46 118 71 q 154 18 136 21 q 203 38 179 15 q 249 99 228 61 q 286 182 269 138 q 314 265 303 226 q 312 292 313 279 q 311 318 311 304 q 314 374 311 346 q 319 428 317 401 q 335 442 321 433 q 366 459 349 451 q 395 469 383 467 q 404 467 407 472 q 396 368 396 428 q 408 232 396 303 q 447 117 421 161 q 489 76 467 89 q 533 64 511 64 q 603 94 571 64 q 650 175 636 125 q 665 310 665 225 q 658 401 665 357 q 632 475 650 446 q 583 504 614 504 q 535 484 556 504 q 502 436 514 464 q 490 382 490 408 q 508 327 490 351 q 549 303 526 303 q 583 322 568 303 q 592 324 588 328 q 592 317 596 321 q 569 296 581 301 q 547 290 558 290 q 480 325 506 290 q 454 404 454 360 q 486 497 454 469 q 574 524 518 524 q 693 479 657 524 q 729 361 729 435 q 706 236 729 300 q 650 122 682 172 q 583 63 628 88 q 489 38 538 38 q 424 53 456 38 q 369 103 393 68 q 337 165 350 132 q 318 233 324 197 q 277 124 301 179 q 221 34 253 69 q 150 1 189 -1 z "},"x":{"ha":386,"x_min":-36,"x_max":454,"o":"m -4 -54 q -19 -49 -14 -54 q -36 -15 -36 -33 q -22 33 -36 8 q 10 79 -7 58 q 35 108 28 100 q 74 147 50 126 q 110 181 97 168 q 73 280 86 233 q 64 347 60 326 q 46 323 54 336 q 18 285 38 310 q 14 283 17 283 q 9 287 11 283 q 8 293 7 290 q 49 358 36 333 q 72 401 61 382 q 92 403 76 408 q 124 387 108 397 q 139 369 139 376 q 150 310 142 344 q 172 238 158 275 q 219 280 196 258 q 268 328 243 301 q 284 354 279 340 q 289 382 289 368 q 283 408 289 397 q 268 418 278 418 q 252 409 261 418 q 233 378 243 400 q 226 376 231 374 q 224 382 222 378 q 253 422 236 410 q 286 435 271 435 q 315 422 303 435 q 326 389 326 410 q 313 343 326 367 q 263 288 301 321 q 179 219 224 256 q 214 138 194 176 q 253 75 233 100 q 328 199 285 126 q 439 353 372 271 q 450 358 446 361 q 449 349 454 356 q 417 303 432 325 q 386 258 401 282 q 316 134 350 200 q 268 18 282 68 q 246 -10 261 -10 q 226 1 236 -10 q 206 22 217 11 q 159 88 182 50 q 117 167 136 126 q 82 129 101 153 q 53 94 63 106 q 37 72 50 90 q 12 31 24 54 q 0 -11 0 8 q 13 -36 0 -28 q 15 -42 15 -39 q 9 -51 15 -47 q -4 -54 3 -54 z "},"y":{"ha":447,"x_min":-225,"x_max":450,"o":"m 79 -460 q -11 -447 38 -460 q -174 -353 -124 -418 q -225 -222 -225 -289 q -203 -135 -225 -175 q -140 -69 -181 -94 q -43 -43 -99 -43 q 13 -50 -19 -43 q 99 -94 65 -61 q 151 -170 133 -128 q 168 -253 168 -212 q 145 -334 168 -300 q 78 -368 122 -368 q 6 -345 39 -368 q -49 -288 -28 -322 q -69 -221 -69 -254 q -49 -169 -69 -189 q 7 -150 -28 -150 q 42 -156 31 -150 q 54 -167 54 -162 q 50 -169 54 -169 q 45 -169 49 -169 q 38 -167 42 -168 q 22 -161 31 -162 q 6 -160 14 -160 q -33 -175 -21 -160 q -46 -210 -46 -190 q -25 -266 -46 -237 q 26 -313 -4 -294 q 86 -332 57 -332 q 137 -308 121 -332 q 153 -251 153 -285 q 134 -173 153 -214 q 81 -103 115 -132 q -6 -75 46 -75 q -84 -101 -50 -75 q -137 -167 -118 -126 q -156 -254 -156 -208 q -119 -365 -156 -312 q 3 -437 -82 -418 q 24 -441 14 -439 q 44 -443 35 -443 q 159 -397 110 -443 q 243 -275 208 -351 q 299 -106 278 -199 q 331 81 321 -14 q 340 257 340 175 q 339 319 340 289 q 335 374 338 349 q 281 280 307 332 q 233 176 254 228 q 199 84 213 124 q 182 28 185 44 l 182 19 l 181 19 q 158 2 178 13 q 122 -13 139 -8 q 108 -11 106 -18 q 110 15 110 -1 q 111 51 111 31 q 108 142 111 92 q 95 242 104 193 q 70 329 86 292 q 29 381 54 367 q 24 383 26 382 q 18 383 21 383 q -11 363 4 383 q -24 353 -19 353 q -31 363 -31 353 q -19 385 -31 375 q 42 400 4 400 q 121 366 92 400 q 163 280 150 332 q 180 171 176 228 q 183 68 183 114 l 189 89 q 209 165 200 129 q 229 232 218 200 q 250 299 238 260 q 281 376 263 338 q 326 441 300 415 q 388 467 353 467 q 415 464 401 467 q 443 453 429 461 q 448 445 450 449 q 439 446 446 442 q 421 451 432 451 q 363 411 396 451 q 385 276 376 353 q 393 113 393 199 q 378 -90 393 11 q 327 -275 363 -192 q 231 -409 292 -358 q 79 -460 169 -460 z "},"z":{"ha":390,"x_min":-21,"x_max":458,"o":"m 229 -25 q 188 -9 208 -25 q 148 28 168 7 q 110 64 128 49 q 76 76 92 79 q 28 30 49 40 q -12 19 7 19 q -18 36 -21 19 q -3 74 -15 53 q 25 111 8 94 q 61 128 42 128 q 85 119 72 128 q 174 239 122 168 q 279 378 225 310 q 243 386 268 382 q 193 394 218 390 q 156 397 168 397 q 112 387 133 397 q 60 342 90 376 q 11 279 36 314 q -1 268 6 268 q 0 277 -4 268 q 22 313 4 286 q 47 355 31 325 q 85 418 64 385 q 129 475 107 451 q 169 499 151 499 q 219 480 194 499 q 267 441 243 461 q 311 417 290 421 q 324 441 313 426 q 351 468 336 456 q 378 483 367 481 q 387 486 382 485 q 397 488 392 488 q 415 474 415 488 q 410 454 415 467 q 390 424 404 442 q 350 383 369 394 q 311 371 331 371 q 302 372 307 371 q 292 374 297 372 q 241 303 272 347 q 174 209 210 258 q 106 115 139 160 q 147 105 122 111 q 197 99 171 99 q 252 110 225 99 q 300 153 279 122 q 336 212 321 188 q 375 268 351 236 q 443 353 399 300 q 454 358 450 361 q 453 349 458 356 q 421 303 436 325 q 390 258 406 282 q 325 135 354 201 q 282 21 296 69 q 260 -15 275 -6 q 229 -25 244 -25 z "},"A":{"ha":1321,"x_min":0,"x_max":1293,"o":"m 499 -112 q 376 -53 418 -112 q 335 97 335 6 q 347 238 335 160 q 382 400 358 317 q 439 558 406 483 q 342 554 389 554 q 168 578 246 554 q 45 658 90 603 q 0 803 0 713 q 45 943 0 875 q 176 1059 90 1011 q 382 1115 261 1107 q 490 1101 439 1119 q 574 1045 542 1082 q 607 956 607 1008 q 594 890 607 925 q 550 817 581 856 q 467 738 514 774 q 370 681 421 703 q 272 660 319 660 q 199 685 224 660 q 174 747 174 711 q 204 834 174 789 q 294 914 235 879 q 440 956 353 949 q 494 946 468 958 q 521 903 521 933 q 517 885 521 889 q 513 892 513 882 q 499 921 513 913 q 468 930 486 929 q 435 931 450 931 q 335 897 382 928 q 261 826 289 867 q 233 750 233 785 q 253 706 233 724 q 317 689 272 689 q 403 710 358 689 q 485 764 447 732 q 543 828 524 796 q 570 882 563 857 q 578 928 578 907 q 554 990 578 967 q 497 1024 531 1014 q 429 1032 463 1035 q 239 983 321 1025 q 110 881 157 940 q 64 764 64 822 q 101 648 64 692 q 203 585 139 604 q 349 565 268 565 q 396 567 372 565 q 444 571 419 568 q 599 813 508 706 q 803 982 689 919 q 1051 1044 917 1044 q 1165 1017 1131 1044 q 1200 951 1200 990 q 1157 853 1200 903 q 1040 756 1114 803 q 1074 620 1054 696 q 1121 463 1094 544 q 1176 306 1147 382 q 1234 165 1204 229 q 1293 61 1264 101 q 1260 35 1282 53 q 1219 4 1239 18 q 1193 -10 1200 -10 q 1159 85 1181 22 q 1112 228 1138 147 q 1058 394 1086 308 q 1006 558 1031 479 q 942 401 983 489 q 848 222 901 313 q 734 56 794 132 q 613 -66 674 -19 q 499 -112 553 -112 m 578 593 q 774 653 678 617 q 951 732 871 689 l 936 781 q 970 809 939 790 q 1026 847 1001 828 q 1035 782 1029 819 q 1132 865 1096 824 q 1168 946 1168 907 q 1143 1000 1168 978 q 1069 1022 1118 1022 q 865 964 957 1022 q 701 808 772 906 q 578 593 631 710 m 500 -74 q 604 -40 551 -75 q 708 53 657 -6 q 806 185 760 113 q 892 335 853 258 q 957 480 931 411 q 994 597 983 549 l 958 710 q 776 633 875 667 q 572 578 676 599 q 484 297 514 439 q 454 42 454 154 q 469 -42 454 -10 q 500 -74 483 -74 z "},"B":{"ha":981,"x_min":-33,"x_max":911,"o":"m 113 -146 q 106 -135 107 -146 q 114 -46 108 -90 q 129 46 119 -1 l 47 85 q 97 357 60 225 q 179 614 133 489 q 142 620 160 617 q 110 628 125 624 q 59 653 79 638 q 39 683 39 668 q 49 699 39 693 q 68 706 58 706 q 124 702 88 707 q 207 689 160 697 q 265 838 236 767 q 319 976 294 910 l 386 864 q 296 668 344 788 l 340 656 l 356 688 q 411 797 378 733 q 488 919 444 860 q 581 1019 531 979 q 689 1058 632 1058 q 776 1035 742 1060 q 828 968 811 1010 q 846 879 846 926 q 831 792 846 836 q 789 713 817 747 q 706 643 758 674 q 601 613 654 613 q 559 621 583 613 q 499 629 535 629 q 482 628 490 629 q 464 626 474 628 l 461 626 q 446 624 450 624 l 518 596 q 616 546 563 578 q 721 474 669 514 q 811 390 772 435 q 888 273 864 326 q 911 175 911 219 q 872 69 911 113 q 767 5 832 26 q 626 -17 701 -17 q 488 2 557 -17 q 361 57 418 21 q 264 154 301 96 q 226 269 226 213 q 259 361 226 326 q 346 413 292 396 q 461 429 400 429 q 550 419 503 429 q 640 390 597 408 q 710 344 683 371 q 738 286 738 318 q 681 213 738 243 q 533 189 625 182 q 483 198 513 192 q 423 217 453 204 q 373 250 393 229 q 353 301 353 271 q 367 342 353 328 q 374 346 371 346 q 376 342 376 346 q 374 332 376 338 q 368 311 368 328 q 386 265 368 282 q 432 238 404 247 q 488 225 460 228 q 533 222 515 222 q 635 251 599 225 q 672 308 672 276 q 636 369 672 344 q 549 406 600 393 q 451 418 497 418 q 369 405 408 418 q 306 367 331 392 q 282 307 282 343 q 323 214 282 260 q 419 149 364 168 q 520 123 465 132 q 626 114 575 114 q 737 126 686 114 q 819 166 788 139 q 850 236 850 193 q 833 301 850 264 q 779 382 817 338 q 648 504 724 450 q 507 586 572 558 q 463 603 485 594 q 419 618 442 611 q 374 613 396 615 q 332 608 353 610 q 235 367 282 494 q 156 110 188 239 q 118 -135 124 -18 q 113 -146 118 -146 m 426 631 q 473 640 450 635 q 515 654 496 646 q 696 797 619 700 q 742 877 719 826 q 765 971 765 928 q 749 1024 765 1003 q 689 1046 732 1046 q 586 1008 635 1046 q 496 913 538 971 q 422 792 454 854 q 367 682 389 731 l 353 653 q 390 642 372 647 q 426 631 408 638 m 79 803 q 2 831 38 806 q -33 913 -33 857 q -1 958 -33 940 q 83 983 31 975 q 194 989 135 992 q 246 990 210 989 q 317 997 282 992 q 368 1014 353 1003 q 373 1020 372 1018 q 374 1024 374 1022 q 376 1033 372 1032 q 382 1026 379 1035 q 372 1000 388 1010 q 328 985 356 990 q 271 978 300 979 q 220 976 242 976 q 194 976 199 976 q 39 961 99 979 q -21 913 -21 943 q 6 869 -21 886 q 79 853 33 853 q 150 863 128 853 q 172 886 172 874 q 132 917 172 906 q 125 922 125 917 q 136 925 125 929 q 177 905 163 918 q 192 867 192 892 q 171 828 192 842 q 124 808 150 814 q 79 803 97 803 m 185 631 l 201 676 q 68 693 113 693 q 69 671 50 688 q 125 643 89 654 q 185 631 147 635 m 276 621 l 325 621 q 330 632 328 626 q 335 644 332 638 l 290 656 l 276 621 m 339 621 q 368 623 354 622 q 397 626 382 624 q 372 634 385 631 q 347 640 360 638 l 339 621 m 135 72 q 215 347 164 208 q 319 607 265 485 l 271 607 q 185 341 224 481 q 135 72 147 201 z "},"C":{"ha":911,"x_min":56,"x_max":939,"o":"m 310 -68 q 238 -64 274 -68 q 165 -50 201 -60 q 81 23 106 -33 q 56 156 56 79 q 69 294 56 221 q 106 439 83 368 q 151 568 128 510 q 216 703 179 638 q 294 824 253 769 q 375 913 335 878 q 503 1003 439 968 q 651 1038 567 1038 q 845 979 779 1038 q 911 797 911 921 q 872 618 911 708 q 758 471 832 528 q 669 422 718 439 q 575 404 621 404 q 463 442 511 404 q 415 564 415 479 q 433 664 415 608 q 471 754 451 719 q 565 869 519 835 q 644 904 610 904 q 699 875 679 904 q 719 797 719 846 q 704 710 719 756 q 664 626 689 665 q 609 563 639 588 q 550 538 579 538 q 515 546 533 538 q 490 568 497 554 q 489 575 489 571 q 493 579 489 579 q 503 574 499 579 q 522 562 507 567 q 543 557 538 557 q 606 589 576 557 q 653 667 635 621 q 671 754 671 713 q 652 823 671 797 q 604 849 633 849 q 546 825 578 849 q 482 747 514 801 q 447 672 461 711 q 432 599 433 633 q 462 501 432 531 q 533 472 492 472 q 617 495 574 472 q 692 554 661 518 q 758 655 728 597 q 805 772 788 713 q 822 882 822 832 q 801 963 822 932 q 728 993 779 993 q 588 954 664 993 q 429 824 513 915 q 309 662 356 743 q 222 492 263 581 q 171 363 196 435 q 131 220 146 292 q 115 90 115 149 q 129 8 115 42 q 175 -36 143 -26 q 217 -44 194 -42 q 265 -47 240 -47 q 431 -23 340 -47 q 613 46 521 1 q 785 152 704 90 q 922 288 865 214 q 936 300 931 300 q 934 291 939 300 q 914 258 929 282 q 762 92 858 165 q 548 -25 665 18 q 310 -68 431 -68 z "},"D":{"ha":969,"x_min":-33,"x_max":915,"o":"m 113 -146 q 106 -135 107 -146 q 114 -46 108 -90 q 129 46 119 -1 l 47 85 q 89 330 58 210 q 160 563 119 450 q 242 780 200 676 q 319 976 285 883 l 386 864 q 313 710 353 801 q 237 510 274 618 q 172 289 200 401 q 135 72 144 176 q 192 285 157 178 q 271 496 228 393 q 356 688 314 599 q 411 797 378 733 q 488 919 444 860 q 581 1019 531 979 q 689 1058 632 1058 q 794 1027 751 1060 q 864 938 838 994 q 903 808 890 881 q 915 656 915 735 q 904 494 915 575 q 873 342 893 413 q 826 219 853 271 q 684 44 764 110 q 478 -21 604 -21 q 360 24 410 -21 q 284 141 311 69 q 257 292 257 213 q 270 399 257 346 q 313 500 283 453 q 410 601 350 561 q 528 640 469 640 q 618 607 583 640 q 669 520 653 574 q 686 406 686 467 q 676 315 686 363 q 649 224 667 267 q 605 156 631 182 q 547 129 579 129 q 473 185 504 129 q 447 331 442 240 q 455 383 449 353 q 474 444 461 414 q 507 494 486 474 q 558 514 528 514 q 597 501 583 514 q 601 494 601 497 q 588 493 601 488 q 567 499 583 499 q 515 473 533 499 q 488 412 496 447 q 481 349 481 376 q 508 236 481 276 q 569 196 535 196 q 628 231 606 196 q 663 317 651 267 q 675 411 675 367 q 645 532 675 481 q 561 583 615 583 q 469 542 514 583 q 404 444 425 501 q 381 350 389 401 q 372 247 372 299 q 385 132 372 186 q 422 45 397 78 q 485 13 447 13 q 586 53 536 13 q 678 156 636 93 q 744 285 719 218 q 800 477 785 385 q 822 667 815 569 q 824 801 828 733 q 806 924 821 868 q 762 1013 790 979 q 689 1046 733 1046 q 586 1008 635 1046 q 496 913 538 971 q 422 792 454 854 q 367 682 389 731 q 283 491 325 593 q 205 282 240 389 q 146 69 169 175 q 118 -135 122 -37 q 113 -146 118 -146 m 79 803 q 2 831 38 806 q -33 913 -33 857 q -1 958 -33 940 q 83 983 31 975 q 194 989 135 992 q 246 990 210 989 q 317 997 282 992 q 368 1014 353 1003 q 373 1020 372 1018 q 374 1024 374 1022 q 376 1033 372 1032 q 382 1026 379 1035 q 372 1000 388 1010 q 328 985 356 990 q 271 978 300 979 q 220 976 242 976 q 194 976 199 976 q 39 961 99 979 q -21 913 -21 943 q 6 869 -21 886 q 79 853 33 853 q 150 863 128 853 q 172 886 172 874 q 132 917 172 906 q 125 922 125 917 q 136 925 125 929 q 188 889 181 913 q 192 867 192 876 q 171 828 192 842 q 124 808 150 814 q 79 803 97 803 z "},"E":{"ha":1081,"x_min":-100,"x_max":1039,"o":"m 196 -256 q 48 -231 115 -256 q -60 -158 -19 -206 q -100 -46 -100 -111 q -72 41 -100 8 q 6 90 -43 74 q 116 111 54 106 q 244 117 178 117 q 336 115 289 117 q 432 107 383 113 q 449 285 436 197 q 479 457 461 372 q 419 445 446 451 q 369 429 392 439 q 326 404 343 418 q 310 382 310 390 q 319 374 310 375 q 326 368 325 372 q 321 361 326 364 q 292 366 310 358 q 278 389 275 374 q 293 416 281 400 q 342 447 306 432 q 405 468 369 458 q 485 485 440 478 q 535 690 508 592 q 582 881 561 789 q 555 887 568 883 q 528 894 542 890 q 472 899 501 897 q 413 901 443 901 q 295 892 353 901 q 201 864 238 883 q 164 810 164 844 q 186 753 164 783 q 239 693 208 722 q 316 632 275 657 q 397 582 357 607 q 406 569 408 575 q 396 567 403 563 q 304 626 354 597 q 206 683 254 656 q 153 712 182 694 q 103 753 124 729 q 82 807 82 776 q 117 883 81 856 q 209 924 153 911 q 328 942 265 938 q 444 946 392 946 q 594 940 510 946 q 763 920 678 933 q 920 888 849 907 q 1029 840 992 868 q 1039 824 1039 832 q 1026 799 1039 811 q 996 780 1013 786 q 968 778 979 774 q 800 828 893 806 q 603 875 707 850 l 667 793 q 623 660 646 736 q 581 493 600 583 q 603 494 592 494 q 626 494 614 494 q 713 490 667 494 q 810 479 758 486 q 835 457 835 472 q 821 449 835 449 q 816 449 819 449 q 808 450 813 449 q 633 467 733 467 q 604 467 619 467 q 574 465 589 467 q 540 282 554 376 q 522 96 526 188 q 631 86 564 92 q 764 81 697 81 q 861 85 817 81 q 932 103 906 90 q 947 115 944 110 q 950 122 949 119 q 974 144 954 144 q 990 132 985 144 q 994 108 994 119 q 940 50 994 65 q 811 35 886 35 q 702 40 758 35 q 598 53 646 46 q 521 65 550 60 q 520 36 521 51 q 519 6 519 21 q 520 -23 519 -8 q 522 -53 521 -37 l 432 -24 q 430 29 431 3 q 431 82 429 56 q 232 99 322 99 q 130 93 182 99 q 33 74 78 88 q -38 38 -11 60 q -65 -18 -65 15 q -25 -92 -65 -57 q 89 -147 15 -126 q 261 -168 163 -168 q 368 -149 336 -167 q 397 -104 400 -131 q 372 -58 396 -76 q 313 -31 349 -40 q 240 -22 278 -22 q 159 -35 196 -22 q 114 -74 122 -49 l 115 -81 q 124 -86 124 -82 q 117 -89 124 -89 q 98 -78 103 -89 q 93 -61 93 -68 q 117 -27 93 -39 q 178 -11 142 -15 q 249 -7 214 -7 q 334 -22 290 -10 q 408 -62 378 -35 q 438 -139 438 -89 q 395 -210 435 -185 q 301 -246 356 -236 q 196 -256 246 -256 z "},"F":{"ha":819,"x_min":-22,"x_max":1069,"o":"m 525 -44 l 471 -22 q 469 -24 471 -24 q 467 -21 468 -24 l 438 -10 q 438 33 438 11 q 440 75 439 54 q 412 165 429 115 q 375 262 394 214 q 336 347 356 310 q 278 374 297 358 q 260 404 260 390 q 267 420 260 414 q 285 426 275 426 q 315 405 297 426 q 344 364 333 383 q 482 351 399 349 q 547 599 510 481 q 617 826 585 718 l 579 833 q 408 859 489 850 q 261 868 328 868 q 149 860 206 868 q 56 833 93 853 q 18 772 18 813 q 57 697 18 733 q 168 637 96 661 q 338 607 240 613 q 433 615 390 604 q 476 661 476 626 q 446 717 476 692 q 369 757 415 742 q 278 772 324 772 q 217 762 242 772 q 193 728 193 751 q 200 710 193 719 l 217 697 q 225 692 225 700 q 215 686 225 685 q 175 733 175 707 q 210 773 175 763 q 286 783 246 783 q 394 765 342 783 q 483 713 447 746 q 518 640 518 681 q 484 569 518 596 q 399 533 450 543 q 299 522 349 522 q 147 547 221 522 q 26 619 74 572 q -22 729 -22 665 q -8 796 -22 763 q 75 894 21 867 q 204 921 129 921 q 378 901 282 921 q 585 863 475 882 q 602 859 592 860 q 625 856 613 858 l 639 900 l 675 847 q 792 834 728 840 q 911 828 856 828 q 974 831 946 828 q 1021 842 1003 835 q 1038 853 1035 849 q 1040 860 1040 857 q 1053 879 1044 879 q 1064 864 1060 879 q 1020 814 1069 828 q 900 800 971 800 q 797 805 850 800 q 697 815 743 810 l 714 793 q 643 603 681 717 q 576 358 606 489 q 676 373 626 364 q 771 393 726 382 q 783 396 778 396 q 792 396 788 396 q 810 388 810 396 q 789 374 810 381 q 672 344 726 354 q 569 331 618 335 q 537 139 550 235 q 525 -44 524 43 m 321 372 q 303 397 313 388 q 288 413 294 407 q 285 396 274 408 q 321 372 296 383 m 444 121 q 458 225 450 174 q 476 328 465 276 q 413 332 443 329 q 358 342 383 335 q 405 238 382 296 q 444 121 428 179 z "},"G":{"ha":1076,"x_min":-6,"x_max":1165,"o":"m 360 -492 q 196 -434 249 -492 q 143 -274 143 -376 q 179 -109 143 -194 q 286 40 215 -24 q 398 116 336 89 q 514 143 460 143 q 608 110 569 143 q 646 3 646 78 q 630 -92 646 -44 q 596 -176 614 -140 q 494 -312 544 -271 q 408 -354 444 -354 q 359 -328 378 -354 q 340 -258 340 -301 q 356 -171 340 -218 q 397 -81 371 -124 q 456 -10 424 -37 q 521 17 488 17 q 568 -3 549 17 q 571 -10 571 -8 q 567 -14 571 -14 q 553 -7 558 -14 q 526 0 547 0 q 474 -21 499 0 q 429 -74 449 -42 q 399 -143 410 -107 q 388 -211 388 -179 q 405 -272 388 -250 q 449 -293 422 -293 q 514 -265 478 -293 q 585 -172 550 -236 q 617 -97 604 -135 q 629 -25 629 -58 q 604 58 629 33 q 543 83 579 83 q 446 52 499 83 q 358 -28 393 21 q 297 -131 325 -74 q 253 -247 269 -189 q 236 -354 236 -306 q 258 -433 236 -404 q 328 -456 279 -462 q 476 -394 394 -446 q 643 -235 558 -343 q 760 -58 714 -144 q 843 119 806 28 q 891 265 869 183 q 926 435 913 347 q 939 604 939 524 q 871 501 915 557 q 769 391 826 446 q 651 290 713 336 q 533 217 590 244 q 428 189 475 189 q 345 215 383 189 q 285 284 307 242 q 263 376 263 326 q 294 517 263 440 q 386 671 326 593 q 338 676 361 674 q 292 682 315 678 q 141 724 208 696 q 34 797 74 751 q -6 904 -6 842 q 44 1028 -6 978 q 173 1106 94 1079 q 339 1132 251 1132 q 464 1115 404 1132 q 562 1063 524 1097 q 600 981 600 1029 q 583 923 600 953 q 526 861 567 893 q 401 796 471 819 q 272 772 332 772 q 190 791 224 772 q 157 851 157 810 q 184 916 157 883 q 264 971 211 949 q 392 993 317 993 q 480 978 444 993 q 508 932 515 964 q 501 922 506 922 q 499 928 497 921 q 472 963 504 953 q 408 972 440 972 q 315 953 360 972 q 242 906 269 933 q 214 851 214 878 q 233 816 214 829 q 278 797 253 803 q 325 792 304 792 q 390 803 351 792 q 465 834 428 815 q 521 872 501 853 q 557 918 546 896 q 568 958 568 940 q 540 1016 568 994 q 469 1047 513 1038 q 375 1057 425 1057 q 222 1035 297 1057 q 99 970 147 1013 q 51 868 51 928 q 97 768 51 808 q 221 706 143 728 q 393 679 299 685 q 635 892 496 810 q 940 975 775 975 q 1041 967 989 975 q 1129 938 1093 958 q 1165 879 1165 917 q 1106 794 1165 832 q 954 726 1047 756 q 992 608 981 671 q 1003 478 1003 544 q 978 258 1003 368 q 921 61 953 149 q 822 -149 879 -47 q 703 -311 764 -250 q 601 -403 651 -362 q 494 -468 551 -444 q 360 -492 436 -492 m 519 678 q 729 697 625 681 q 921 738 833 713 q 893 799 910 774 l 911 801 q 929 774 921 788 q 944 746 938 760 q 1082 807 1031 774 q 1133 879 1133 840 q 1110 924 1133 908 q 1051 947 1086 940 q 979 953 1015 953 q 728 877 839 953 q 519 678 618 801 m 460 242 q 578 273 514 242 q 706 354 643 304 q 820 461 768 404 q 903 570 872 518 q 935 657 935 622 l 935 658 q 932 690 935 675 q 926 718 929 704 q 729 681 836 694 q 513 665 622 667 q 456 563 486 625 q 406 435 426 500 q 385 321 385 371 q 402 260 385 279 q 460 242 419 242 z "},"H":{"ha":1183,"x_min":28,"x_max":1188,"o":"m 971 -53 l 881 -24 q 879 8 879 -8 q 879 39 879 24 q 883 147 879 93 q 894 257 888 201 q 794 283 843 268 q 706 314 746 299 q 635 143 671 224 q 568 -7 599 63 q 539 -12 556 -12 q 513 -3 525 -12 q 493 31 501 6 q 563 179 528 100 q 631 342 599 258 q 621 346 625 344 q 613 349 617 347 q 609 349 610 349 q 606 350 608 350 q 531 204 585 271 q 409 98 478 138 q 274 58 340 58 q 178 87 222 58 q 99 163 133 115 q 47 267 65 210 q 28 381 28 324 q 31 439 28 408 q 39 500 33 469 q 101 678 53 578 q 215 871 149 779 q 326 990 264 938 q 457 1074 389 1043 q 589 1104 525 1104 q 714 1063 664 1104 q 790 954 764 1022 q 815 803 815 886 q 806 685 815 747 q 781 553 797 622 q 752 449 768 500 q 718 350 736 399 q 808 326 764 338 q 901 307 851 314 q 965 617 925 468 q 1035 897 1004 767 l 1115 793 q 1070 659 1093 738 q 1027 489 1047 581 q 992 301 1007 397 q 1063 308 1024 301 q 1132 326 1101 314 q 1168 357 1163 339 q 1176 365 1169 365 q 1182 356 1188 365 q 1155 308 1175 333 q 1108 264 1135 282 q 1054 243 1082 246 q 1038 242 1046 242 q 1019 242 1029 242 q 1002 242 1011 242 q 983 243 993 242 q 972 131 976 186 q 968 22 968 75 q 969 -15 968 4 q 971 -53 969 -33 m 233 108 q 332 146 279 108 q 432 242 385 183 q 507 365 479 301 q 473 367 489 367 q 443 367 457 367 q 426 371 426 367 q 439 379 426 375 q 475 383 456 382 q 514 385 494 385 q 517 391 515 388 q 519 399 518 394 q 528 435 526 417 q 531 472 531 454 q 517 553 531 515 q 477 616 503 592 q 414 640 451 640 q 378 635 397 640 q 338 615 358 629 q 281 563 307 596 q 236 494 256 531 q 201 382 201 426 q 219 328 201 347 q 265 310 238 310 q 321 326 290 310 q 381 376 351 343 q 418 433 397 396 q 439 506 439 471 q 434 535 439 521 q 415 560 429 550 q 394 568 401 571 q 384 575 388 571 q 393 581 381 579 q 426 571 413 581 q 453 540 446 558 q 461 501 461 522 q 442 420 461 463 q 406 354 422 378 q 325 271 368 299 q 247 243 282 243 q 194 266 215 243 q 174 333 174 289 q 185 407 174 365 q 224 500 197 449 q 267 564 240 531 q 326 625 294 597 q 391 665 360 653 q 450 676 422 676 q 538 643 500 676 q 598 557 576 610 q 619 444 619 504 q 619 425 619 435 q 617 406 618 415 l 613 378 l 631 374 l 642 371 q 715 609 686 490 q 743 828 743 728 q 726 951 743 892 q 677 1049 710 1010 q 597 1088 644 1088 q 507 1056 556 1088 q 410 971 458 1025 q 317 850 361 917 q 218 686 263 768 q 143 501 174 604 q 114 321 114 400 q 126 223 114 272 q 165 141 139 174 q 233 108 192 108 z "},"I":{"ha":832,"x_min":-60,"x_max":942,"o":"m 193 -228 q 69 -201 126 -228 q -24 -124 11 -174 q -60 -11 -60 -75 q -16 122 -60 82 q 110 163 28 163 q 240 147 168 163 q 389 103 313 131 q 437 458 397 285 q 515 785 476 632 q 450 782 483 785 q 379 772 417 779 q 311 752 350 767 q 244 719 272 738 q 213 682 215 701 q 207 671 213 671 q 199 681 199 671 q 217 733 203 704 q 253 785 231 761 q 303 817 276 808 q 369 831 335 826 q 440 835 404 835 q 483 833 461 835 q 526 831 504 832 l 543 897 l 600 822 l 756 800 q 775 798 765 799 q 794 797 785 797 q 865 803 831 797 q 926 815 899 810 q 935 817 929 817 q 942 813 942 817 q 932 804 942 808 q 846 781 896 790 q 751 771 796 771 q 683 774 717 771 q 618 779 650 776 q 558 580 589 697 q 506 331 528 463 q 478 69 483 199 q 557 44 513 57 q 645 22 601 31 q 724 13 689 13 q 761 17 747 13 q 775 26 772 22 q 779 33 778 31 q 800 54 789 54 q 813 32 813 54 q 788 -24 813 -7 q 725 -40 763 -40 q 642 -29 688 -40 q 553 -1 597 -18 q 476 32 510 17 q 477 -11 476 10 q 479 -53 478 -32 l 389 -24 q 388 26 388 1 q 388 76 388 51 q 247 127 314 111 q 126 143 179 143 q 21 122 65 143 q -24 44 -24 100 q 2 -32 -24 3 q 68 -93 28 -67 q 153 -133 108 -119 q 239 -147 199 -147 q 292 -134 274 -147 q 311 -101 310 -121 q 295 -43 317 -68 q 240 -4 274 -18 q 172 10 206 10 q 132 3 150 10 q 103 -22 114 -3 q 107 -35 100 -28 q 103 -37 110 -37 q 94 -33 99 -37 q 89 -19 89 -29 q 108 19 89 8 q 156 29 128 29 q 245 12 204 29 q 312 -37 286 -6 q 338 -112 338 -68 q 296 -200 338 -172 q 193 -228 254 -228 z "},"J":{"ha":826,"x_min":33,"x_max":844,"o":"m 236 -435 q 126 -403 172 -437 q 57 -310 81 -369 q 33 -181 33 -251 q 55 -47 33 -115 q 119 81 76 21 q 232 188 165 146 q 358 229 299 229 q 447 190 411 229 q 483 57 483 151 q 478 -10 483 22 q 465 -71 472 -43 q 386 -234 431 -183 q 304 -285 342 -285 q 249 -249 271 -285 q 226 -154 226 -214 q 237 -66 226 -111 q 266 18 247 -21 q 311 81 285 57 q 369 104 338 104 q 404 93 389 104 q 408 86 408 89 q 403 83 408 83 q 393 85 399 83 q 374 89 392 89 q 315 56 339 88 q 278 -19 290 25 q 265 -107 265 -64 q 285 -187 265 -158 q 333 -217 304 -217 q 397 -181 364 -217 q 454 -69 431 -146 q 467 -12 463 -40 q 472 43 472 17 q 451 135 472 94 q 383 175 429 175 q 317 155 351 175 q 252 101 282 135 q 203 28 222 68 q 158 -106 175 -32 q 142 -244 142 -179 q 162 -357 142 -311 q 225 -403 182 -403 q 304 -378 263 -403 q 387 -311 346 -353 q 463 -219 428 -269 q 524 -119 499 -169 q 603 76 575 -17 q 650 267 631 169 q 666 381 661 318 q 671 513 671 444 q 662 676 671 596 q 632 824 653 757 q 578 929 611 890 q 521 937 544 933 q 472 943 497 940 q 406 946 446 946 q 233 912 297 946 q 169 813 169 878 q 199 710 169 758 q 281 633 229 663 q 400 603 333 603 q 476 619 444 603 q 508 679 508 636 q 484 749 508 713 q 419 803 460 785 q 411 810 411 807 q 418 813 411 813 q 426 813 422 813 q 436 810 431 813 q 517 728 493 776 q 542 624 542 681 q 515 540 542 571 q 453 498 489 510 q 385 486 417 486 q 280 522 335 486 q 188 628 225 557 q 150 807 150 699 q 169 928 150 886 q 224 987 189 971 q 304 1003 258 1003 q 421 993 364 1003 q 535 974 478 983 q 654 964 593 964 q 753 973 706 964 q 819 1006 800 982 q 826 1020 825 1015 q 828 1028 828 1025 q 827 1038 828 1033 q 826 1046 826 1042 q 831 1058 826 1058 q 842 1039 835 1058 q 844 1027 844 1033 q 844 1015 844 1021 q 816 960 844 979 q 744 933 788 940 q 656 926 700 926 q 629 926 642 926 q 604 928 617 926 q 694 787 661 867 q 740 619 726 707 q 754 442 754 531 q 749 329 754 385 q 738 225 744 274 q 682 1 718 111 q 597 -182 646 -108 q 506 -304 553 -250 q 397 -392 460 -358 q 236 -435 333 -426 z "},"K":{"ha":1560,"x_min":75,"x_max":1518,"o":"m 539 -12 q 513 -3 525 -12 q 493 31 501 6 q 590 240 542 126 q 675 472 639 354 q 655 490 664 483 q 639 499 646 497 q 665 516 650 510 q 692 525 679 522 q 729 684 715 607 q 743 829 743 761 q 726 951 743 892 q 678 1049 710 1010 q 597 1088 646 1088 q 507 1056 556 1088 q 410 971 458 1025 q 317 850 361 917 q 203 665 253 757 q 153 492 153 572 q 181 392 153 438 q 260 347 208 347 q 346 370 299 347 q 435 430 393 393 q 505 508 478 467 q 532 589 532 550 q 504 666 532 631 q 425 701 476 701 q 338 674 382 701 q 263 606 293 646 q 233 531 233 567 q 250 494 233 507 q 292 481 267 481 q 363 502 326 481 q 424 554 399 524 q 450 611 450 585 q 426 649 450 635 q 408 653 413 654 q 407 661 389 661 q 438 656 425 661 q 461 635 454 647 q 468 610 468 624 q 438 533 468 572 q 362 468 407 494 q 275 442 317 442 q 223 458 244 442 q 201 507 201 475 q 224 585 201 544 q 283 658 246 625 q 363 713 319 692 q 447 733 406 733 q 533 709 496 733 q 592 647 571 685 q 613 568 613 610 q 584 474 613 519 q 509 393 556 429 q 408 336 463 357 q 299 315 353 315 q 190 345 242 315 q 107 424 139 375 q 75 531 75 474 q 115 702 75 617 q 215 871 156 788 q 326 990 264 938 q 457 1074 389 1043 q 589 1104 525 1104 q 714 1063 664 1104 q 790 954 764 1022 q 815 803 815 886 q 781 553 815 690 l 776 536 q 951 783 851 661 q 1186 1022 1051 904 q 1303 1099 1249 1075 q 1401 1122 1358 1122 q 1487 1092 1456 1122 q 1518 1017 1518 1063 q 1490 931 1518 978 q 1397 840 1461 883 q 1311 810 1368 821 q 1204 799 1254 799 q 1164 801 1182 799 q 1135 808 1146 803 q 1133 813 1133 810 q 1138 819 1133 815 q 1146 819 1142 822 q 1193 810 1161 810 q 1288 828 1236 810 q 1365 868 1339 846 q 1458 966 1429 921 q 1486 1042 1486 1011 q 1429 1090 1486 1090 q 1338 1065 1393 1090 q 1217 983 1283 1040 q 976 738 1082 865 q 775 493 871 611 q 813 444 796 469 q 839 408 829 418 q 908 324 867 372 q 999 226 949 276 q 1104 134 1049 176 q 1216 65 1160 92 q 1326 39 1272 39 q 1398 54 1363 39 q 1456 98 1433 69 q 1479 165 1479 126 q 1455 245 1479 201 q 1394 329 1431 289 q 1317 395 1357 369 q 1246 421 1278 421 q 1188 388 1207 421 q 1169 311 1169 354 q 1180 247 1169 279 q 1208 196 1190 215 q 1244 173 1224 179 q 1288 167 1265 167 q 1340 178 1319 167 q 1361 210 1361 189 q 1336 256 1361 236 q 1282 279 1311 276 l 1281 279 q 1286 284 1281 282 q 1294 286 1292 286 q 1336 273 1314 286 q 1374 240 1358 260 q 1390 197 1390 219 q 1363 155 1390 169 q 1304 140 1336 140 q 1244 151 1274 140 q 1199 182 1215 163 q 1147 273 1165 218 q 1128 379 1128 328 q 1149 475 1128 435 q 1218 515 1171 515 q 1326 471 1261 515 q 1456 331 1414 407 q 1503 168 1497 256 q 1480 69 1506 106 q 1410 16 1454 32 q 1314 0 1365 0 q 1179 21 1246 0 q 1074 71 1113 42 q 908 212 985 138 q 757 372 832 286 l 736 400 q 651 182 697 285 q 568 -7 606 79 q 539 -12 556 -12 z "},"L":{"ha":974,"x_min":-32,"x_max":1114,"o":"m 932 -212 q 814 -200 879 -215 q 680 -158 749 -185 q 548 -103 611 -132 q 434 -49 485 -74 q 356 -12 383 -24 q 263 13 310 7 q 175 17 215 19 q 110 -44 143 -21 q 42 -67 78 -67 q -15 -49 3 -67 q -32 -11 -32 -31 q -19 22 -32 7 q 14 36 -7 36 q 159 79 100 35 q 258 199 218 124 q 325 365 297 274 q 378 552 353 457 q 433 731 403 647 q 506 874 463 815 q 676 1030 579 974 q 893 1086 774 1086 q 1060 1029 1007 1086 q 1114 868 1114 972 q 1078 704 1114 789 q 971 554 1042 619 q 859 479 921 507 q 743 451 797 451 q 649 484 688 451 q 611 592 611 517 q 627 687 611 639 q 661 771 643 735 q 763 907 714 865 q 849 949 813 949 q 899 923 881 949 q 917 853 917 897 q 901 765 917 813 q 860 675 886 718 q 801 605 833 632 q 736 578 769 578 q 689 597 708 578 q 686 604 686 603 q 690 608 686 608 q 701 604 696 608 q 711 598 706 601 q 731 594 717 594 q 785 615 760 594 q 828 669 810 636 q 858 739 847 703 q 869 806 869 775 q 853 866 869 844 q 808 888 836 888 q 743 859 779 888 q 672 767 707 831 q 640 691 653 729 q 628 619 628 653 q 652 536 628 561 q 711 511 676 511 q 810 543 757 511 q 899 622 864 575 q 960 726 933 668 q 1003 842 988 783 q 1019 947 1019 900 q 999 1027 1019 997 q 929 1050 978 1057 q 781 989 863 1040 q 614 829 699 938 q 488 637 543 739 q 394 443 432 535 q 340 314 371 386 q 274 170 310 242 q 196 43 238 99 q 218 45 207 44 q 240 46 229 46 q 369 26 304 46 q 525 -33 446 0 q 687 -91 604 -67 q 854 -115 769 -115 q 933 -107 893 -115 q 999 -81 972 -99 q 1026 -40 1026 -64 l 1026 -33 q 1029 -28 1026 -28 q 1037 -33 1032 -28 q 1043 -46 1042 -39 q 1028 -118 1043 -81 q 988 -182 1013 -156 q 932 -212 963 -208 z "},"M":{"ha":1513,"x_min":8,"x_max":1535,"o":"m 1535 -144 q 1517 -148 1535 -150 q 1454 -132 1499 -146 q 1304 38 1350 -86 q 1253 340 1258 161 q 1256 484 1251 404 q 1271 649 1261 564 q 1291 817 1281 735 q 1310 967 1301 899 q 1319 1081 1318 1036 q 1312 1128 1319 1114 q 1293 1142 1304 1142 q 1252 1116 1275 1142 q 1215 1064 1229 1090 q 1144 924 1175 994 q 1089 783 1113 854 q 1132 656 1118 731 q 1150 506 1146 582 q 1154 371 1154 429 q 1153 306 1154 332 q 1153 272 1153 279 q 1113 77 1142 142 q 1011 13 1083 13 q 958 60 974 13 q 942 182 942 107 q 955 355 942 260 q 990 547 968 450 q 1036 724 1013 644 q 1005 792 1021 768 q 974 814 989 817 q 915 754 943 808 q 862 618 886 700 q 817 444 838 536 q 779 269 796 353 q 742 88 763 174 q 706 -72 722 1 q 688 -81 697 -78 q 671 -85 679 -85 q 625 -50 646 -85 q 676 158 653 46 q 715 385 700 269 q 731 607 731 501 q 720 745 731 675 q 687 875 710 815 q 628 972 664 935 q 542 1008 592 1008 q 446 970 496 1008 q 348 872 396 932 q 260 742 300 811 q 188 614 221 682 q 134 476 154 546 q 114 343 114 407 q 132 240 114 289 q 183 161 150 192 q 257 131 215 131 q 347 159 300 131 q 435 233 393 188 q 509 329 478 278 q 553 428 540 381 q 557 461 557 444 q 522 557 557 514 q 426 600 486 600 q 375 591 403 600 q 318 561 347 582 q 264 507 290 542 q 221 434 238 472 q 204 364 204 396 q 222 316 204 332 q 267 300 240 300 q 331 318 299 300 q 390 365 364 336 q 433 425 417 393 q 449 485 449 457 q 440 515 449 501 q 413 533 432 528 q 399 536 406 535 q 389 536 393 538 q 377 538 382 535 q 385 544 372 542 q 393 546 389 546 q 401 546 397 546 q 413 546 407 546 q 424 543 418 546 q 465 517 453 536 q 476 474 476 497 q 458 393 476 435 q 408 317 439 351 q 338 262 376 283 q 258 240 299 240 q 197 263 222 240 q 171 333 171 286 q 208 460 171 394 q 294 572 244 525 q 378 625 336 608 q 460 642 421 642 q 560 615 515 642 q 631 547 604 589 q 658 454 657 504 q 631 328 664 392 q 542 213 599 265 q 416 130 485 161 q 281 99 347 99 q 193 117 233 99 q 69 197 108 154 q 19 291 31 240 q 8 404 8 342 q 49 560 11 471 q 144 738 86 649 q 263 874 194 808 q 407 983 331 940 q 556 1025 483 1025 q 679 985 629 1025 q 758 877 729 946 q 799 719 788 808 q 807 529 810 629 q 838 642 821 585 q 876 749 854 700 q 927 829 899 799 q 993 860 956 860 q 1033 848 1015 860 q 1068 815 1051 836 q 1122 948 1092 882 q 1192 1079 1153 1014 q 1246 1152 1215 1121 q 1311 1183 1276 1183 q 1371 1160 1350 1183 q 1399 1099 1392 1136 q 1401 1019 1407 1061 q 1382 885 1393 965 q 1359 715 1371 806 q 1340 537 1347 625 q 1332 378 1332 449 q 1348 158 1332 261 q 1403 -17 1364 56 q 1513 -121 1443 -90 q 1535 -144 1535 -139 m 1018 51 q 1080 149 1063 75 q 1097 318 1097 224 q 1085 499 1097 406 q 1054 667 1074 592 q 1008 448 1024 551 q 989 270 993 344 q 985 164 985 196 q 986 135 985 156 q 991 93 988 114 q 1001 59 994 72 q 1018 51 1007 46 z "},"N":{"ha":1394,"x_min":47,"x_max":1393,"o":"m 1268 -229 q 1261 -228 1265 -229 q 1251 -226 1257 -228 q 1146 -165 1186 -212 q 1088 -49 1106 -118 q 1071 97 1071 19 q 1078 218 1071 153 q 1099 349 1086 283 q 1125 468 1111 415 q 1191 676 1157 574 q 1253 865 1225 779 q 1294 1006 1282 951 q 1299 1040 1299 1026 q 1278 1071 1299 1071 q 1234 1051 1260 1071 q 1190 1010 1208 1031 q 972 702 1063 865 q 817 390 881 539 q 731 182 769 282 q 651 -7 692 82 q 622 -12 639 -12 q 597 -3 608 -12 q 576 31 585 6 q 665 218 621 117 q 745 427 708 319 q 804 638 782 535 q 826 829 826 740 q 810 952 826 893 q 760 1049 793 1011 q 678 1088 726 1088 q 581 1058 633 1088 q 474 981 528 1028 q 371 878 419 933 q 260 745 313 815 q 176 601 208 675 q 144 451 144 526 q 159 367 144 407 q 203 301 174 326 q 275 275 232 275 q 380 303 322 275 q 490 378 438 332 q 577 476 543 424 q 611 574 611 528 q 577 667 611 625 q 479 708 543 708 q 399 688 440 708 q 322 637 357 668 q 264 569 286 606 q 242 500 242 533 q 263 456 242 471 q 314 440 283 440 q 379 456 346 440 q 442 495 413 471 q 490 547 472 519 q 508 600 508 575 q 502 625 508 613 q 481 643 496 638 q 467 647 472 646 q 458 650 461 649 q 447 655 451 651 q 456 660 442 658 q 493 651 475 660 q 524 626 515 642 q 533 592 533 610 q 512 519 533 557 q 456 451 490 482 q 381 401 422 421 q 301 382 340 382 q 230 404 258 382 q 201 469 201 426 q 230 565 201 517 q 304 655 258 614 q 403 721 350 696 q 507 746 457 746 q 612 717 567 746 q 683 642 657 688 q 708 546 708 596 q 672 426 708 482 q 578 326 636 369 q 453 259 521 283 q 322 235 386 235 q 249 244 285 235 q 185 276 214 254 q 76 387 104 333 q 47 497 47 440 q 107 706 47 607 q 257 896 167 806 q 383 997 313 950 q 527 1074 453 1044 q 669 1103 601 1103 q 797 1063 746 1103 q 873 954 847 1022 q 899 801 899 886 q 865 558 899 694 q 922 665 894 615 q 974 754 950 714 q 1063 894 1014 825 q 1169 1029 1111 963 q 1238 1092 1208 1074 q 1290 1110 1268 1110 q 1335 1096 1311 1110 q 1376 1054 1358 1082 q 1393 983 1393 1026 q 1381 910 1393 951 q 1356 846 1375 896 q 1309 722 1336 796 q 1252 559 1282 649 q 1197 374 1222 469 q 1155 188 1171 279 q 1139 18 1139 96 q 1165 -130 1139 -68 q 1253 -210 1190 -192 q 1274 -226 1274 -221 q 1268 -229 1274 -229 z "},"O":{"ha":829,"x_min":72,"x_max":817,"o":"m 290 -1 q 186 35 228 -1 q 119 131 144 71 q 83 267 94 192 q 72 422 72 343 q 83 586 72 504 q 113 740 93 668 q 161 864 133 813 q 303 1039 221 974 q 510 1104 386 1104 q 628 1059 578 1104 q 705 943 678 1014 q 732 792 732 872 q 711 665 732 726 q 653 553 690 603 q 566 473 615 503 q 460 443 517 443 q 369 476 404 443 q 318 564 335 510 q 301 679 301 618 q 311 769 301 721 q 339 858 321 817 q 383 927 357 900 q 440 954 408 954 q 516 899 485 954 q 540 753 547 843 q 532 700 538 731 q 515 640 526 669 q 482 590 503 610 q 429 569 461 569 q 390 582 406 569 q 386 589 386 586 q 400 590 386 596 q 421 585 407 585 q 474 610 456 585 q 499 672 492 636 q 507 735 507 707 q 480 847 507 807 q 418 888 453 888 q 360 853 383 888 q 324 768 336 818 q 313 674 313 718 q 325 588 313 628 q 363 524 338 549 q 424 499 388 499 q 508 528 472 499 q 568 608 544 558 q 603 718 592 658 q 615 836 615 778 q 603 952 615 899 q 566 1038 590 1006 q 503 1071 542 1071 q 401 1031 451 1071 q 310 928 351 990 q 243 799 269 865 q 182 572 201 697 q 163 332 163 446 q 176 184 163 251 q 221 77 190 117 q 299 38 251 38 q 409 73 353 38 q 516 164 465 108 q 607 279 567 219 q 671 386 647 339 q 751 595 717 483 q 785 811 785 707 q 754 970 785 897 q 649 1090 724 1043 q 642 1100 642 1096 q 656 1101 642 1106 q 780 954 743 1046 q 817 756 817 863 q 793 567 817 663 q 729 386 769 471 q 681 299 711 349 q 608 196 650 249 q 517 99 567 143 q 409 26 467 54 q 290 -1 351 -1 z "},"P":{"ha":736,"x_min":-14,"x_max":858,"o":"m 372 -214 q 363 -204 367 -214 q 350 -116 354 -161 q 344 -22 346 -71 l 256 -4 q 239 229 239 115 q 242 341 239 286 q 251 451 246 396 l 231 451 q 174 458 200 451 q 149 482 149 465 q 156 501 149 492 q 172 511 164 510 q 178 506 178 511 q 174 497 179 500 q 176 479 163 488 q 218 471 190 471 q 230 471 224 471 q 242 472 236 471 q 254 474 251 472 q 285 710 267 596 q 315 926 303 824 l 407 832 q 374 681 390 769 q 346 493 357 593 l 389 510 q 403 583 396 547 q 417 653 410 618 q 442 763 426 703 q 481 881 458 822 q 533 988 503 939 q 606 1067 564 1038 q 700 1096 647 1096 q 785 1066 750 1096 q 840 989 821 1036 q 858 889 858 942 q 828 766 858 828 q 748 652 797 704 q 643 564 699 600 q 522 501 582 525 q 394 465 463 476 q 365 253 376 361 q 354 40 354 144 q 375 -201 354 -89 q 376 -204 375 -203 q 376 -207 376 -206 q 372 -214 376 -214 m 403 515 q 590 646 507 561 q 724 839 672 731 q 745 908 735 867 q 756 988 756 949 q 741 1056 756 1028 q 688 1083 726 1083 q 603 1053 640 1083 q 537 974 565 1024 q 488 867 508 925 q 453 751 467 808 q 429 650 439 694 q 416 584 422 618 q 403 515 410 550 m 94 699 q 17 728 47 699 q -14 794 -14 757 q 15 841 -14 819 q 90 880 43 863 q 192 910 138 897 q 242 923 207 914 q 310 945 276 932 q 354 974 343 958 q 357 985 360 982 q 357 994 354 992 q 365 989 360 996 q 369 976 369 983 q 349 948 369 961 q 299 925 329 935 q 240 908 269 915 q 194 897 211 901 q 47 847 101 878 q -1 786 -7 815 q 69 746 7 746 q 121 754 92 746 q 172 775 150 763 q 194 801 194 788 q 147 825 194 825 q 139 828 139 824 q 149 833 139 833 q 201 818 183 833 q 218 781 218 803 q 199 741 218 760 q 151 710 179 722 q 94 699 122 699 m 343 -1 q 352 231 340 111 q 382 463 364 350 l 343 458 q 333 335 338 397 q 329 210 329 272 q 333 101 329 154 q 343 -1 336 49 z "},"R":{"ha":1133,"x_min":-33,"x_max":1065,"o":"m 113 -146 q 106 -135 107 -146 q 114 -46 108 -90 q 129 46 119 -1 l 47 85 q 85 312 58 201 q 149 528 113 422 l 128 533 q 76 553 97 542 q 54 579 54 565 q 65 597 54 590 q 85 606 75 604 q 90 599 90 604 q 83 592 89 594 q 76 583 76 588 q 91 566 76 574 q 124 554 106 558 q 156 550 143 550 q 240 774 196 667 q 319 976 283 881 l 386 864 q 322 730 356 808 q 254 560 288 651 q 265 556 260 558 q 275 550 269 553 l 296 553 q 326 622 311 589 q 356 688 340 656 q 411 797 378 733 q 488 919 444 860 q 581 1019 531 979 q 689 1058 632 1058 q 776 1035 742 1060 q 828 968 811 1010 q 846 879 846 926 q 831 792 846 836 q 789 713 817 747 q 700 626 757 674 q 554 549 643 579 q 321 508 438 508 q 367 449 346 479 q 399 408 389 418 q 467 324 426 372 q 558 226 508 276 q 664 134 608 176 q 776 65 719 92 q 886 39 832 39 q 958 54 922 39 q 1016 98 993 69 q 1039 165 1039 126 q 1015 245 1039 201 q 953 329 990 289 q 877 395 917 369 q 806 421 838 421 q 748 388 767 421 q 729 311 729 354 q 740 247 729 279 q 768 196 750 215 q 804 173 783 179 q 847 167 825 167 q 900 178 879 167 q 921 210 921 189 q 896 256 921 236 q 842 279 871 276 l 840 279 q 846 284 840 282 q 854 286 851 286 q 896 273 874 286 q 934 240 918 260 q 950 197 950 219 q 923 155 950 169 q 864 140 896 140 q 804 151 833 140 q 758 182 775 163 q 706 273 725 218 q 688 379 688 328 q 709 475 688 435 q 778 515 731 515 q 886 471 821 515 q 1015 331 974 407 q 1063 168 1057 256 q 1039 69 1065 106 q 969 16 1013 32 q 874 0 925 0 q 739 21 806 0 q 633 71 672 42 q 468 212 544 138 q 317 372 392 286 q 299 397 314 375 q 263 443 283 419 q 165 150 206 300 q 118 -135 124 0 q 113 -146 118 -146 m 310 556 q 522 640 422 576 q 696 797 621 704 q 742 877 719 826 q 765 971 765 928 q 749 1024 765 1003 q 689 1046 732 1046 q 586 1008 635 1046 q 496 913 538 971 q 422 792 454 854 q 367 682 389 731 q 338 620 351 651 q 310 556 324 589 m 79 803 q 2 831 38 806 q -33 913 -33 857 q -1 958 -33 940 q 83 983 31 975 q 194 989 135 992 q 246 990 210 989 q 317 997 282 992 q 368 1014 353 1003 q 373 1020 372 1018 q 374 1024 374 1022 q 376 1033 372 1032 q 382 1026 379 1035 q 372 1000 388 1010 q 328 985 356 990 q 271 978 300 979 q 220 976 242 976 q 194 976 199 976 q 39 961 99 979 q -21 913 -21 943 q 6 869 -21 886 q 79 853 33 853 q 150 863 128 853 q 172 886 172 874 q 132 917 172 906 q 125 922 125 917 q 136 925 125 929 q 177 905 163 918 q 192 867 192 892 q 171 828 192 842 q 124 808 150 814 q 79 803 97 803 m 135 72 q 187 263 156 167 q 254 453 218 360 q 240 467 247 460 q 226 481 233 475 q 169 274 193 379 q 135 72 144 169 z "},"Q":{"ha":829,"x_min":72,"x_max":921,"o":"m 731 -553 q 612 -518 665 -553 q 515 -425 558 -483 q 437 -294 471 -367 q 378 -144 403 -221 q 338 3 353 -67 q 290 -1 315 -1 q 186 35 228 -1 q 119 131 144 71 q 83 267 94 192 q 72 422 72 343 q 83 586 72 504 q 113 740 93 668 q 161 864 133 813 q 238 980 197 931 q 339 1060 279 1029 q 490 1103 399 1092 q 500 1104 496 1104 q 510 1104 504 1104 q 628 1059 578 1104 q 705 943 678 1014 q 732 792 732 872 q 718 683 732 738 q 675 583 704 629 q 578 483 638 522 q 460 443 518 443 q 369 476 404 443 q 318 564 335 510 q 301 678 301 618 q 311 769 301 721 q 339 859 321 817 q 383 928 357 901 q 440 954 408 954 q 516 899 485 954 q 540 753 547 843 q 532 700 538 731 q 515 640 526 669 q 482 590 503 610 q 429 569 461 569 q 390 582 406 569 q 386 589 386 586 q 400 590 386 596 q 421 585 407 585 q 474 610 456 585 q 499 672 492 636 q 507 735 507 707 q 480 847 507 807 q 418 888 453 888 q 360 852 383 888 q 324 767 336 817 q 313 672 313 717 q 326 588 313 628 q 364 524 339 549 q 424 499 389 499 q 517 541 472 499 q 583 639 563 583 q 607 734 599 683 q 615 836 615 785 q 603 952 615 899 q 566 1038 590 1006 q 503 1071 542 1071 q 401 1031 451 1071 q 310 928 351 990 q 243 799 269 865 q 182 572 201 697 q 163 332 163 446 q 176 184 163 251 q 221 77 190 117 q 299 38 251 38 q 329 42 315 38 q 310 158 317 104 q 303 250 303 213 q 305 279 303 267 q 308 300 307 292 l 393 368 q 398 242 390 317 q 424 83 406 168 q 524 173 476 119 q 610 283 572 226 q 671 386 649 340 q 751 595 717 483 q 785 811 785 707 q 754 970 785 897 q 649 1090 724 1043 q 642 1100 642 1096 q 656 1101 642 1106 q 780 954 743 1046 q 817 756 817 863 q 793 567 817 663 q 729 386 769 471 q 664 272 707 339 q 563 142 621 206 q 435 40 504 79 q 483 -130 454 -42 q 550 -294 511 -218 q 640 -418 589 -371 q 756 -465 692 -465 q 823 -452 790 -465 q 878 -408 856 -439 q 900 -328 900 -378 q 876 -241 900 -283 q 815 -171 853 -199 q 729 -143 776 -143 q 669 -167 689 -143 q 650 -225 650 -192 q 672 -299 650 -264 q 728 -356 693 -335 q 801 -378 763 -378 q 827 -374 815 -378 q 844 -357 839 -369 q 851 -353 849 -350 q 849 -362 854 -356 q 822 -390 839 -382 q 785 -397 804 -397 q 699 -372 743 -397 q 624 -308 654 -347 q 594 -224 594 -268 q 626 -144 594 -178 q 707 -110 657 -110 q 811 -147 763 -110 q 890 -239 860 -183 q 921 -354 921 -294 q 895 -455 921 -410 q 826 -526 869 -500 q 731 -553 783 -553 z "},"S":{"ha":781,"x_min":-32,"x_max":743,"o":"m 243 -24 q 146 -2 190 -24 q 78 67 101 19 q -25 50 28 53 q -32 57 -32 50 q -24 67 -32 67 q 71 83 24 67 q 62 117 65 99 q 58 157 58 135 q 88 301 58 225 q 165 449 117 378 q 265 568 213 519 q 336 613 299 599 q 407 628 374 628 q 485 601 453 628 q 517 518 517 574 q 507 456 517 492 q 474 378 497 421 q 396 272 449 331 q 271 161 343 214 q 113 78 199 108 q 203 4 133 4 q 349 63 264 4 q 455 161 404 100 q 546 295 506 222 q 609 442 586 368 q 632 583 632 517 q 605 685 632 644 q 513 725 578 725 q 426 712 476 725 q 324 678 376 699 q 227 631 272 657 q 154 581 182 606 q 131 568 150 568 q 84 581 110 568 q 54 606 58 593 q 90 740 54 672 q 193 867 126 807 q 351 970 260 926 q 554 1032 443 1014 q 569 1034 561 1033 q 586 1035 576 1035 q 635 1028 610 1035 q 677 1006 660 1022 q 694 958 694 989 q 667 885 692 924 q 611 836 643 847 q 608 835 610 836 q 604 835 607 835 q 596 840 596 835 q 604 853 596 847 q 638 894 621 868 q 654 942 654 919 q 628 961 654 965 q 506 934 575 957 q 367 869 438 911 q 238 763 297 826 q 146 611 179 699 q 256 678 188 646 q 403 731 325 710 q 549 751 481 751 q 697 695 651 751 q 743 543 743 639 q 716 397 743 472 q 642 249 689 321 q 537 119 596 178 q 413 24 478 61 q 330 -11 374 1 q 243 -24 286 -24 m 108 97 q 242 176 179 128 q 352 274 306 225 q 421 356 399 324 q 453 415 443 388 q 463 461 463 442 q 444 507 463 492 q 397 522 425 522 q 342 510 372 522 q 282 475 313 499 q 156 324 206 414 q 106 138 106 233 q 106 117 106 126 q 108 97 107 107 z "},"T":{"ha":819,"x_min":-22,"x_max":1069,"o":"m 525 -44 l 438 -10 q 469 288 440 142 q 540 570 499 433 q 617 826 581 707 q 415 858 500 849 q 261 868 329 868 q 95 849 158 868 q 21 792 32 829 q 19 782 19 786 q 18 772 18 778 q 57 697 18 733 q 168 637 96 661 q 338 607 240 613 q 433 615 390 604 q 476 661 476 626 q 446 717 476 692 q 369 757 415 742 q 278 772 324 772 q 217 762 242 772 q 193 728 193 751 q 201 708 194 714 q 217 697 207 703 q 225 689 225 694 q 215 686 225 685 q 175 733 175 707 q 210 773 175 763 q 286 783 246 783 q 394 765 340 783 q 483 714 447 746 q 518 640 518 682 q 484 569 518 596 q 399 533 450 543 q 299 522 349 522 q 147 547 221 522 q 26 619 74 572 q -22 729 -22 665 q -8 796 -22 763 q 75 894 21 867 q 204 921 129 921 q 307 914 249 921 q 426 897 365 907 q 540 875 488 886 q 625 856 592 864 l 639 900 l 675 847 q 792 834 728 840 q 911 828 856 828 q 974 831 946 828 q 1021 842 1003 835 q 1038 853 1035 849 q 1040 860 1040 857 q 1053 879 1044 879 q 1064 864 1060 879 q 1020 814 1069 828 q 900 800 971 800 q 797 805 850 800 q 697 815 743 810 l 714 793 q 652 626 685 725 q 590 412 619 526 q 543 180 561 297 q 525 -44 525 63 z "},"U":{"ha":943,"x_min":7,"x_max":963,"o":"m 179 683 q 98 703 138 683 q 33 766 58 724 q 7 875 7 808 q 53 956 7 926 q 174 999 99 986 q 336 1008 250 1011 q 388 1010 353 1008 q 462 1015 422 1011 q 536 1028 501 1019 q 588 1053 571 1038 q 594 1064 593 1060 q 594 1071 594 1068 q 599 1088 594 1088 q 606 1078 603 1088 q 608 1063 608 1068 q 583 1024 608 1039 q 520 1000 558 1008 q 443 988 482 992 q 375 985 404 985 q 253 981 315 985 q 140 967 192 978 q 56 934 88 956 q 25 875 25 913 q 65 800 25 828 q 174 772 106 772 q 232 777 201 772 q 284 794 263 782 q 306 828 306 807 q 246 883 306 864 q 236 892 236 883 q 251 897 236 901 q 303 869 285 886 q 326 835 321 853 q 332 815 331 825 q 333 794 333 804 q 306 730 333 754 q 243 694 279 706 q 179 683 207 683 m 868 -158 q 829 -139 860 -158 q 747 -56 783 -111 q 683 74 710 0 q 642 232 657 149 q 477 60 558 126 q 335 -7 396 -7 q 254 38 282 -6 q 226 156 226 82 q 253 360 226 256 q 319 569 279 464 q 403 776 360 674 q 479 971 446 878 l 556 874 q 518 795 544 851 q 459 663 492 739 q 397 501 426 586 q 347 335 367 417 q 328 189 328 254 q 342 108 328 142 q 388 75 357 75 q 442 94 410 75 q 511 144 475 114 q 581 208 547 175 q 636 269 614 242 q 625 371 629 319 q 621 474 621 422 q 637 677 621 579 q 686 853 653 775 q 771 976 719 931 q 893 1021 822 1021 q 947 988 932 1021 q 963 918 963 956 q 929 747 963 847 q 840 538 896 647 q 713 328 783 429 q 728 142 715 231 q 769 -16 742 53 q 840 -122 797 -85 q 867 -145 857 -132 q 868 -158 878 -158 m 711 382 q 806 549 760 463 q 882 723 851 636 q 913 889 913 810 q 906 947 913 918 q 879 976 900 976 q 814 925 844 976 q 761 788 783 874 q 726 597 739 703 q 711 382 713 492 z "},"V":{"ha":846,"x_min":7,"x_max":919,"o":"m 179 683 q 98 703 138 683 q 33 766 58 724 q 7 875 7 808 q 53 956 7 926 q 174 999 99 986 q 336 1008 250 1011 q 388 1010 353 1008 q 462 1015 422 1011 q 536 1028 501 1019 q 588 1053 571 1038 q 594 1064 593 1060 q 594 1071 594 1068 q 599 1088 594 1088 q 607 1075 603 1088 q 608 1063 608 1071 q 583 1024 608 1039 q 520 1000 558 1008 q 443 988 482 992 q 375 985 404 985 q 253 981 315 985 q 140 967 192 978 q 56 934 88 956 q 25 875 25 913 q 65 800 25 828 q 174 772 106 772 q 232 777 201 772 q 284 794 263 782 q 306 828 306 807 q 246 883 306 864 q 236 892 236 883 q 251 897 236 901 q 313 859 292 883 q 333 794 333 835 q 306 730 333 754 q 243 694 279 706 q 179 683 207 683 m 338 -7 q 255 37 283 -7 q 226 156 226 81 q 253 360 226 256 q 319 569 279 464 q 403 776 360 674 q 479 971 446 878 l 556 874 q 518 795 544 851 q 459 663 492 739 q 397 501 426 586 q 347 335 367 417 q 328 189 328 254 q 338 117 328 144 q 375 90 349 90 q 449 120 408 90 q 531 197 489 150 q 610 296 572 244 q 672 389 647 347 q 817 653 757 529 q 876 875 876 776 q 871 930 876 907 q 847 953 865 953 q 828 967 828 960 q 835 979 828 971 q 860 988 843 988 q 882 982 868 988 q 908 959 896 976 q 919 903 919 942 q 899 781 919 854 q 841 623 878 708 q 756 449 804 538 q 654 279 708 361 q 544 133 600 197 q 435 31 489 68 q 338 -7 382 -7 z "},"W":{"ha":1197,"x_min":7,"x_max":1543,"o":"m 335 -7 q 254 38 282 -6 q 226 156 226 82 q 253 360 226 256 q 319 569 279 464 q 403 776 360 674 q 479 971 446 878 l 556 874 q 518 795 544 851 q 459 663 492 739 q 397 501 426 586 q 347 335 367 417 q 328 189 328 254 q 338 117 328 144 q 375 90 349 90 q 440 115 404 90 q 515 180 476 140 q 587 263 553 219 q 644 344 621 307 q 626 451 632 397 q 621 558 621 506 q 635 720 621 643 q 680 858 650 797 q 755 953 710 918 q 860 988 800 988 q 882 982 868 988 q 908 959 896 976 q 919 903 919 942 q 890 754 919 844 q 813 560 861 664 q 703 357 764 457 q 751 174 715 256 q 857 56 788 92 q 900 104 878 46 q 940 239 918 157 q 988 414 963 321 q 1042 596 1014 507 q 1103 753 1071 685 q 1219 933 1150 856 q 1366 1056 1288 1011 q 1519 1100 1444 1100 q 1543 1089 1543 1100 q 1521 1075 1543 1075 q 1402 1037 1458 1075 q 1297 933 1346 999 q 1206 786 1247 868 q 1133 617 1165 704 q 1101 513 1118 571 q 1067 392 1083 454 q 1036 276 1050 331 q 1012 182 1022 221 q 999 132 1001 143 q 947 33 979 61 q 885 4 915 4 q 816 31 850 4 q 751 101 782 58 q 697 194 721 144 q 660 289 672 244 q 547 138 604 206 q 435 32 489 71 q 335 -7 381 -7 m 179 683 q 98 703 138 683 q 33 766 58 724 q 7 875 7 808 q 53 956 7 926 q 174 999 99 986 q 336 1008 250 1011 q 388 1010 353 1008 q 462 1015 422 1011 q 536 1028 501 1019 q 588 1053 571 1038 q 594 1064 593 1060 q 594 1071 594 1068 q 599 1088 594 1088 q 607 1075 603 1088 q 608 1063 608 1071 q 583 1024 608 1039 q 520 1000 558 1008 q 443 988 482 992 q 375 985 404 985 q 253 981 315 985 q 140 967 192 978 q 56 934 88 956 q 25 875 25 913 q 65 800 25 828 q 174 772 106 772 q 232 777 201 772 q 284 794 263 782 q 306 828 306 807 q 246 883 306 864 q 236 892 236 883 q 251 897 236 901 q 313 859 292 883 q 333 794 333 835 q 306 730 333 754 q 243 694 279 706 q 179 683 207 683 m 696 429 q 825 672 774 560 q 876 879 876 785 q 871 932 876 911 q 847 953 865 953 q 790 913 818 953 q 741 804 763 872 q 707 651 719 736 q 694 478 694 567 q 694 453 694 465 q 696 429 694 442 z "},"X":{"ha":1192,"x_min":13,"x_max":1456,"o":"m 303 -142 q 283 -131 283 -142 q 310 -99 283 -117 q 436 21 372 -54 q 565 189 500 96 q 699 383 631 282 q 838 581 767 483 q 801 715 822 643 q 752 849 781 786 q 686 951 724 911 q 600 990 649 990 q 507 962 557 990 q 407 889 457 933 q 311 797 357 844 q 210 682 258 744 q 132 553 163 619 q 101 424 101 488 q 133 317 101 364 q 224 271 164 271 q 323 296 269 271 q 424 360 376 321 q 501 445 471 400 q 532 531 532 490 q 500 612 532 575 q 411 649 468 649 q 332 631 374 649 q 266 588 299 617 q 213 525 233 558 q 192 465 192 492 q 210 428 192 442 q 257 415 229 415 q 315 427 283 415 q 376 463 346 439 q 416 503 394 476 q 438 554 438 529 q 413 592 438 578 q 390 597 403 597 q 380 602 383 599 q 389 607 376 606 q 424 599 407 607 q 451 578 443 590 q 460 550 460 565 q 440 494 460 524 q 403 446 419 464 q 319 387 364 407 q 238 367 274 367 q 183 383 204 367 q 161 431 161 400 q 188 515 161 472 q 258 594 215 558 q 352 652 301 631 q 449 674 403 674 q 540 651 501 674 q 601 590 579 628 q 622 510 622 553 q 589 403 622 453 q 502 317 556 354 q 387 258 449 279 q 267 238 325 238 q 143 269 201 238 q 49 353 85 301 q 13 463 13 404 q 68 646 13 558 q 206 813 124 733 q 328 905 258 861 q 473 977 397 949 q 618 1006 549 1006 q 753 961 699 1006 q 847 844 808 917 q 914 682 885 771 q 1067 850 989 775 q 1231 972 1146 925 q 1408 1021 1317 1018 q 1444 1013 1433 1022 q 1456 989 1456 1004 q 1441 951 1456 972 q 1402 915 1426 931 q 1347 899 1378 900 q 1134 817 1239 893 q 931 629 1029 742 q 974 462 954 547 q 1013 297 993 376 q 1059 151 1033 217 q 1121 44 1085 86 q 1104 8 1118 22 q 1053 -3 1090 -7 q 959 151 996 64 q 897 337 922 239 q 849 531 871 435 q 688 307 764 422 q 544 93 611 192 q 421 -67 476 -6 q 354 -125 386 -108 q 303 -142 322 -142 z "},"Y":{"ha":1071,"x_min":7,"x_max":1000,"o":"m 179 683 q 98 703 138 683 q 33 766 58 724 q 7 875 7 808 q 53 956 7 926 q 174 999 99 986 q 336 1008 250 1011 q 388 1010 353 1008 q 462 1015 422 1011 q 536 1028 501 1019 q 588 1053 571 1038 q 594 1064 593 1060 q 594 1071 594 1068 q 599 1088 594 1088 q 607 1075 603 1088 q 608 1063 608 1071 q 583 1024 608 1039 q 520 1000 558 1008 q 443 988 482 992 q 375 985 404 985 q 253 981 315 985 q 140 967 192 978 q 56 934 88 956 q 25 875 25 913 q 65 800 25 828 q 174 772 106 772 q 232 777 201 772 q 284 794 263 782 q 306 828 306 807 q 246 883 306 864 q 236 892 236 883 q 251 897 236 901 q 313 859 292 883 q 333 794 333 835 q 306 730 333 754 q 243 694 279 706 q 179 683 207 683 m 301 -554 q 183 -498 222 -554 q 144 -360 144 -442 q 180 -191 144 -281 q 283 -29 215 -101 q 409 69 340 32 q 535 106 478 106 q 612 76 581 106 q 643 -19 643 46 q 628 -115 643 -65 q 594 -203 613 -165 q 490 -359 542 -311 q 400 -407 438 -407 q 356 -383 372 -407 q 339 -317 339 -360 q 356 -221 339 -274 q 403 -122 374 -168 q 467 -47 432 -75 q 538 -22 503 -18 q 565 -35 556 -26 q 568 -40 568 -40 q 563 -43 568 -43 q 553 -42 558 -43 q 535 -36 551 -36 q 478 -58 506 -36 q 431 -116 451 -81 q 399 -190 411 -151 q 388 -262 388 -229 q 403 -321 388 -300 q 442 -342 418 -342 q 509 -308 471 -342 q 583 -200 547 -274 q 615 -121 603 -161 q 626 -49 626 -81 q 606 26 626 4 q 554 49 586 49 q 487 31 524 49 q 415 -18 450 13 q 356 -86 381 -49 q 297 -199 324 -136 q 253 -322 269 -261 q 238 -429 238 -382 q 252 -497 238 -471 q 300 -522 267 -522 q 384 -499 339 -522 q 476 -436 429 -475 q 567 -350 524 -397 q 643 -256 610 -303 q 758 -65 713 -157 q 839 124 803 26 q 886 273 864 190 q 922 442 908 356 q 936 607 936 529 q 933 676 936 643 q 921 738 929 710 q 836 576 889 661 q 719 409 783 490 q 587 263 654 328 q 456 158 519 197 q 343 119 393 119 q 259 156 288 119 q 231 256 231 193 q 256 426 231 339 q 322 603 282 514 q 403 785 361 693 q 479 971 446 878 l 556 874 q 518 801 544 851 q 460 686 492 751 q 399 549 429 621 q 351 409 369 478 q 332 285 332 340 q 346 217 332 246 q 390 188 360 188 q 458 210 417 188 q 543 269 499 233 q 626 343 588 304 q 689 413 665 382 q 772 533 731 471 q 848 660 814 596 q 899 786 882 725 q 864 831 881 801 q 837 891 847 860 q 826 943 826 922 q 843 981 826 965 q 881 997 860 997 q 938 967 915 997 q 961 897 961 938 q 953 838 961 871 q 933 768 946 806 q 985 638 969 708 q 1000 494 1000 568 q 975 278 1000 388 q 918 75 950 169 q 857 -74 893 0 q 781 -212 821 -147 q 703 -324 742 -276 q 591 -440 647 -389 q 465 -522 535 -492 q 301 -554 396 -551 z "},"Z":{"ha":1235,"x_min":1,"x_max":1150,"o":"m 151 -39 q 90 -25 125 -39 q 28 12 54 -11 q 1 65 1 35 q 26 126 1 101 q 107 151 51 151 q 192 144 143 151 q 306 119 242 136 q 397 254 354 176 q 479 417 440 332 q 553 586 518 503 q 622 740 589 669 q 686 853 654 810 q 560 866 626 861 q 428 871 493 871 q 299 860 361 871 q 199 825 238 849 q 163 764 161 801 q 163 756 163 763 q 160 749 163 749 q 151 756 156 749 q 147 768 147 763 q 181 913 142 856 q 310 971 219 971 q 447 958 372 971 q 593 928 521 946 q 721 892 665 910 q 853 985 788 961 q 982 1008 919 1008 q 1049 987 1028 1008 q 1071 938 1071 965 q 1021 850 1071 881 q 906 819 971 819 q 837 826 871 819 q 767 839 803 832 q 655 683 717 783 q 521 443 593 582 q 433 277 479 367 q 336 111 388 188 q 534 58 457 78 q 665 31 611 39 q 774 22 719 22 q 925 57 865 22 q 1014 147 985 92 q 1043 258 1043 201 q 1019 360 1043 314 q 953 433 996 406 q 854 460 911 460 q 761 446 811 460 q 668 406 711 432 q 597 344 625 381 q 569 263 569 307 q 593 193 569 226 q 653 140 617 160 q 731 119 690 119 q 823 156 786 119 q 860 239 860 192 q 842 298 860 272 q 798 339 825 324 q 743 354 771 354 q 685 339 711 354 q 650 308 660 324 q 638 296 644 299 q 638 306 632 293 q 662 338 642 322 q 708 365 682 354 q 757 376 735 376 q 833 356 797 376 q 893 303 869 336 q 917 228 917 269 q 875 132 917 174 q 767 90 833 90 q 663 116 714 90 q 581 185 613 142 q 549 283 549 229 q 584 385 549 339 q 676 466 619 432 q 796 519 732 500 q 918 538 860 538 q 1044 506 993 538 q 1123 424 1096 475 q 1150 311 1150 372 q 1117 180 1150 240 q 1028 75 1083 119 q 904 6 972 31 q 768 -19 836 -19 q 644 -5 721 -19 q 481 33 567 10 q 317 82 394 57 q 235 -5 276 29 q 151 -39 194 -39 m 935 842 q 1012 863 979 842 q 1044 915 1044 883 q 1027 949 1044 936 q 986 963 1010 961 q 884 935 933 963 q 794 868 835 908 q 862 850 825 858 q 935 842 899 842 m 122 14 q 206 35 167 14 q 281 93 246 57 q 179 120 222 110 q 104 131 136 131 q 55 121 68 131 q 42 83 42 111 q 63 33 42 53 q 122 14 83 14 z "},",":{"ha":285,"x_min":35,"x_max":219,"o":"m 43 -219 q 35 -212 35 -219 q 50 -190 35 -199 q 171 1 167 -119 q 159 0 165 0 q 147 0 153 0 q 88 18 107 0 q 68 57 68 36 q 93 110 68 89 q 150 132 118 132 q 219 32 219 132 q 170 -114 219 -49 q 51 -217 121 -179 q 43 -219 43 -219 z "},"-":{"ha":456,"x_min":83,"x_max":433,"o":"m 232 261 q 147 264 186 261 q 90 272 107 267 q 99 286 83 275 q 133 300 114 297 q 172 303 151 303 q 214 304 192 304 q 314 301 263 304 q 404 300 365 299 q 433 290 433 300 q 399 271 433 281 q 333 264 381 267 q 232 261 285 261 z "},".":{"ha":285,"x_min":76,"x_max":221,"o":"m 135 1 q 90 22 104 1 q 76 74 76 43 q 104 125 76 104 q 163 146 132 146 q 207 125 193 146 q 221 74 221 104 q 193 22 221 43 q 135 1 165 1 z "},"/":{"ha":742,"x_min":53,"x_max":697,"o":"m 94 -112 q 64 -93 76 -112 q 53 -54 53 -68 q 314 419 53 39 q 524 708 443 610 q 639 819 606 807 l 650 819 q 681 813 664 819 q 697 794 697 804 q 694 790 697 793 q 544 619 631 724 q 347 372 457 515 q 88 -54 88 38 q 90 -62 88 -57 q 94 -78 92 -68 q 101 -103 101 -99 q 94 -112 101 -112 z "},":":{"ha":372,"x_min":132,"x_max":294,"o":"m 208 290 q 164 311 178 290 q 150 363 150 332 q 178 414 150 393 q 236 435 206 435 q 281 414 267 435 q 294 363 294 393 q 267 311 294 332 q 208 290 239 290 m 190 1 q 146 22 160 1 q 132 74 132 43 q 160 125 132 104 q 218 146 188 146 q 263 125 249 146 q 276 74 276 104 q 249 22 276 43 q 190 1 221 1 z "},";":{"ha":394,"x_min":104,"x_max":294,"o":"m 208 290 q 164 311 178 290 q 150 363 150 332 q 178 414 150 393 q 236 435 206 435 q 281 414 267 435 q 294 363 294 393 q 267 311 294 332 q 208 290 239 290 m 111 -219 q 104 -212 104 -219 q 119 -190 104 -199 q 242 11 242 -114 q 218 75 242 75 q 194 46 194 75 q 210 35 194 39 q 224 19 224 31 q 206 7 224 7 q 136 57 136 7 q 163 110 136 89 q 219 132 189 132 q 290 32 290 132 q 239 -114 290 -46 q 119 -217 189 -181 q 111 -219 111 -219 z "},"?":{"ha":426,"x_min":46,"x_max":522,"o":"m 249 119 q 228 124 239 119 q 179 207 179 151 q 201 278 179 247 q 296 384 250 329 q 390 497 342 439 q 454 658 454 578 q 397 789 454 742 q 253 836 340 836 q 136 791 172 836 q 100 674 100 746 q 115 586 100 629 q 158 516 129 543 q 231 489 188 489 q 299 569 299 489 q 264 706 299 628 q 221 763 239 763 q 208 732 208 763 q 213 704 208 724 q 217 676 217 686 q 201 656 217 656 q 183 679 192 656 q 178 713 178 694 q 190 764 178 739 q 226 788 203 788 q 304 721 269 788 q 333 615 333 665 q 318 535 333 572 q 276 474 303 497 q 214 450 250 450 q 133 484 171 450 q 70 569 94 518 q 46 668 46 619 q 102 819 46 760 q 251 878 158 878 q 383 848 321 878 q 483 765 444 818 q 522 646 522 713 q 443 464 522 554 q 395 417 432 451 q 294 326 358 383 q 215 217 215 256 q 242 174 215 194 q 269 142 269 153 q 249 119 269 119 m 196 -72 q 151 -51 165 -72 q 138 0 138 -31 q 165 51 138 31 q 224 72 193 72 q 268 51 254 72 q 282 0 282 31 q 254 -51 282 -31 q 196 -72 226 -72 z "},"[":{"ha":432,"x_min":24,"x_max":365,"o":"m 306 -76 q 263 -65 290 -72 q 196 -49 236 -58 q 158 -42 182 -46 q 101 -32 135 -39 q 24 -1 24 -15 q 81 6 24 6 q 115 236 115 74 q 113 311 115 267 q 108 415 111 356 q 103 521 106 476 q 101 594 101 565 q 105 665 101 626 q 115 751 108 704 q 139 838 126 825 q 178 855 168 853 q 192 857 188 857 q 225 840 225 857 l 207 804 q 282 825 222 807 q 323 837 306 833 q 351 840 340 840 q 365 825 365 840 q 338 801 365 810 q 317 797 328 799 q 296 792 307 794 l 192 760 q 161 492 161 669 q 161 451 161 475 q 163 393 161 426 q 164 336 164 361 q 164 294 164 311 q 160 178 164 231 q 150 81 157 125 q 140 43 147 63 q 121 3 133 24 q 346 -26 271 -3 q 353 -33 353 -29 q 338 -61 353 -46 q 308 -76 318 -76 l 306 -76 z "},"\\":{"ha":742,"x_min":68,"x_max":714,"o":"m 671 -112 q 665 -103 665 -112 q 671 -78 665 -90 q 676 -54 676 -65 q 418 372 676 35 q 225 615 311 511 q 69 790 139 719 q 68 794 68 792 q 86 814 68 806 q 114 819 97 819 q 132 814 126 819 q 469 394 242 717 q 714 -54 714 46 q 701 -93 714 -72 q 671 -112 689 -112 z "},"]":{"ha":432,"x_min":75,"x_max":407,"o":"m 113 -76 q 88 -62 101 -76 q 75 -36 75 -47 q 82 -26 75 -29 q 173 -8 117 -15 q 308 3 229 -1 q 288 110 288 51 q 313 379 288 200 q 330 537 324 469 q 336 649 336 604 q 328 760 336 710 l 228 792 l 175 804 q 161 822 161 810 q 178 840 161 840 q 244 825 192 840 q 317 804 300 807 q 303 839 303 838 q 338 857 303 857 q 369 846 358 857 q 388 839 376 846 q 404 694 404 822 q 397 592 404 653 q 376 451 390 531 q 344 242 356 329 q 333 103 333 156 q 351 6 333 47 l 369 6 q 407 -1 407 6 q 326 -32 407 -14 q 249 -44 285 -33 l 118 -76 l 113 -76 z "},"^":{"ha":374,"x_min":72,"x_max":340,"o":"m 85 429 q 72 443 72 429 q 135 519 72 461 q 189 557 176 557 q 275 513 210 557 q 340 451 340 467 q 331 443 340 443 q 263 469 319 443 q 214 492 232 483 q 189 504 196 500 q 107 442 138 476 q 85 429 94 429 z "},"_":{"ha":849,"x_min":26,"x_max":843,"o":"m 46 -57 q 26 -46 26 -57 q 75 -11 26 -28 q 222 -6 96 -6 l 414 -6 q 549 -6 483 -6 q 679 -8 615 -6 q 728 -11 703 -10 q 783 -15 754 -12 q 843 -28 843 -19 q 757 -43 843 -40 q 688 -43 722 -43 q 619 -44 654 -43 l 54 -57 l 46 -57 z "},"`":{"ha":279,"x_min":19,"x_max":260,"o":"m 253 593 q 242 597 249 593 q 142 649 199 624 q 38 699 85 675 q 19 721 19 707 q 46 742 19 739 q 83 734 60 744 q 144 696 107 724 q 178 672 156 689 q 224 636 201 654 q 258 607 247 618 q 260 601 260 606 q 253 593 260 593 z "},"":{"ha":429,"x_min":42,"x_max":372,"o":"m 206 -157 q 182 -118 182 -157 q 183 7 182 -68 q 183 182 183 82 l 186 482 q 186 526 186 506 q 183 564 186 546 l 167 564 q 58 576 96 564 q 42 601 42 583 q 63 632 42 632 q 84 631 71 632 q 114 626 97 629 q 144 622 132 624 q 167 621 157 621 l 183 621 q 183 642 183 629 q 182 675 183 656 l 182 728 q 199 836 182 815 q 243 857 215 857 q 279 839 279 857 q 258 736 279 811 q 233 626 238 656 q 256 631 242 628 q 294 640 271 633 q 351 650 332 650 q 372 619 372 650 q 358 594 372 599 q 308 579 339 586 q 232 568 276 572 q 224 374 224 481 q 244 -67 224 178 q 247 -97 246 -86 q 249 -111 249 -108 q 235 -143 249 -129 q 206 -157 222 -157 z "},"":{"ha":415,"x_min":72,"x_max":354,"o":"m 208 482 q 108 526 144 482 q 72 628 72 571 q 110 729 72 689 q 210 769 147 769 q 285 745 253 769 q 336 684 318 721 q 354 608 354 647 q 313 515 354 549 q 208 482 272 482 m 204 515 q 319 597 319 515 q 282 689 319 651 q 192 726 244 726 q 106 639 106 726 q 133 553 106 592 q 204 515 161 515 z "},"":{"ha":381,"x_min":32,"x_max":399,"o":"m 128 -135 q 115 -122 115 -135 q 119 -112 115 -118 l 168 44 q 69 107 106 60 q 32 210 32 154 q 85 363 32 289 q 215 451 136 435 q 254 586 240 533 l 268 650 q 288 668 269 668 q 310 647 310 668 q 285 557 310 628 q 251 457 254 469 l 260 457 q 328 440 301 457 q 354 390 354 422 q 308 321 354 357 q 226 288 263 288 q 168 354 168 288 q 182 407 168 385 q 86 225 86 340 q 125 116 86 157 q 232 75 164 75 q 360 128 315 75 q 376 150 369 138 q 394 164 386 164 q 399 156 399 164 q 390 132 399 144 q 214 40 331 40 q 182 -46 199 -7 q 150 -118 165 -85 q 128 -135 142 -135 m 221 308 q 275 343 244 308 q 306 403 306 379 q 299 422 306 411 q 257 429 275 429 l 244 429 q 239 408 243 422 q 225 375 235 394 q 210 321 210 338 q 221 308 210 308 z "},"":{"ha":744,"x_min":7,"x_max":719,"o":"m 647 -83 q 547 -63 606 -83 q 431 -10 488 -43 q 392 12 422 -4 q 322 49 363 28 q 240 90 282 69 q 193 1 222 39 q 118 -37 164 -37 q 61 -17 86 -37 q 22 37 36 4 q 7 101 7 69 q 26 160 7 143 q 76 176 46 176 q 149 164 108 176 q 233 132 190 151 q 245 181 240 156 q 254 232 250 206 q 186 233 218 231 q 142 243 154 236 q 140 246 140 243 q 149 260 140 251 q 172 271 158 268 q 210 275 189 275 q 258 271 233 275 q 275 437 267 354 q 310 574 283 519 q 413 698 347 653 q 571 743 478 743 q 662 694 629 743 q 694 578 694 644 q 681 493 694 536 q 638 414 667 450 q 569 353 608 376 q 493 329 529 329 q 432 356 458 329 q 406 442 406 382 q 410 485 406 464 q 418 524 414 507 q 469 621 442 592 q 521 650 497 650 q 557 628 543 650 q 571 567 571 606 q 567 524 571 547 q 553 476 564 506 q 523 426 542 447 q 476 408 504 406 q 465 413 469 411 q 456 418 461 415 q 455 424 451 422 q 464 422 458 425 q 476 419 467 419 q 515 438 501 419 q 537 482 529 457 q 546 522 544 507 q 547 531 546 526 q 547 539 547 535 q 534 591 547 572 q 501 610 521 610 q 462 589 482 610 q 426 522 442 568 q 414 453 414 488 q 428 393 414 421 q 472 365 442 365 q 535 391 503 365 q 585 451 567 417 q 614 536 603 489 q 625 624 625 583 q 612 695 625 667 q 569 724 599 724 q 502 699 538 724 q 435 635 467 674 q 382 556 404 597 q 330 435 349 493 q 300 317 311 378 l 289 268 q 333 264 313 264 q 349 265 342 264 q 363 267 357 265 q 368 267 365 267 q 372 268 371 268 q 382 263 382 268 q 358 244 382 254 q 328 238 349 240 q 281 233 307 235 q 267 178 274 206 q 251 124 260 150 q 340 77 299 101 q 409 35 382 53 q 439 17 436 18 q 562 -47 504 -25 q 654 -68 619 -68 q 688 -58 678 -68 q 697 -32 697 -47 q 668 27 697 -4 q 586 81 639 58 q 544 90 561 90 q 518 68 518 90 q 533 36 518 51 q 569 11 549 21 q 607 1 590 1 q 631 11 625 1 l 632 15 q 630 17 631 17 q 629 18 629 18 q 633 17 629 19 q 638 10 638 15 q 615 -10 638 -10 q 592 -6 606 -10 q 565 4 578 -1 q 525 33 544 14 q 506 79 506 53 q 521 115 506 103 q 560 126 536 126 q 611 117 585 126 q 651 97 638 107 q 699 52 679 79 q 719 -8 719 25 q 699 -67 719 -50 q 647 -83 679 -83 m 119 11 q 183 40 158 11 q 221 100 207 69 q 145 133 179 119 q 94 147 111 146 q 33 132 51 147 q 15 96 15 117 q 32 54 15 74 q 73 23 49 35 q 119 11 97 11 z "},"":{"ha":758,"x_min":-65,"x_max":889,"o":"m 222 -343 q 81 -315 146 -343 q -25 -235 15 -286 q -65 -119 -65 -185 q -30 -17 -65 -61 q 62 51 6 26 q 181 75 118 75 q 305 43 249 75 q 371 -60 361 11 q 353 -147 376 -103 q 292 -220 331 -190 q 208 -250 253 -250 q 129 -220 163 -250 q 96 -147 96 -190 q 119 -81 96 -112 q 177 -28 143 -49 q 240 -8 211 -8 q 288 -26 268 -8 q 293 -34 294 -32 q 285 -31 292 -36 q 258 -22 272 -22 q 206 -38 232 -22 q 163 -80 181 -54 q 146 -135 146 -106 q 167 -194 146 -168 q 225 -219 188 -219 q 315 -178 279 -219 q 351 -79 351 -137 q 315 5 351 -26 q 225 36 279 36 q 149 19 188 36 q 76 -28 110 1 q 22 -94 43 -58 q 1 -165 1 -129 q 38 -247 1 -212 q 127 -301 75 -282 q 225 -319 179 -319 q 358 -290 293 -319 q 483 -212 422 -260 q 599 -112 543 -164 q 615 -57 615 -87 q 572 43 615 -8 q 447 124 529 94 q 376 150 419 135 q 285 188 333 165 q 194 242 236 211 q 124 312 151 272 q 97 401 97 351 q 125 497 97 467 q 206 546 153 528 q 192 599 192 574 q 193 614 192 610 q 245 729 204 679 q 347 813 286 779 q 482 863 408 846 q 631 879 556 879 q 751 864 692 879 q 849 817 810 849 q 889 736 889 786 q 860 658 889 693 q 791 601 832 622 q 711 581 750 581 q 679 597 679 581 q 711 611 679 611 q 801 643 772 611 q 829 714 829 675 q 779 810 829 779 q 656 840 729 840 q 498 806 572 840 q 371 718 424 771 q 317 650 333 681 q 300 594 300 619 q 338 524 300 553 q 433 477 375 496 q 553 443 492 458 q 706 377 649 421 q 790 277 764 333 q 815 158 815 221 q 774 -20 815 58 q 660 -159 732 -99 q 496 -268 589 -219 q 360 -323 431 -303 q 222 -343 289 -343 m 636 -74 q 698 28 678 -25 q 718 138 718 82 q 687 256 718 206 q 605 341 656 306 q 494 398 554 376 q 375 431 433 419 q 278 466 317 440 q 218 524 240 492 q 184 488 193 510 q 174 442 175 465 q 174 399 174 418 q 202 322 174 354 q 279 266 231 290 q 390 219 328 242 q 518 172 451 197 q 608 98 571 151 q 644 -18 644 44 q 636 -74 644 -46 z "},"":{"ha":744,"x_min":75,"x_max":676,"o":"m 376 28 q 221 69 289 28 q 114 178 153 110 q 75 329 75 247 q 115 481 75 413 q 222 589 154 549 q 376 629 290 629 q 528 589 461 629 q 636 481 596 549 q 676 329 676 414 q 637 178 676 246 q 529 69 597 110 q 376 28 461 28 z "},"":{"ha":872,"x_min":117,"x_max":847,"o":"m 614 -346 q 585 -328 599 -346 q 565 -285 572 -311 q 555 -139 558 -236 q 551 81 551 -42 q 555 328 551 199 q 566 579 558 457 q 585 796 574 701 q 544 798 564 797 q 508 799 525 799 q 416 787 464 799 q 326 756 368 775 q 257 711 285 736 q 172 547 172 633 q 203 459 172 500 q 297 394 233 418 q 347 378 325 385 q 390 372 369 372 q 460 393 426 372 q 494 453 494 414 q 478 508 494 481 q 437 553 463 535 q 382 571 411 571 q 312 549 347 571 q 276 485 276 526 q 303 432 276 454 q 353 410 331 410 q 393 428 376 410 q 410 471 410 447 q 392 514 410 497 q 356 531 374 531 q 324 518 340 531 q 317 513 318 515 q 314 508 315 511 q 308 502 311 503 q 308 507 306 501 q 321 522 313 517 q 365 540 344 540 q 415 517 392 540 q 438 464 438 494 q 419 417 438 438 q 369 396 400 396 q 299 424 331 396 q 268 494 268 453 q 295 560 268 532 q 361 603 322 588 q 435 619 400 619 q 513 588 485 619 q 540 511 540 556 q 504 417 540 460 q 416 350 468 375 q 315 325 364 325 q 210 353 256 325 q 141 426 165 381 q 117 526 117 472 q 138 634 117 579 q 206 731 160 689 q 382 817 272 792 q 608 842 492 842 q 712 838 661 842 q 800 824 763 833 q 836 803 825 817 q 847 778 847 790 q 840 758 847 767 q 819 751 832 750 q 819 735 819 747 q 817 721 818 724 q 790 504 803 621 q 770 265 778 388 q 763 25 763 143 q 769 -169 763 -76 q 793 -339 776 -261 q 774 -346 782 -346 q 745 -328 758 -346 q 725 -285 732 -311 q 691 -69 701 -190 q 681 181 681 51 q 694 495 681 339 q 735 776 708 651 q 696 784 715 781 q 656 790 676 788 q 613 465 629 644 q 596 108 596 286 q 605 -131 596 -15 q 633 -339 614 -246 q 614 -346 622 -346 z "},"":{"ha":658,"x_min":-374,"x_max":629,"o":"m -182 -528 q -288 -493 -246 -528 q -352 -403 -331 -458 q -374 -289 -374 -349 q -352 -176 -374 -228 q -296 -94 -331 -125 q -222 -64 -261 -64 q -146 -97 -182 -64 q -87 -181 -110 -131 q -64 -285 -64 -232 q -83 -363 -64 -331 q -139 -396 -103 -396 q -189 -378 -164 -396 q -231 -330 -214 -361 q -247 -260 -247 -299 q -235 -196 -247 -228 q -194 -164 -222 -164 q -182 -167 -190 -164 q -174 -172 -174 -169 q -181 -175 -174 -175 q -215 -192 -201 -167 q -228 -247 -228 -218 q -200 -320 -228 -290 q -142 -350 -172 -350 q -98 -327 -114 -350 q -82 -274 -82 -304 q -96 -203 -82 -240 q -129 -137 -110 -167 q -163 -105 -142 -118 q -208 -92 -185 -92 q -272 -116 -246 -92 q -312 -178 -299 -140 q -326 -260 -326 -217 q -308 -366 -326 -312 q -257 -454 -290 -419 q -179 -489 -224 -489 q -97 -456 -135 -489 q -28 -369 -58 -424 q 24 -249 1 -315 q 61 -112 46 -182 q 83 21 76 -42 q 91 108 88 54 q 97 221 94 161 q 103 335 100 281 q 108 428 106 390 q 125 525 114 469 q 159 638 136 581 q 219 745 182 696 q 313 825 257 794 q 449 856 369 856 q 574 810 531 856 q 617 700 617 765 q 598 613 617 658 q 548 528 579 568 q 479 458 517 488 q 406 417 442 429 q 473 362 435 392 q 547 297 511 332 q 606 221 582 261 q 629 136 629 181 q 603 50 629 94 q 538 -31 578 6 q 456 -85 499 -67 q 351 -103 408 -103 q 297 -97 322 -103 q 256 -76 271 -90 q 224 -78 240 -78 q 190 -78 208 -78 q 185 -74 186 -76 q 189 -71 185 -71 q 207 -72 199 -71 q 224 -72 215 -72 q 238 -72 231 -72 q 250 -69 244 -71 q 243 -49 246 -58 q 240 -29 240 -39 q 270 42 240 7 q 344 99 300 76 q 429 121 388 121 q 481 109 460 121 q 501 74 501 97 q 466 6 501 38 q 379 -46 431 -25 q 276 -72 328 -67 q 299 -87 285 -82 q 332 -92 314 -92 q 417 -71 375 -92 q 479 -15 453 -51 q 522 65 506 22 q 540 144 538 108 q 517 244 544 194 q 449 335 490 294 q 369 399 408 376 q 336 433 336 418 q 347 449 336 442 q 375 464 358 457 q 469 526 425 483 q 539 618 513 568 q 565 713 565 668 q 542 790 565 756 q 474 824 518 824 q 340 786 393 824 q 253 692 286 749 q 202 575 219 636 q 178 466 185 514 q 169 399 171 418 q 154 205 163 308 q 133 -3 146 101 q 97 -201 119 -107 q 38 -368 74 -294 q -53 -485 1 -442 q -182 -528 -107 -528 m 271 -67 q 360 -44 314 -61 q 438 -1 406 -26 q 469 50 469 24 q 458 71 469 64 q 426 78 446 78 q 355 60 393 78 q 290 14 317 42 q 264 -42 264 -14 q 271 -67 264 -56 z "},"":{"ha":390,"x_min":35,"x_max":351,"o":"m 194 394 q 77 425 119 394 q 35 519 35 456 q 83 628 35 582 q 106 663 86 649 q 151 686 125 678 q 200 694 178 694 q 220 693 211 694 q 236 688 229 692 l 251 688 q 285 672 285 688 q 274 663 285 667 q 351 528 351 601 q 308 430 351 465 q 194 394 264 394 m 188 413 q 292 443 249 413 q 336 533 336 474 q 321 590 336 563 q 283 640 306 618 q 239 668 261 661 q 122 621 172 658 q 63 518 63 578 q 101 440 63 467 q 188 413 139 413 m 144 456 q 132 467 132 456 q 133 534 132 500 q 138 601 135 568 q 182 619 139 619 l 233 619 q 276 594 276 619 q 244 551 276 572 l 193 526 q 226 504 208 515 q 264 482 244 493 q 272 474 272 478 q 264 469 272 469 q 207 492 250 469 q 164 524 164 514 q 201 551 164 538 q 239 581 239 568 q 204 594 239 594 q 157 589 178 594 q 156 571 156 585 q 157 538 156 556 q 161 499 158 521 l 164 476 q 165 468 164 469 q 144 456 165 456 z "},"":{"ha":907,"x_min":69,"x_max":811,"o":"m 444 43 q 172 114 274 43 q 69 336 69 185 q 183 589 69 483 q 234 671 190 636 q 338 726 278 706 q 454 746 399 746 q 502 742 481 746 q 542 729 524 739 l 576 729 q 656 693 656 729 q 629 671 656 676 q 811 356 811 529 q 764 187 811 257 q 634 80 717 117 q 444 43 551 43 m 428 86 q 603 118 525 86 q 728 213 682 150 q 775 368 775 276 q 756 466 775 417 q 703 560 736 515 q 629 637 669 604 q 547 683 589 669 q 401 644 469 671 q 275 574 333 618 q 135 332 135 471 q 175 198 135 253 q 282 115 215 143 q 428 86 349 86 m 438 131 q 338 156 383 131 q 264 226 292 182 q 236 326 236 271 q 253 424 236 378 q 311 514 271 469 q 391 578 347 558 q 486 599 435 599 q 577 572 547 599 q 607 485 607 544 q 474 365 607 365 q 424 414 424 365 q 430 438 424 426 q 447 465 436 450 q 496 499 471 499 q 503 492 503 499 l 476 475 q 459 454 464 465 q 454 433 454 443 q 486 407 454 407 q 551 436 518 407 q 575 469 567 454 q 583 501 583 485 q 486 589 583 589 q 343 504 399 589 q 303 420 315 464 q 292 332 292 376 q 457 160 292 160 q 626 249 567 160 q 649 264 642 264 l 649 258 q 639 235 649 253 q 438 131 568 131 z "},"":{"ha":806,"x_min":104,"x_max":685,"o":"m 254 490 q 221 507 229 490 q 207 563 211 529 q 203 635 203 596 q 206 705 203 669 q 211 772 208 740 q 212 785 211 779 q 214 797 213 790 q 173 794 192 796 q 142 790 154 793 q 132 788 136 788 q 112 797 119 788 q 114 811 104 806 q 165 823 133 819 q 231 826 196 826 q 349 817 306 826 q 361 801 353 815 q 361 790 369 788 q 319 797 346 794 q 263 799 293 799 q 262 791 263 794 q 261 786 261 788 q 249 697 256 750 q 243 594 243 644 q 247 537 243 564 q 260 490 250 510 l 254 490 m 672 481 q 646 499 656 481 q 631 572 636 525 q 626 665 626 618 q 626 694 626 681 q 628 719 626 707 q 601 641 617 682 q 571 565 586 600 q 544 508 556 529 q 514 486 531 486 q 485 508 497 486 q 458 577 471 535 q 437 663 446 619 q 424 736 428 706 q 408 651 414 699 q 401 572 401 604 q 405 520 401 546 q 417 482 408 494 l 414 482 q 394 491 401 482 q 383 510 388 500 q 373 551 376 526 q 369 604 369 576 q 376 703 369 653 q 388 781 382 753 q 390 798 389 786 q 397 817 392 810 q 406 822 400 821 q 419 822 413 822 l 438 819 q 444 812 443 817 q 444 801 444 807 q 456 736 447 776 q 475 652 464 696 q 497 575 486 608 q 515 532 508 542 q 524 524 519 524 q 538 538 531 524 q 574 617 553 569 q 618 754 594 665 q 620 774 621 761 q 621 800 619 786 q 636 821 624 817 q 646 824 642 824 q 663 819 654 824 q 676 815 667 818 q 683 807 685 813 q 671 731 678 775 q 663 644 664 688 q 663 593 663 625 q 667 530 663 561 q 682 482 671 499 q 672 481 678 481 z "},"":{"ha":299,"x_min":60,"x_max":300,"o":"m 67 594 q 60 601 61 594 q 61 608 60 607 q 94 639 71 621 q 141 674 117 657 q 175 697 165 690 q 236 735 213 725 q 274 743 260 746 q 300 722 300 740 q 282 700 300 708 q 177 653 233 682 q 78 599 121 625 q 67 594 69 594 z "},"":{"ha":457,"x_min":103,"x_max":378,"o":"m 314 619 q 282 635 292 619 q 272 672 272 650 q 292 710 272 694 q 335 725 313 725 q 367 710 357 725 q 378 672 378 694 q 358 635 378 650 q 314 619 338 619 m 144 619 q 113 635 122 619 q 103 672 103 650 q 123 710 103 694 q 165 725 143 725 q 198 710 188 725 q 208 672 208 694 q 188 635 208 650 q 144 619 168 619 z "},"":{"ha":500,"x_min":101,"x_max":524,"o":"m 128 -11 q 108 3 118 -11 q 101 28 101 14 q 175 189 101 67 q 153 179 165 186 q 126 161 140 172 q 114 181 114 161 q 146 219 114 196 q 197 242 181 242 q 208 240 206 242 q 238 285 222 263 q 271 335 253 308 l 275 342 l 260 346 q 222 354 238 351 q 194 357 206 357 q 126 326 165 357 q 114 346 114 326 q 146 385 114 361 q 197 407 181 407 q 264 394 221 407 q 285 388 275 390 q 304 383 296 386 q 482 596 442 581 q 494 594 483 596 q 515 588 506 592 q 518 576 524 583 q 444 494 486 542 q 353 382 403 446 q 360 383 356 383 q 371 385 365 383 q 400 389 392 389 q 414 371 414 389 q 404 353 414 357 q 325 335 374 335 l 315 335 l 292 304 l 239 235 l 264 229 q 328 217 308 217 l 342 217 q 354 217 347 217 q 371 219 361 218 q 400 224 392 224 q 414 206 414 224 q 404 188 414 192 q 325 169 374 169 q 260 181 307 169 q 231 186 244 183 q 208 190 218 189 q 124 28 124 68 q 128 13 124 24 q 132 -4 132 0 q 128 -11 132 -11 z "},"{":{"ha":432,"x_min":-25,"x_max":365,"o":"m 306 -76 q 139 -6 201 -54 q 76 113 76 42 q 90 148 76 124 q 115 199 103 172 q 128 239 128 225 q 110 284 128 256 q 66 343 92 313 q 17 395 40 374 q -17 419 -7 417 q -25 431 -25 424 q -20 438 -25 435 q 3 446 -15 442 q 41 474 17 456 q 86 523 65 492 q 107 606 107 554 q 94 628 107 610 q 81 674 81 647 q 163 801 81 757 q 249 829 193 818 q 351 840 306 840 q 365 825 365 840 q 355 811 365 818 q 307 794 344 804 q 218 765 260 783 q 156 711 176 747 q 196 618 196 657 q 189 578 196 600 q 168 526 182 556 q 121 463 149 488 q 38 418 93 438 q 104 383 78 407 q 146 325 131 358 q 175 218 175 258 q 169 182 175 204 q 158 140 164 160 q 151 113 151 121 q 159 60 151 86 q 206 17 167 33 q 256 -1 217 11 q 346 -26 294 -12 q 353 -33 353 -29 q 338 -62 353 -47 q 306 -76 322 -76 z "},"|":{"ha":394,"x_min":142,"x_max":272,"o":"m 231 -254 q 204 -242 215 -254 q 185 -210 193 -229 q 161 -94 171 -175 q 147 96 151 -14 q 142 324 142 206 q 147 558 142 443 q 163 766 151 674 q 190 906 174 858 q 204 910 193 910 q 240 901 215 910 q 272 879 264 893 q 271 868 272 876 q 268 857 269 860 q 248 737 257 810 q 233 575 239 664 q 225 390 228 486 q 222 199 222 293 q 226 9 222 99 q 235 -148 229 -81 q 251 -249 242 -215 q 231 -254 242 -254 z "},"}":{"ha":432,"x_min":88,"x_max":478,"o":"m 147 -76 q 115 -62 131 -76 q 100 -33 100 -47 q 107 -26 100 -29 q 197 -1 158 -12 q 247 17 236 11 q 292 58 288 33 q 297 108 297 83 q 292 138 297 117 q 283 181 288 158 q 278 218 278 204 q 307 325 278 258 q 349 383 322 358 q 415 418 375 407 q 332 463 361 439 q 285 526 303 486 q 264 578 271 556 q 257 618 257 600 q 297 711 257 657 q 235 765 276 747 q 146 794 193 783 q 98 811 108 804 q 88 825 88 818 q 101 840 88 840 q 203 829 147 840 q 290 801 260 818 q 372 674 372 757 q 359 628 372 647 q 346 606 346 610 q 366 524 346 556 q 411 474 386 492 q 450 446 436 456 q 473 438 468 442 q 478 431 478 435 q 469 419 478 424 q 436 395 460 417 q 387 343 413 374 q 343 284 361 313 q 325 239 325 256 q 338 199 325 225 q 364 148 351 172 q 376 113 376 124 q 314 -6 376 42 q 147 -76 251 -54 z "},"~":{"ha":403,"x_min":44,"x_max":360,"o":"m 278 450 q 188 479 233 450 q 135 508 144 508 q 96 504 104 508 q 79 472 86 499 q 63 451 74 451 q 44 494 44 451 q 135 556 44 556 q 214 524 165 556 q 278 493 261 493 q 319 519 297 493 q 351 546 342 546 q 360 536 360 546 q 278 450 360 450 z "},"":{"ha":389,"x_min":63,"x_max":332,"o":"m 318 589 q 299 601 311 589 q 253 638 281 617 q 207 665 226 660 q 171 650 189 663 q 142 631 153 638 q 101 608 125 621 q 75 594 78 594 q 63 603 63 594 q 78 631 63 611 q 126 675 94 650 q 210 722 190 719 q 268 685 229 722 q 316 636 300 658 q 332 604 332 614 q 318 589 332 590 z "},"":{"ha":453,"x_min":75,"x_max":378,"o":"m 286 551 q 235 566 256 551 q 198 594 215 581 q 160 608 181 608 q 119 590 139 608 q 92 553 99 571 q 80 560 85 553 q 75 576 75 567 q 77 590 75 583 q 81 601 79 596 q 116 647 93 631 q 165 664 139 664 q 210 650 188 664 q 255 623 233 636 q 293 610 276 610 q 330 624 315 610 q 363 658 344 638 q 376 650 375 660 q 375 633 378 640 q 337 571 357 590 q 286 551 317 551 z "},"":{"ha":364,"x_min":49,"x_max":318,"o":"m 164 575 q 99 578 129 575 q 56 586 69 581 q 49 599 49 589 q 64 614 49 610 q 96 617 79 617 q 131 618 113 618 q 212 615 171 618 q 288 614 253 613 q 309 611 300 614 q 318 603 318 608 q 292 585 318 594 q 240 578 276 581 q 164 575 204 575 z "},"":{"ha":419,"x_min":65,"x_max":358,"o":"m 206 622 q 126 644 157 622 q 80 695 94 665 q 65 749 65 725 q 73 764 65 761 q 85 767 81 767 q 96 757 89 767 q 108 732 103 747 q 206 675 147 675 q 271 690 247 675 q 308 725 294 704 q 333 764 322 746 q 342 767 339 767 q 356 754 354 767 q 338 696 358 726 q 282 644 317 665 q 206 622 247 622 z "},"":{"ha":207,"x_min":36,"x_max":171,"o":"m 89 517 q 36 560 36 517 q 49 594 36 581 q 46 607 46 603 q 68 644 46 628 q 113 658 86 658 q 155 642 139 658 q 171 599 171 625 q 147 538 171 560 q 89 517 122 517 m 93 546 q 131 589 131 546 q 96 631 131 631 q 57 603 68 631 q 78 608 67 608 q 110 588 110 608 q 106 581 110 581 q 99 583 104 581 q 94 585 96 585 q 92 586 93 586 q 69 563 69 586 q 93 546 69 546 z "},"":{"ha":464,"x_min":153,"x_max":376,"o":"m 225 583 q 170 604 188 583 q 153 654 153 625 q 174 727 153 693 q 230 783 194 761 q 306 806 265 806 q 359 781 342 806 q 376 724 376 756 q 356 654 376 686 q 300 603 335 622 q 225 583 265 583 m 242 624 q 340 704 340 624 q 325 743 340 728 q 285 758 310 758 q 227 734 249 758 q 206 674 206 710 q 215 638 206 653 q 242 624 224 624 z "},"":{"ha":311,"x_min":-22,"x_max":231,"o":"m 61 -387 q 4 -368 31 -387 q -22 -318 -22 -349 q 1 -265 -22 -289 q 51 -242 25 -242 q 69 -247 69 -242 q 61 -255 69 -250 q 47 -262 53 -260 q 24 -283 32 -269 q 17 -311 17 -296 q 30 -346 17 -329 q 67 -362 43 -362 q 146 -342 115 -362 q 176 -282 176 -321 q 166 -234 176 -258 q 142 -190 156 -210 q 111 -111 111 -154 q 135 -35 111 -67 q 196 -3 160 -3 q 217 -11 217 -3 q 196 -18 217 -18 q 169 -36 182 -18 q 157 -72 157 -54 q 169 -118 157 -94 q 196 -161 182 -142 q 231 -247 231 -208 q 206 -324 231 -292 q 142 -372 181 -356 q 61 -387 104 -387 z "},"":{"ha":344,"x_min":101,"x_max":336,"o":"m 228 418 q 211 426 214 418 q 208 442 208 433 q 231 483 218 458 q 256 533 243 508 q 274 569 268 557 q 289 588 281 585 q 307 592 297 592 q 336 572 336 592 q 321 544 336 560 q 286 498 306 528 q 251 443 267 468 q 228 418 235 418 m 121 418 q 104 426 107 418 q 101 442 101 433 q 122 483 110 458 q 147 533 135 508 q 165 569 160 557 q 181 588 172 585 q 200 592 190 592 q 219 586 211 592 q 228 571 228 581 q 214 544 228 558 q 178 498 197 528 q 144 443 160 468 q 121 418 128 418 z "},"":{"ha":325,"x_min":53,"x_max":279,"o":"m 129 -210 q 53 -154 53 -210 q 81 -57 53 -119 q 140 10 110 10 q 154 -6 154 6 l 125 -46 q 96 -115 96 -87 q 110 -162 96 -150 q 158 -172 119 -172 q 222 -157 176 -172 q 265 -140 263 -140 q 279 -154 279 -140 q 214 -193 279 -172 q 129 -210 158 -210 z "},"":{"ha":515,"x_min":71,"x_max":449,"o":"m 260 486 q 157 560 244 490 q 71 644 71 631 q 82 657 71 657 q 117 638 89 657 q 182 592 146 618 q 247 546 218 565 q 285 571 267 557 q 338 607 303 585 q 403 646 376 631 q 443 663 429 661 l 449 653 l 442 639 q 268 490 319 550 l 260 486 z "},"!":{"ha":447,"x_min":33,"x_max":438,"o":"m 164 243 q 156 267 156 243 q 208 476 156 347 q 240 552 219 507 q 285 658 260 597 q 344 826 344 788 q 326 861 344 847 q 308 875 308 875 l 308 881 q 358 901 336 901 q 414 874 390 901 q 438 813 438 846 q 419 759 438 801 q 360 643 400 717 l 269 469 q 190 269 260 447 q 164 243 181 243 m 92 -25 q 47 -4 61 -25 q 33 47 33 17 q 61 99 33 78 q 119 119 89 119 q 164 99 150 119 q 178 47 178 78 q 150 -4 178 17 q 92 -25 122 -25 z "},"\"":{"ha":344,"x_min":63,"x_max":283,"o":"m 226 422 q 201 446 201 422 q 208 478 201 456 q 219 527 214 501 q 225 569 225 553 q 223 589 225 574 q 219 619 221 604 q 217 639 217 635 q 249 657 217 657 q 283 638 283 657 l 283 632 q 278 567 281 592 q 274 533 275 543 q 249 438 265 478 q 226 422 242 422 m 88 422 q 63 446 63 422 q 69 478 63 456 q 81 526 75 501 q 86 569 86 551 q 84 589 86 574 q 80 619 82 604 q 78 639 78 635 q 110 657 78 657 q 144 638 144 657 l 144 632 q 140 567 142 592 q 135 533 138 543 q 110 438 126 478 q 88 422 103 422 z "},"#":{"ha":494,"x_min":0,"x_max":529,"o":"m 136 300 q 119 314 121 300 q 108 383 111 339 q 104 493 104 428 q 79 494 94 493 q 42 499 64 496 q 25 522 25 501 q 43 550 25 550 q 55 549 47 550 q 74 547 63 549 q 92 544 85 544 q 104 544 99 544 l 106 682 l 19 682 q 0 713 0 682 q 17 736 0 736 q 75 736 53 736 q 106 735 97 736 l 106 792 q 126 806 106 806 q 158 781 157 806 q 161 767 161 778 q 160 752 161 761 q 158 732 160 743 q 231 731 192 731 q 317 731 271 731 q 313 751 315 738 q 306 783 311 764 q 294 836 294 824 q 314 854 294 854 q 331 843 324 854 q 356 731 347 808 l 511 731 q 529 710 529 731 q 511 693 529 693 q 441 692 479 693 q 358 690 403 692 q 362 629 361 665 q 364 544 363 593 q 407 542 382 544 q 467 538 432 540 q 482 519 482 535 q 467 503 482 503 l 453 503 q 440 503 447 503 q 425 506 433 504 q 401 507 411 507 q 382 507 390 507 l 365 507 q 378 418 369 453 l 378 415 q 347 394 378 394 q 328 407 331 394 q 321 444 324 421 q 318 504 318 468 l 142 494 q 140 463 140 479 q 140 432 140 447 q 142 408 140 422 q 147 375 144 394 q 156 318 156 336 q 136 300 156 300 m 144 543 l 244 543 q 287 543 268 543 q 318 544 306 543 l 318 589 q 319 628 318 615 q 319 638 319 640 l 319 663 l 318 689 l 157 683 l 144 543 z "},"$":{"ha":400,"x_min":25,"x_max":364,"o":"m 217 735 q 194 760 201 735 l 188 800 q 179 847 179 829 q 206 864 179 864 q 232 853 225 864 q 235 822 235 847 l 235 801 q 235 772 235 783 q 233 753 235 760 q 217 735 233 735 m 219 296 q 85 343 153 296 q 42 399 42 372 q 100 426 42 426 q 111 415 111 426 q 96 404 111 404 q 82 397 82 403 q 154 356 82 372 q 200 350 175 350 q 282 399 282 350 q 278 415 282 410 q 223 433 256 422 q 146 458 190 443 q 25 589 25 503 q 49 656 25 626 q 110 703 72 686 q 189 721 147 721 q 269 708 229 721 q 335 668 308 694 q 361 604 361 642 q 337 556 361 571 q 283 542 313 542 q 217 615 217 542 q 231 667 217 667 l 235 657 q 240 644 238 651 q 249 626 243 636 q 299 588 267 588 q 336 619 336 588 q 313 660 336 643 q 256 688 289 678 q 192 697 222 697 q 108 664 138 697 q 78 586 78 631 q 153 507 78 535 q 209 485 175 497 q 290 457 243 474 q 364 399 364 432 q 294 319 364 365 q 219 296 258 296 m 182 26 q 163 72 163 26 q 201 253 163 144 q 218 267 206 267 q 236 249 236 267 q 233 221 236 239 q 225 176 231 203 q 213 103 213 129 q 213 92 213 99 q 214 76 213 85 q 215 61 215 68 q 215 50 215 54 q 182 26 215 26 z "},"%":{"ha":567,"x_min":49,"x_max":544,"o":"m 107 -62 q 78 -43 89 -62 q 67 -6 67 -25 q 217 364 67 97 q 444 708 349 600 q 260 726 342 726 q 134 708 182 726 q 86 632 86 689 q 118 554 86 589 q 197 519 150 519 q 260 599 260 519 q 196 650 260 650 q 154 642 174 650 q 140 608 150 638 q 128 579 131 579 q 114 611 114 579 q 146 660 114 640 q 207 675 172 675 q 288 597 288 675 q 254 514 288 547 q 168 481 221 481 q 81 522 113 481 q 49 624 49 564 q 107 740 49 710 q 265 769 165 769 q 366 760 314 769 q 474 735 418 751 l 481 735 q 516 726 492 735 q 540 701 540 717 q 536 696 540 700 q 419 558 483 642 q 279 357 356 474 q 101 -6 101 89 q 107 -28 101 -15 q 114 -53 114 -49 q 107 -62 114 -62 m 403 -17 q 322 18 322 -17 q 335 28 322 28 q 365 22 344 28 q 396 17 386 17 q 474 31 439 17 q 513 71 508 44 l 513 89 q 494 157 513 125 q 446 208 476 189 q 378 228 415 228 q 320 205 342 228 q 299 144 299 182 q 379 86 299 86 q 432 97 407 86 l 432 101 q 378 114 432 110 q 374 116 372 114 q 376 119 375 118 q 415 131 392 131 q 450 114 450 131 q 368 60 450 60 q 267 149 267 60 q 305 241 267 207 q 394 275 343 275 q 470 247 436 275 q 524 180 504 219 q 544 101 544 140 q 403 -17 544 -17 z "},"&":{"ha":674,"x_min":19,"x_max":544,"o":"m 249 42 q 85 78 151 42 q 19 189 19 114 q 204 454 19 290 q 188 501 194 474 q 182 551 182 528 q 263 625 182 615 q 310 616 286 625 q 333 575 333 607 q 225 444 333 540 q 306 269 242 361 q 426 119 338 224 q 518 282 518 189 q 501 358 518 331 q 442 385 485 385 q 392 363 410 385 q 374 321 374 340 q 380 301 374 310 q 399 293 386 293 q 414 304 407 293 q 424 322 421 315 q 426 324 425 324 q 433 313 433 324 q 422 293 433 301 q 400 285 411 285 q 365 318 365 285 q 378 363 365 339 q 413 403 392 386 q 458 419 433 419 q 525 381 500 419 q 544 303 544 349 q 439 103 544 182 q 469 60 469 63 q 458 50 469 50 q 422 92 456 50 q 249 42 347 42 m 222 469 q 313 572 313 551 q 296 586 313 586 q 257 572 274 586 q 229 538 240 557 q 222 505 222 522 q 222 469 221 488 m 301 79 q 408 107 369 79 q 316 208 364 146 q 215 354 268 269 q 190 403 206 369 q 100 236 100 321 q 128 149 100 183 q 203 97 157 114 q 301 79 250 79 z "},"'":{"ha":207,"x_min":79,"x_max":186,"o":"m 85 453 q 79 458 79 453 q 83 469 79 464 q 127 546 118 511 q 136 608 136 581 q 108 641 117 624 q 99 669 99 658 q 114 712 100 703 q 146 721 128 721 q 176 706 167 721 q 186 675 186 692 q 157 565 181 619 q 115 482 133 511 q 98 460 107 467 q 85 453 89 453 z "},"(":{"ha":544,"x_min":79,"x_max":468,"o":"m 269 -89 q 207 -62 246 -89 q 79 232 79 15 q 181 597 79 421 q 442 869 283 779 q 450 872 444 872 q 468 854 468 872 q 458 839 468 844 q 374 775 400 799 q 210 528 274 679 q 144 236 144 372 q 258 -7 144 69 q 283 -20 268 -12 q 319 -36 297 -28 q 326 -44 326 -39 q 306 -74 326 -57 q 269 -89 282 -89 z "},")":{"ha":544,"x_min":164,"x_max":497,"o":"m 286 -36 q 269 -18 269 -36 q 296 10 269 -4 q 317 20 307 15 q 335 32 326 25 q 457 267 457 113 q 363 560 457 399 q 275 686 324 625 q 167 804 226 747 q 164 811 164 807 q 185 839 164 825 q 219 851 206 851 q 232 847 226 851 q 419 594 342 751 q 497 293 497 432 q 294 -33 497 67 q 286 -36 292 -36 z "},"*":{"ha":494,"x_min":89,"x_max":404,"o":"m 253 403 q 235 419 235 403 q 235 481 235 447 q 233 556 235 515 l 146 475 q 136 471 142 471 q 119 494 119 471 q 215 599 119 518 q 158 632 188 614 q 96 669 128 650 q 89 690 89 676 q 107 721 89 721 q 232 644 131 721 q 232 670 232 656 q 231 706 232 685 q 228 740 228 725 q 228 765 228 754 q 254 785 228 785 q 274 756 274 785 l 274 710 q 275 674 275 690 q 275 647 275 658 l 388 735 q 404 713 404 735 q 394 693 404 699 q 288 603 350 653 l 397 515 q 404 507 404 508 q 374 489 404 489 q 358 493 365 489 l 274 558 q 273 482 274 517 q 272 419 272 447 q 253 403 272 403 z "},"+":{"ha":533,"x_min":63,"x_max":490,"o":"m 254 40 q 240 58 240 40 q 249 76 240 68 q 276 217 276 101 l 276 221 q 229 229 253 226 q 178 232 206 232 q 81 200 147 232 q 63 219 63 200 q 69 232 63 225 q 182 282 126 282 q 276 269 235 282 q 277 299 276 278 q 278 344 278 319 q 278 389 278 369 q 279 411 279 408 q 296 431 279 431 q 317 411 317 431 q 325 258 317 382 q 351 257 336 257 q 388 257 367 257 l 401 257 q 414 258 407 257 q 429 260 421 258 q 472 264 458 264 q 490 244 490 264 q 476 228 490 233 q 363 208 426 208 q 325 213 342 208 q 269 49 321 100 q 254 40 261 40 z "},"<":{"ha":518,"x_min":128,"x_max":411,"o":"m 396 168 q 285 225 369 168 q 239 263 265 240 q 188 309 213 286 q 146 350 163 332 q 128 374 129 368 q 144 408 128 383 q 201 471 161 432 q 315 578 261 531 q 396 631 369 625 q 410 632 411 632 q 408 625 408 632 q 403 608 408 617 q 381 586 397 600 q 324 530 356 565 q 263 458 292 494 q 217 397 233 422 q 238 375 221 393 q 278 333 256 357 q 324 287 301 310 q 358 249 346 264 q 396 203 382 221 q 410 183 410 186 l 410 181 q 396 168 410 168 z "},">":{"ha":481,"x_min":135,"x_max":417,"o":"m 135 171 q 135 174 135 172 q 136 181 136 176 q 164 217 136 194 q 221 274 189 239 q 283 344 253 308 q 328 406 313 381 q 306 427 324 410 q 265 468 289 444 q 220 515 242 492 q 186 554 199 539 q 149 599 163 582 q 135 619 135 617 l 135 622 q 149 635 135 635 q 260 578 175 635 q 306 540 279 563 q 357 494 332 517 q 399 453 382 471 q 417 429 415 435 q 400 395 417 419 q 343 332 383 371 q 266 257 304 293 q 197 198 228 221 q 149 172 167 175 q 140 172 143 172 q 135 171 136 171 z "},"=":{"ha":500,"x_min":114,"x_max":414,"o":"m 126 326 q 114 346 114 326 q 146 385 114 361 q 197 407 181 407 q 266 394 226 407 q 328 382 306 382 l 342 382 q 354 383 347 382 q 371 385 361 383 q 400 389 392 389 q 414 371 414 389 q 404 353 414 357 q 325 335 374 335 q 288 340 313 335 q 237 351 263 346 q 194 357 211 357 q 126 326 165 357 m 126 161 q 114 181 114 161 q 146 219 114 196 q 197 242 181 242 q 266 229 226 242 q 328 217 306 217 l 342 217 q 354 217 347 217 q 371 219 361 218 q 400 224 392 224 q 414 206 414 224 q 404 188 414 192 q 325 169 374 169 q 288 175 313 169 q 237 186 263 181 q 194 192 211 192 q 126 161 165 192 z "},"":{"ha":210,"x_min":58,"x_max":165,"o":"m 64 596 q 58 601 58 596 q 63 613 58 607 q 106 689 97 654 q 115 751 115 724 q 87 784 96 767 q 78 813 78 801 q 93 855 79 846 q 125 864 107 864 q 156 849 146 864 q 165 818 165 835 q 136 708 160 763 q 94 625 113 654 q 77 603 86 610 q 64 596 68 596 z "},"":{"ha":217,"x_min":47,"x_max":154,"o":"m 88 601 q 57 616 67 601 q 47 647 47 631 q 63 722 50 685 q 91 791 75 760 q 118 840 107 822 q 135 863 126 856 q 149 869 144 869 q 154 864 154 869 q 150 853 154 860 q 106 776 115 811 q 97 714 97 742 q 126 681 117 699 q 135 653 135 664 q 119 610 133 619 q 88 601 106 601 z "},"":{"ha":349,"x_min":47,"x_max":292,"o":"m 225 601 q 194 616 204 601 q 185 647 185 631 q 200 722 188 685 q 228 791 213 760 q 256 840 244 822 q 273 863 264 856 q 286 869 282 869 q 292 864 292 869 q 288 853 292 860 q 244 776 253 811 q 235 714 235 742 q 263 681 254 699 q 272 653 272 664 q 257 610 271 619 q 225 601 243 601 m 88 601 q 57 616 67 601 q 47 647 47 631 q 63 722 50 685 q 91 791 75 760 q 118 840 107 822 q 135 863 126 856 q 149 869 144 869 q 154 864 154 869 q 150 853 154 860 q 106 776 115 811 q 97 714 97 742 q 126 681 117 699 q 135 653 135 664 q 119 610 133 619 q 88 601 106 601 z "},"":{"ha":340,"x_min":58,"x_max":303,"o":"m 201 596 q 196 601 196 596 q 200 613 196 607 q 244 689 235 654 q 253 751 253 724 q 224 784 233 767 q 215 813 215 801 q 231 855 217 846 q 263 864 244 864 q 293 849 283 864 q 303 818 303 835 q 274 708 297 763 q 232 625 250 654 q 215 603 224 610 q 201 596 206 596 m 64 596 q 58 601 58 596 q 63 613 58 607 q 106 689 97 654 q 115 751 115 724 q 87 784 96 767 q 78 813 78 801 q 93 855 79 846 q 125 864 107 864 q 156 849 146 864 q 165 818 165 835 q 136 708 160 763 q 94 625 113 654 q 77 603 86 610 q 64 596 68 596 z "},"@":{"ha":1263,"x_min":32,"x_max":1229,"o":"m 479 -19 q 246 8 335 -19 q 110 83 157 36 q 48 184 64 129 q 32 293 32 239 q 73 493 32 389 q 185 696 114 597 q 350 874 257 794 q 550 1000 443 953 q 767 1047 657 1047 q 1030 991 928 1047 q 1181 843 1132 935 q 1229 644 1229 751 q 1207 503 1229 578 q 1147 363 1185 429 q 1063 256 1110 297 q 964 214 1015 214 q 890 240 924 214 q 828 308 856 265 q 783 400 801 350 q 757 497 765 450 q 707 410 736 456 q 644 327 678 365 q 577 266 611 289 q 513 244 543 243 q 495 251 507 244 q 472 265 483 257 q 431 290 443 272 q 419 331 419 307 q 431 389 419 356 q 478 518 453 454 q 538 635 504 582 q 619 722 572 689 q 733 757 667 754 q 797 741 768 757 q 825 704 825 725 q 808 669 825 686 q 758 644 790 651 q 747 642 753 643 q 733 642 740 642 q 714 646 714 642 q 722 650 714 650 q 765 667 746 650 q 785 708 785 683 q 767 732 785 733 q 669 684 711 724 q 597 590 626 644 q 547 481 567 536 q 517 383 528 425 q 506 337 511 361 q 501 293 501 313 q 515 263 501 263 q 571 288 539 263 q 637 352 603 313 q 701 436 671 392 q 753 519 732 481 q 749 553 750 536 q 746 588 747 569 q 758 605 746 593 q 785 628 769 617 q 811 644 800 639 q 821 643 822 650 q 837 539 824 600 q 873 420 850 478 q 927 324 896 363 q 996 285 958 285 q 1074 319 1042 285 q 1126 409 1106 354 q 1156 523 1147 464 q 1165 629 1165 582 q 1125 817 1165 731 q 997 958 1085 904 q 761 1011 908 1011 q 620 976 690 1011 q 486 881 550 940 q 367 746 422 821 q 272 590 313 671 q 209 434 232 510 q 186 297 186 358 q 213 148 186 214 q 307 44 239 82 q 499 6 375 6 q 605 14 539 6 q 744 37 671 22 q 885 72 818 51 q 990 117 951 92 q 1040 139 1026 139 q 1041 128 1050 139 q 1001 97 1032 117 q 898 51 960 72 q 764 14 836 29 q 618 -10 692 -1 q 479 -19 544 -19 z "},"":{"ha":969,"x_min":-33,"x_max":915,"o":"m 113 -146 q 106 -135 107 -146 q 114 -46 108 -90 q 129 46 119 -1 l 47 85 q 64 211 53 149 q 90 336 75 274 q -8 346 17 336 q 0 360 -15 349 q 35 374 15 371 q 101 378 60 378 q 209 695 146 544 q 319 976 272 846 l 386 864 q 290 650 342 781 q 196 375 238 519 q 210 374 203 374 q 224 374 217 374 q 289 536 256 457 q 356 688 322 615 q 411 797 378 733 q 488 919 444 860 q 581 1019 531 979 q 689 1058 632 1058 q 794 1027 751 1060 q 864 938 838 994 q 903 808 890 881 q 915 656 915 735 q 904 494 915 575 q 873 342 893 413 q 826 219 853 271 q 703 60 765 111 q 583 -6 642 8 q 471 -21 524 -21 q 376 4 413 -21 q 321 70 339 29 q 303 156 303 111 q 317 238 303 197 q 357 310 331 279 q 429 366 385 344 q 517 388 474 388 q 607 349 578 388 q 636 257 636 310 q 623 188 636 224 q 587 126 610 151 q 532 100 564 100 q 481 127 503 100 q 458 200 458 154 q 461 226 458 207 q 472 265 464 244 q 497 301 481 286 q 540 317 514 317 q 571 310 561 317 q 575 306 575 308 q 563 306 575 300 q 547 308 560 308 q 505 290 519 308 q 486 250 490 272 q 483 214 482 228 q 505 158 486 178 q 547 138 524 138 q 592 156 575 138 q 619 203 610 175 q 628 258 628 232 q 605 328 628 300 q 544 357 582 357 q 476 333 510 357 q 426 278 442 310 q 404 209 413 249 q 396 131 396 169 q 414 47 396 83 q 475 11 432 11 q 552 34 506 11 q 650 116 599 57 q 744 285 701 175 q 800 477 785 385 q 822 667 815 569 q 825 710 825 689 q 825 751 825 731 q 811 900 825 833 q 767 1006 797 967 q 689 1046 738 1046 q 586 1008 635 1046 q 496 913 538 971 q 422 792 454 854 q 367 682 389 731 q 300 533 333 611 q 236 372 267 456 q 278 370 258 371 q 317 369 299 369 q 338 370 328 369 q 357 372 349 371 q 365 373 361 372 q 371 374 368 374 q 386 368 386 374 q 351 350 386 360 q 303 343 338 346 q 224 338 268 340 q 151 96 181 217 q 118 -135 122 -25 q 113 -146 118 -146 m 79 803 q 2 831 38 806 q -33 913 -33 857 q -1 958 -33 940 q 83 983 31 975 q 194 989 135 992 q 246 990 210 989 q 317 997 282 992 q 368 1014 353 1003 q 373 1020 372 1018 q 374 1024 374 1022 q 376 1033 372 1032 q 382 1026 379 1035 q 372 1000 388 1010 q 328 985 356 990 q 271 978 300 979 q 220 976 242 976 q 194 976 199 976 q 39 961 99 979 q -21 913 -21 943 q 6 869 -21 886 q 79 853 33 853 q 150 863 128 853 q 172 886 172 874 q 132 917 172 906 q 125 922 125 917 q 136 925 125 929 q 179 903 167 917 q 192 867 192 889 q 171 828 192 842 q 124 808 150 814 q 79 803 97 803 m 135 72 q 168 205 149 139 q 211 338 188 271 q 198 337 204 338 q 185 336 192 336 q 154 202 167 269 q 135 72 142 135 z "},"":{"ha":722,"x_min":7,"x_max":790,"o":"m 268 -424 q 201 -403 235 -424 q 144 -335 168 -383 q 99 -194 118 -282 q 68 0 79 -106 q 54 210 57 106 q 42 192 47 201 q 31 172 36 182 q 13 154 18 154 q 13 178 7 154 q 39 233 19 203 q 46 244 42 239 q 54 254 50 250 l 54 282 q 69 478 54 374 q 110 683 83 582 q 175 867 138 785 q 258 999 213 950 q 353 1049 303 1049 q 399 1035 381 1049 q 429 989 417 1021 q 446 950 446 981 q 433 889 446 925 q 392 794 419 850 q 328 677 364 739 q 256 553 293 615 q 185 438 218 492 q 128 344 151 383 q 126 330 126 338 q 126 314 126 322 q 150 326 132 318 q 187 342 168 333 q 213 356 206 350 q 365 412 279 389 q 532 429 451 435 l 544 442 q 564 442 550 447 q 594 428 578 438 q 619 408 610 418 q 622 393 628 399 q 594 351 611 381 q 560 274 578 322 q 538 193 547 240 q 529 103 529 146 q 534 54 529 76 q 549 19 539 32 q 603 111 567 53 q 685 235 640 169 q 775 353 731 300 q 786 358 782 361 q 785 349 790 356 q 754 305 769 329 q 722 254 739 281 q 622 83 667 163 q 563 -46 578 3 q 536 -37 558 -50 q 493 -8 514 -25 q 469 19 472 10 q 457 125 457 61 q 474 279 457 199 q 521 411 490 360 q 377 384 454 404 q 232 337 300 364 q 125 281 164 310 q 126 247 125 264 q 128 215 126 231 q 224 171 181 207 q 300 83 267 135 q 354 -29 333 31 q 377 -123 365 -64 q 389 -243 389 -182 q 378 -331 389 -290 q 342 -398 368 -372 q 268 -424 315 -424 m 129 379 q 202 499 161 431 q 285 642 243 568 q 360 785 326 717 q 411 906 394 854 q 421 954 421 935 q 413 982 421 974 q 393 990 404 990 q 354 974 371 990 q 239 808 286 907 q 165 597 192 708 q 129 379 139 485 m 557 608 q 517 626 531 608 q 503 671 503 644 q 514 707 503 697 q 551 717 525 717 q 579 719 565 717 q 606 721 593 721 q 633 700 633 721 q 622 662 633 683 q 592 624 610 640 q 557 608 575 608 m 301 -374 q 344 -333 332 -374 q 356 -240 356 -293 q 347 -127 356 -183 q 329 -44 338 -71 q 281 63 310 13 q 213 149 251 114 q 125 193 175 185 q 129 152 126 193 q 140 47 132 111 q 159 -90 147 -18 q 190 -227 171 -162 q 237 -333 210 -292 q 301 -374 264 -374 z "},"":{"ha":776,"x_min":7,"x_max":847,"o":"m 268 -424 q 201 -403 235 -424 q 144 -335 168 -383 q 99 -194 118 -282 q 68 0 79 -106 q 54 210 57 106 q 42 192 47 201 q 31 172 36 182 q 13 154 18 154 q 13 178 7 154 q 39 233 19 203 q 46 244 42 239 q 54 254 50 250 l 54 282 q 69 478 54 374 q 110 683 83 582 q 175 867 138 785 q 258 999 213 950 q 353 1049 303 1049 q 399 1035 381 1049 q 429 989 417 1021 q 446 950 446 981 q 433 889 446 925 q 392 794 419 850 q 328 677 364 739 q 256 553 293 615 q 185 438 218 492 q 128 344 151 383 q 126 330 126 338 q 126 314 126 322 q 164 308 142 308 q 257 326 207 308 q 356 370 307 344 q 443 415 406 396 q 461 609 446 507 q 506 806 476 711 q 576 977 535 901 q 674 1093 618 1053 q 733 1113 700 1113 q 776 1101 756 1113 q 806 1061 796 1089 q 822 1022 822 1053 q 810 961 822 997 q 757 846 793 914 q 676 702 721 778 q 589 556 632 626 q 515 436 546 486 q 516 344 514 396 q 528 243 518 292 q 555 163 538 194 q 600 131 572 131 q 653 151 624 131 q 708 199 682 172 q 772 276 744 235 q 831 356 799 317 q 839 361 835 361 q 840 349 847 361 q 778 262 808 308 q 718 167 747 215 q 686 115 706 143 q 642 66 667 86 q 585 46 617 46 q 513 75 540 46 q 469 151 485 104 q 449 249 454 197 q 443 344 443 300 q 442 369 442 357 q 443 396 443 382 q 347 340 399 367 q 245 295 296 313 q 151 278 194 278 q 139 278 146 278 q 125 281 132 279 q 126 247 125 264 q 128 215 126 231 q 224 171 181 207 q 300 83 267 135 q 354 -29 333 31 q 377 -123 365 -64 q 389 -243 389 -182 q 378 -331 389 -290 q 342 -398 368 -372 q 268 -424 315 -424 m 518 469 q 591 589 551 522 q 669 726 631 656 q 740 863 708 797 q 788 978 771 928 q 797 1028 797 1008 q 775 1058 797 1058 q 738 1040 756 1058 q 642 920 682 989 q 574 772 601 851 q 543 669 554 717 q 527 575 532 622 q 518 469 522 528 m 129 379 q 202 499 161 431 q 285 642 243 568 q 360 785 326 717 q 411 906 394 854 q 421 954 421 935 q 413 982 421 974 q 393 990 404 990 q 354 974 371 990 q 239 808 286 907 q 165 597 192 708 q 129 379 139 485 m 301 -374 q 344 -333 332 -374 q 356 -240 356 -293 q 347 -127 356 -183 q 329 -44 338 -71 q 281 63 310 13 q 213 149 251 114 q 125 193 175 185 q 129 152 126 193 q 140 47 132 111 q 159 -90 147 -18 q 190 -227 171 -162 q 237 -333 210 -292 q 301 -374 264 -374 z "},"":{"ha":717,"x_min":89,"x_max":640,"o":"m 113 0 q 94 8 100 0 q 89 28 89 17 q 100 60 89 49 q 131 102 108 71 q 185 176 154 133 q 247 263 217 218 l 371 432 l 104 749 q 90 772 90 753 q 93 790 90 779 q 104 813 96 799 q 128 828 113 828 l 618 828 q 636 819 632 828 q 640 799 640 810 q 638 778 640 789 q 626 758 635 769 q 601 747 617 747 l 196 747 q 285 667 238 711 q 375 586 333 624 l 472 497 q 487 481 482 494 q 492 453 492 468 q 487 425 492 439 q 472 407 482 411 q 420 362 457 399 q 337 274 383 325 q 244 172 290 224 q 165 81 199 119 l 618 81 q 636 72 632 81 q 640 51 640 63 q 638 32 640 43 q 626 12 635 24 q 601 0 617 0 l 113 0 z "},"":{"ha":515,"x_min":42,"x_max":411,"o":"m 147 -35 q 97 -19 125 -35 q 57 15 68 -3 q 42 176 42 85 q 58 338 42 258 q 108 468 74 418 q 169 519 132 500 q 254 539 206 539 q 306 531 282 539 q 347 508 329 522 q 330 641 351 586 q 272 735 308 696 q 193 803 235 775 q 115 853 151 831 q 103 875 103 860 q 119 905 103 890 q 151 917 136 919 q 297 839 240 901 q 383 685 354 776 q 411 492 411 594 q 383 288 411 390 q 301 102 356 186 q 167 -31 247 18 q 147 -35 158 -35 m 131 4 q 192 44 161 11 q 250 124 222 76 q 299 224 278 171 q 332 324 319 276 q 344 401 344 371 q 326 479 344 442 q 278 517 308 517 q 198 472 226 517 q 156 372 169 426 q 133 244 139 307 q 128 118 128 181 q 128 62 128 90 q 131 4 129 33 z "},"":{"ha":515,"x_min":42,"x_max":443,"o":"m 147 -35 q 97 -19 125 -35 q 57 15 68 -3 q 42 176 42 85 q 58 338 42 258 q 108 468 74 418 q 169 519 132 500 q 254 539 206 539 q 306 531 282 539 q 347 508 329 522 q 328 644 351 588 q 268 740 304 700 q 175 686 219 710 q 113 660 131 663 q 113 676 104 658 q 136 706 121 693 q 236 769 171 733 q 174 815 206 796 q 115 853 143 835 q 103 875 103 860 q 119 905 103 890 q 151 917 136 919 q 246 880 204 907 q 319 813 288 853 q 372 842 347 828 q 414 868 397 857 q 439 881 431 881 q 443 876 443 881 q 421 846 443 868 q 338 785 401 826 q 392 648 374 725 q 410 489 410 571 q 383 286 410 388 q 301 101 356 185 q 167 -31 247 18 q 147 -35 158 -35 m 131 4 q 192 44 161 11 q 250 124 222 76 q 299 224 278 171 q 332 324 319 276 q 344 401 344 371 q 326 479 344 442 q 278 517 308 517 q 198 472 226 517 q 156 372 169 426 q 133 244 139 307 q 128 118 128 181 q 128 62 128 90 q 131 4 129 33 z "},"":{"ha":1113,"x_min":-35,"x_max":1092,"o":"m 890 -50 q 744 -32 822 -50 q 590 11 665 -14 q 453 60 514 36 q 360 93 393 83 q 285 110 324 106 q 211 115 247 115 q 192 115 201 115 q 172 114 182 115 q 108 53 140 76 q 39 31 75 31 q -14 47 7 31 q -35 86 -35 63 q -22 119 -35 104 q 11 133 -10 133 q 170 188 110 133 q 269 331 231 243 q 176 305 219 315 q 117 297 133 294 q 120 313 108 299 q 151 336 132 328 q 212 358 175 347 q 289 378 249 368 q 335 524 315 447 q 376 678 356 601 q 422 822 396 754 q 483 939 447 889 q 655 1097 557 1042 q 871 1151 753 1151 q 1038 1095 985 1151 q 1092 933 1092 1039 q 1056 769 1092 854 q 949 619 1019 685 q 837 544 899 572 q 721 517 775 517 q 621 555 651 517 q 590 653 590 593 q 611 763 590 701 q 666 881 632 824 q 742 976 700 939 q 826 1014 783 1014 q 876 988 858 1014 q 894 918 894 963 q 881 842 894 888 q 844 750 868 796 q 786 674 819 704 q 714 643 753 643 q 705 644 710 643 q 694 646 700 644 q 667 663 676 653 q 664 669 664 668 q 668 674 664 674 q 679 669 674 674 q 708 660 682 660 q 768 685 742 660 q 812 745 794 710 q 838 815 829 781 q 847 871 847 850 q 831 931 847 910 q 786 953 814 953 q 719 924 751 953 q 662 852 688 896 q 621 760 636 808 q 606 675 606 713 q 626 604 606 632 q 689 576 646 576 q 788 608 735 576 q 876 688 842 640 q 938 791 911 733 q 981 907 965 849 q 997 1013 997 965 q 976 1092 997 1063 q 907 1115 956 1122 q 758 1054 840 1106 q 592 894 676 1003 q 475 718 521 804 q 392 540 429 632 l 326 386 q 401 405 367 396 q 460 424 436 414 q 483 429 472 429 q 490 426 490 429 q 461 400 490 419 q 403 375 447 392 q 306 342 358 358 q 253 235 281 288 q 193 140 225 183 q 222 143 207 143 q 251 143 236 143 q 371 132 311 143 q 527 91 454 114 q 674 53 600 68 q 835 40 749 38 q 896 49 863 42 q 960 67 929 56 q 1010 97 992 79 q 1028 135 1029 114 q 1026 142 1026 138 q 1029 147 1026 147 q 1038 142 1033 147 q 1044 132 1043 138 q 1009 3 1049 56 q 890 -50 969 -50 z "},"":{"ha":390,"x_min":-57,"x_max":461,"o":"m 199 46 q 128 72 156 46 q 86 141 101 99 q 65 231 71 183 q 57 322 60 279 q -8 307 21 313 q -49 303 -36 301 q -45 319 -57 304 q -14 342 -33 333 q 17 354 -1 349 q 57 367 35 360 q 71 569 57 461 q 113 781 85 678 q 184 967 140 885 q 288 1093 228 1050 q 347 1113 314 1113 q 390 1101 369 1113 q 419 1061 410 1089 q 436 1022 436 1053 q 424 961 436 997 q 371 846 407 914 q 290 702 335 778 q 203 556 246 626 q 129 436 160 486 q 128 411 128 424 q 128 385 128 399 q 222 407 176 396 q 294 429 267 418 q 318 435 307 435 q 325 432 325 435 q 296 406 325 425 q 233 378 281 396 q 131 344 186 361 q 142 245 135 294 q 167 163 150 196 q 214 131 185 131 q 267 151 238 131 q 322 199 296 172 q 385 276 358 235 q 444 356 413 317 q 453 361 449 361 q 454 349 461 361 q 392 262 422 308 q 332 167 361 215 q 300 115 319 143 q 256 66 281 86 q 199 46 231 46 m 132 469 q 205 589 165 522 q 283 726 244 656 q 353 863 322 797 q 401 978 385 928 q 411 1028 411 1008 q 389 1058 411 1058 q 351 1040 369 1058 q 256 920 296 989 q 188 772 215 851 q 157 669 168 717 q 141 575 146 622 q 132 469 136 528 z "},"":{"ha":781,"x_min":-32,"x_max":743,"o":"m 243 -24 q 146 -2 190 -24 q 78 67 101 19 q -25 50 28 53 q -32 57 -32 50 q -24 67 -32 67 q 71 83 24 67 q 62 117 65 99 q 58 157 58 135 q 88 301 58 225 q 165 449 117 378 q 265 568 213 519 q 336 613 299 599 q 407 628 374 628 q 485 601 453 628 q 517 518 517 574 q 507 456 517 492 q 474 378 497 421 q 396 272 449 331 q 271 161 343 214 q 113 78 199 108 q 203 4 133 4 q 349 63 264 4 q 455 161 404 100 q 546 295 506 222 q 609 442 586 368 q 632 583 632 517 q 605 685 632 644 q 513 725 578 725 q 426 712 476 725 q 324 678 376 699 q 227 631 272 657 q 154 581 182 606 q 131 568 150 568 q 84 581 110 568 q 54 606 58 593 q 90 740 54 672 q 193 867 126 807 q 351 970 260 926 q 554 1032 443 1014 q 569 1034 561 1033 q 586 1035 576 1035 q 635 1028 610 1035 q 677 1006 660 1022 q 694 958 694 989 q 667 885 692 924 q 611 836 643 847 q 608 835 610 836 q 604 835 607 835 q 596 840 596 835 q 604 853 596 847 q 638 894 621 868 q 654 942 654 919 q 628 961 654 965 q 506 934 575 957 q 367 869 438 911 q 238 763 297 826 q 146 611 179 699 q 256 678 188 646 q 403 731 325 710 q 549 751 481 751 q 697 695 651 751 q 743 543 743 639 q 716 397 743 472 q 642 249 689 321 q 537 119 596 178 q 413 24 478 61 q 330 -11 374 1 q 243 -24 286 -24 m 108 97 q 242 176 179 128 q 352 274 306 225 q 421 356 399 324 q 453 415 443 388 q 463 461 463 442 q 444 507 463 492 q 397 522 425 522 q 342 510 372 522 q 282 475 313 499 q 156 324 206 414 q 106 138 106 233 q 106 117 106 126 q 108 97 107 107 m 411 1085 q 308 1158 396 1089 q 222 1243 222 1229 q 233 1256 222 1256 q 269 1236 240 1256 q 333 1190 297 1217 q 399 1144 369 1164 q 436 1169 418 1156 q 489 1206 454 1183 q 554 1244 528 1229 q 594 1261 581 1260 l 600 1251 l 593 1238 q 419 1089 471 1149 l 411 1085 z "},"":{"ha":490,"x_min":-60,"x_max":443,"o":"m 103 -32 q 43 -18 69 -32 q 7 25 17 -4 q -56 17 -24 17 q -59 22 -60 17 q -54 26 -58 26 q -25 28 -39 25 q 4 35 -11 31 q 2 47 3 40 q 1 58 1 53 q 10 108 1 82 q 68 224 26 165 q 157 319 110 283 q 201 344 178 336 q 243 353 224 353 q 287 339 269 353 q 304 297 304 325 q 295 256 304 279 q 267 204 286 233 q 211 142 247 176 q 128 78 175 108 q 28 31 82 47 q 79 -15 36 -15 q 168 18 118 -15 q 242 84 206 43 q 308 173 278 125 q 355 269 338 221 q 372 356 372 317 q 360 396 372 381 q 315 411 347 411 q 303 410 310 411 q 290 408 297 410 q 212 389 251 403 q 140 359 172 375 q 92 329 108 343 q 79 322 90 322 q 51 331 67 322 q 35 346 36 339 q 87 451 43 399 q 202 542 131 503 q 364 592 274 581 q 372 593 367 593 q 381 593 376 593 q 422 585 400 593 q 443 554 443 578 q 424 508 443 532 q 383 475 406 483 q 378 474 382 474 q 375 477 375 474 q 381 485 375 481 q 395 494 386 488 q 410 504 404 500 q 414 515 414 511 q 399 524 414 524 q 301 503 358 522 q 188 444 243 483 q 99 344 132 406 q 165 380 125 361 q 251 412 206 399 q 338 425 297 425 q 420 395 399 425 q 442 326 442 365 q 406 199 442 264 q 317 79 371 133 q 203 -6 263 25 q 103 -32 154 -32 m 28 42 q 120 89 75 58 q 201 152 165 119 q 254 210 236 185 q 283 262 274 239 q 292 301 292 285 q 250 342 292 342 q 213 333 233 342 q 169 307 192 325 q 89 211 125 271 q 36 99 53 151 q 28 42 25 65 m 246 647 q 143 721 231 651 q 57 806 57 792 q 68 818 57 818 q 103 799 75 818 q 168 753 132 779 q 233 707 204 726 q 271 732 253 718 q 324 768 289 746 q 389 807 363 792 q 429 824 415 822 l 435 814 l 428 800 q 254 651 306 711 l 246 647 z "},"":{"ha":1071,"x_min":7,"x_max":1000,"o":"m 179 683 q 98 703 138 683 q 33 766 58 724 q 7 875 7 808 q 53 956 7 926 q 174 999 99 986 q 336 1008 250 1011 q 388 1010 353 1008 q 462 1015 422 1011 q 536 1028 501 1019 q 588 1053 571 1038 q 594 1064 593 1060 q 594 1071 594 1068 q 599 1088 594 1088 q 607 1075 603 1088 q 608 1063 608 1071 q 583 1024 608 1039 q 520 1000 558 1008 q 443 988 482 992 q 375 985 404 985 q 253 981 315 985 q 140 967 192 978 q 56 934 88 956 q 25 875 25 913 q 65 800 25 828 q 174 772 106 772 q 232 777 201 772 q 284 794 263 782 q 306 828 306 807 q 246 883 306 864 q 236 892 236 883 q 251 897 236 901 q 313 859 292 883 q 333 794 333 835 q 306 730 333 754 q 243 694 279 706 q 179 683 207 683 m 301 -554 q 183 -498 222 -554 q 144 -360 144 -442 q 180 -191 144 -281 q 283 -29 215 -101 q 409 69 340 32 q 535 106 478 106 q 612 76 581 106 q 643 -19 643 46 q 628 -115 643 -65 q 594 -203 613 -165 q 490 -359 542 -311 q 400 -407 438 -407 q 356 -383 372 -407 q 339 -317 339 -360 q 356 -221 339 -274 q 403 -122 374 -168 q 467 -47 432 -75 q 538 -22 503 -18 q 565 -35 556 -26 q 568 -40 568 -40 q 563 -43 568 -43 q 553 -42 558 -43 q 535 -36 551 -36 q 478 -58 506 -36 q 431 -116 451 -81 q 399 -190 411 -151 q 388 -262 388 -229 q 403 -321 388 -300 q 442 -342 418 -342 q 509 -308 471 -342 q 583 -200 547 -274 q 615 -121 603 -161 q 626 -49 626 -81 q 606 26 626 4 q 554 49 586 49 q 487 31 524 49 q 415 -18 450 13 q 356 -86 381 -49 q 297 -199 324 -136 q 253 -322 269 -261 q 238 -429 238 -382 q 252 -497 238 -471 q 300 -522 267 -522 q 384 -499 339 -522 q 476 -436 429 -475 q 567 -350 524 -397 q 643 -256 610 -303 q 758 -65 713 -157 q 839 124 803 26 q 886 273 864 190 q 922 442 908 356 q 936 607 936 529 q 933 676 936 643 q 921 738 929 710 q 836 576 889 661 q 719 409 783 490 q 587 263 654 328 q 456 158 519 197 q 343 119 393 119 q 259 156 288 119 q 231 256 231 193 q 256 426 231 339 q 322 603 282 514 q 403 785 361 693 q 479 971 446 878 l 556 874 q 518 801 544 851 q 460 686 492 751 q 399 549 429 621 q 351 409 369 478 q 332 285 332 340 q 346 217 332 246 q 390 188 360 188 q 458 210 417 188 q 543 269 499 233 q 626 343 588 304 q 689 413 665 382 q 772 533 731 471 q 848 660 814 596 q 899 786 882 725 q 864 831 881 801 q 837 891 847 860 q 826 943 826 922 q 843 981 826 965 q 881 997 860 997 q 938 967 915 997 q 961 897 961 938 q 953 838 961 871 q 933 768 946 806 q 985 638 969 708 q 1000 494 1000 568 q 975 278 1000 388 q 918 75 950 169 q 857 -74 893 0 q 781 -212 821 -147 q 703 -324 742 -276 q 591 -440 647 -389 q 465 -522 535 -492 q 301 -554 396 -551 m 690 1101 q 684 1108 685 1101 q 685 1115 683 1114 q 717 1146 694 1128 q 765 1181 740 1164 q 799 1204 789 1197 q 860 1242 836 1232 q 897 1250 883 1253 q 924 1229 924 1247 q 906 1207 924 1215 q 801 1160 857 1189 q 701 1106 744 1132 q 690 1101 693 1101 z "},"":{"ha":447,"x_min":-225,"x_max":450,"o":"m 79 -460 q -11 -447 38 -460 q -174 -353 -124 -418 q -225 -222 -225 -289 q -203 -135 -225 -175 q -140 -69 -181 -94 q -43 -43 -99 -43 q 13 -50 -19 -43 q 99 -94 65 -61 q 151 -170 133 -128 q 168 -253 168 -212 q 145 -334 168 -300 q 78 -368 122 -368 q 6 -345 39 -368 q -49 -288 -28 -322 q -69 -221 -69 -254 q -49 -169 -69 -189 q 7 -150 -28 -150 q 42 -156 31 -150 q 54 -167 54 -162 q 50 -169 54 -169 q 45 -169 49 -169 q 38 -167 42 -168 q 22 -161 31 -162 q 6 -160 14 -160 q -33 -175 -21 -160 q -46 -210 -46 -190 q -25 -266 -46 -237 q 26 -313 -4 -294 q 86 -332 57 -332 q 137 -308 121 -332 q 153 -251 153 -285 q 134 -173 153 -214 q 81 -103 115 -132 q -6 -75 46 -75 q -84 -101 -50 -75 q -137 -167 -118 -126 q -156 -254 -156 -208 q -119 -365 -156 -312 q 3 -437 -82 -418 q 24 -441 14 -439 q 44 -443 35 -443 q 159 -397 110 -443 q 243 -275 208 -351 q 299 -106 278 -199 q 331 81 321 -14 q 340 257 340 175 q 339 319 340 289 q 335 374 338 349 q 281 280 307 332 q 233 176 254 228 q 199 84 213 124 q 182 28 185 44 l 182 19 l 181 19 q 158 2 178 13 q 122 -13 139 -8 q 108 -11 106 -18 q 110 15 110 -1 q 111 51 111 31 q 108 142 111 92 q 95 242 104 193 q 70 329 86 292 q 29 381 54 367 q 24 383 26 382 q 18 383 21 383 q -11 363 4 383 q -24 353 -19 353 q -31 363 -31 353 q -19 385 -31 375 q 42 400 4 400 q 121 366 92 400 q 163 280 150 332 q 180 171 176 228 q 183 68 183 114 l 189 89 q 209 165 200 129 q 229 232 218 200 q 250 299 238 260 q 281 376 263 338 q 326 441 300 415 q 388 467 353 467 q 415 464 401 467 q 443 453 429 461 q 448 445 450 449 q 439 446 446 442 q 421 451 432 451 q 363 411 396 451 q 385 276 376 353 q 393 113 393 199 q 378 -90 393 11 q 327 -275 363 -192 q 231 -409 292 -358 q 79 -460 169 -460 m 121 528 q 115 534 115 528 q 115 542 114 540 q 148 572 125 554 q 195 607 171 590 q 229 631 219 624 q 290 669 267 658 q 328 676 314 679 q 354 656 354 674 q 336 633 354 642 q 231 587 288 615 q 132 532 175 558 q 121 528 124 528 z "},"":{"ha":721,"x_min":132,"x_max":671,"o":"m 239 -19 q 197 -8 217 -19 q 167 22 176 4 q 140 124 147 58 q 132 271 132 189 q 136 415 132 339 q 146 569 140 492 q 151 639 149 611 q 157 692 154 667 q 165 753 160 718 q 177 841 169 788 q 196 979 185 894 q 217 1011 200 999 q 252 1030 233 1024 q 283 1036 271 1036 q 297 1032 296 1036 q 295 999 299 1028 q 286 931 292 969 q 276 856 281 892 q 272 804 272 821 q 275 793 272 793 q 340 799 308 796 q 401 801 371 801 q 553 769 494 801 q 642 683 613 736 q 671 569 671 631 q 647 458 671 514 q 578 358 624 403 q 465 290 532 314 q 408 274 439 281 q 347 267 376 267 q 279 281 311 267 q 229 332 247 296 q 226 280 228 308 q 225 221 225 251 q 234 83 225 150 q 265 -15 243 15 q 239 -19 253 -19 m 325 307 q 431 327 386 304 q 505 388 475 350 q 549 472 535 426 q 564 563 564 518 q 542 672 564 632 q 485 728 519 711 q 413 744 450 744 q 342 737 381 744 q 276 722 303 729 q 260 636 268 696 q 244 505 251 576 q 228 371 236 433 q 240 343 226 358 q 278 317 254 328 q 325 307 301 307 z "},"":{"ha":721,"x_min":89,"x_max":522,"o":"m 168 -343 q 111 -310 126 -343 q 94 -235 99 -286 q 89 -117 89 -183 q 95 63 89 -32 q 107 235 101 158 q 118 348 111 290 q 136 482 125 406 q 161 669 147 558 q 192 704 168 693 q 231 715 215 715 q 242 708 242 715 q 238 666 242 699 q 227 590 233 633 q 216 506 221 547 q 208 438 211 465 q 208 411 206 411 q 261 416 236 414 q 310 418 286 418 q 431 392 383 418 q 500 325 478 367 q 522 236 522 283 q 480 105 522 169 q 360 13 438 40 q 315 0 339 6 q 267 -6 290 -6 q 212 6 238 -6 q 172 46 186 17 q 169 -37 171 15 q 167 -147 167 -90 q 171 -266 167 -211 q 189 -340 175 -321 q 178 -342 183 -342 q 168 -343 174 -343 m 249 26 q 354 55 313 24 q 417 135 396 86 q 438 229 438 183 q 400 342 438 311 q 318 372 363 372 q 261 367 292 372 q 210 356 231 361 q 198 288 204 335 q 185 183 192 240 q 172 76 178 126 q 194 44 169 63 q 249 26 219 26 z "},"":{"ha":1235,"x_min":1,"x_max":1150,"o":"m 151 -39 q 90 -25 125 -39 q 28 12 54 -11 q 1 65 1 35 q 26 126 1 101 q 107 151 51 151 q 192 144 143 151 q 306 119 242 136 q 397 254 354 176 q 479 417 440 332 q 553 586 518 503 q 622 740 589 669 q 686 853 654 810 q 560 866 626 861 q 428 871 493 871 q 299 860 361 871 q 199 825 238 849 q 163 764 161 801 q 163 756 163 763 q 160 749 163 749 q 151 756 156 749 q 147 768 147 763 q 181 913 142 856 q 310 971 219 971 q 447 958 372 971 q 593 928 521 946 q 721 892 665 910 q 853 985 788 961 q 982 1008 919 1008 q 1049 987 1028 1008 q 1071 938 1071 965 q 1021 850 1071 881 q 906 819 971 819 q 837 826 871 819 q 767 839 803 832 q 655 683 717 783 q 521 443 593 582 q 433 277 479 367 q 336 111 388 188 q 534 58 457 78 q 665 31 611 39 q 774 22 719 22 q 925 57 865 22 q 1014 147 985 92 q 1043 258 1043 201 q 1019 360 1043 314 q 953 433 996 406 q 854 460 911 460 q 761 446 811 460 q 668 406 711 432 q 597 344 625 381 q 569 263 569 307 q 593 193 569 226 q 653 140 617 160 q 731 119 690 119 q 823 156 786 119 q 860 239 860 192 q 842 298 860 272 q 798 339 825 324 q 743 354 771 354 q 685 339 711 354 q 650 308 660 324 q 638 296 644 299 q 638 306 632 293 q 662 338 642 322 q 708 365 682 354 q 757 376 735 376 q 833 356 797 376 q 893 303 869 336 q 917 228 917 269 q 875 132 917 174 q 767 90 833 90 q 663 116 714 90 q 581 185 613 142 q 549 283 549 229 q 584 385 549 339 q 676 466 619 432 q 796 519 732 500 q 918 538 860 538 q 1044 506 993 538 q 1123 424 1096 475 q 1150 311 1150 372 q 1117 180 1150 240 q 1028 75 1083 119 q 904 6 972 31 q 768 -19 836 -19 q 644 -5 721 -19 q 481 33 567 10 q 317 82 394 57 q 235 -5 276 29 q 151 -39 194 -39 m 935 842 q 1012 863 979 842 q 1044 915 1044 883 q 1027 949 1044 936 q 986 963 1010 961 q 884 935 933 963 q 794 868 835 908 q 862 850 825 858 q 935 842 899 842 m 122 14 q 206 35 167 14 q 281 93 246 57 q 179 120 222 110 q 104 131 136 131 q 55 121 68 131 q 42 83 42 111 q 63 33 42 53 q 122 14 83 14 m 660 1053 q 557 1126 644 1057 q 471 1211 471 1197 q 482 1224 471 1224 q 517 1204 489 1224 q 582 1158 546 1185 q 647 1113 618 1132 q 685 1138 667 1124 q 738 1174 703 1151 q 803 1213 776 1197 q 843 1229 829 1228 l 849 1219 l 842 1206 q 668 1057 719 1117 l 660 1053 z "},"":{"ha":390,"x_min":-21,"x_max":486,"o":"m 229 -25 q 188 -9 208 -25 q 148 28 168 7 q 110 64 128 49 q 76 76 92 79 q 28 30 49 40 q -12 19 7 19 q -18 36 -21 19 q -3 74 -15 53 q 25 111 8 94 q 61 128 42 128 q 85 119 72 128 q 174 239 122 168 q 279 378 225 310 q 243 386 268 382 q 193 394 218 390 q 156 397 168 397 q 112 387 133 397 q 60 342 90 376 q 11 279 36 314 q -1 268 6 268 q 0 277 -4 268 q 22 313 4 286 q 47 355 31 325 q 85 418 64 385 q 129 475 107 451 q 169 499 151 499 q 219 480 194 499 q 267 441 243 461 q 311 417 290 421 q 324 441 313 426 q 351 468 336 456 q 378 483 367 481 q 387 486 382 485 q 397 488 392 488 q 415 474 415 488 q 410 454 415 467 q 390 424 404 442 q 350 383 369 394 q 311 371 331 371 q 302 372 307 371 q 292 374 297 372 q 241 303 272 347 q 174 209 210 258 q 106 115 139 160 q 147 105 122 111 q 197 99 171 99 q 252 110 225 99 q 300 153 279 122 q 336 212 321 188 q 375 268 351 236 q 443 353 399 300 q 454 358 450 361 q 453 349 458 356 q 421 303 436 325 q 390 258 406 282 q 325 135 354 201 q 282 21 296 69 q 260 -15 275 -6 q 229 -25 244 -25 m 297 561 q 194 635 282 565 q 108 719 108 706 q 119 732 108 732 q 155 713 126 732 q 219 667 183 693 q 285 621 256 640 q 322 646 304 632 q 375 682 340 660 q 440 721 414 706 q 481 738 467 736 l 486 728 l 479 714 q 306 565 357 625 l 297 561 z "},"":{"ha":958,"x_min":43,"x_max":899,"o":"m 56 471 q 43 482 43 471 q 75 507 43 492 q 115 525 97 519 q 108 581 108 549 q 117 704 108 639 q 144 846 126 769 q 74 806 92 806 q 67 811 67 806 q 78 825 67 818 q 124 854 107 842 q 157 893 147 872 q 188 919 171 919 q 206 906 206 919 q 167 757 206 865 q 128 585 128 646 q 138 531 128 549 q 154 533 146 532 q 171 533 163 533 q 207 519 207 533 q 196 507 207 507 q 190 508 193 507 q 183 508 188 508 q 171 510 179 510 q 63 474 115 510 q 56 471 60 471 m 222 151 q 203 165 213 151 q 196 190 196 176 q 365 497 196 250 q 576 758 528 739 l 583 758 q 603 753 593 758 q 614 742 614 749 q 613 739 614 740 q 386 467 529 651 q 218 190 218 249 q 222 175 218 186 q 226 158 226 163 q 222 151 226 151 m 794 -25 q 628 57 718 -25 q 536 33 572 33 q 482 78 482 33 q 503 122 482 103 q 553 140 524 140 q 657 89 576 140 q 785 201 728 128 q 850 354 850 282 q 782 414 850 414 q 727 406 761 414 q 658 383 693 397 q 600 352 624 369 q 576 315 576 335 q 603 300 576 300 q 636 311 614 300 q 676 334 658 322 q 690 349 693 346 q 694 342 694 347 q 685 326 694 335 q 674 320 679 324 q 667 313 669 317 l 629 283 q 581 271 607 271 q 552 283 563 271 q 542 307 542 294 q 574 361 542 338 q 665 411 632 396 q 725 431 697 426 q 794 436 753 436 q 899 363 899 436 q 817 199 899 289 q 671 78 753 126 q 815 14 772 14 q 876 46 876 14 q 872 60 876 50 q 868 74 868 71 q 876 82 868 82 q 888 70 883 82 q 893 47 893 58 q 858 -7 893 15 q 794 -25 832 -25 m 554 56 q 614 68 583 56 q 553 117 565 117 q 524 83 524 117 q 554 56 524 56 z "},"":{"ha":992,"x_min":43,"x_max":942,"o":"m 56 471 q 43 482 43 471 q 75 507 43 492 q 115 525 97 519 q 108 581 108 549 q 117 704 108 639 q 144 846 126 769 q 74 806 92 806 q 67 811 67 806 q 78 825 67 818 q 124 854 107 842 q 157 893 147 872 q 188 919 171 919 q 206 906 206 919 q 167 757 206 865 q 128 585 128 646 q 138 531 128 549 q 154 533 146 532 q 171 533 163 533 q 207 519 207 533 q 196 507 207 507 q 190 508 193 507 q 183 508 188 508 q 171 510 179 510 q 63 474 115 510 q 56 471 60 471 m 222 151 q 203 165 213 151 q 196 190 196 176 q 365 497 196 250 q 576 758 528 739 l 583 758 q 603 753 593 758 q 614 742 614 749 q 613 739 614 740 q 386 467 529 651 q 218 190 218 249 q 222 175 218 186 q 226 158 226 163 q 222 151 226 151 m 714 19 q 704 25 706 19 q 686 171 686 63 l 686 221 q 533 249 575 249 l 525 249 q 518 249 522 249 q 508 246 514 249 q 485 240 496 240 q 468 247 479 240 q 460 261 460 254 q 481 282 460 272 q 503 297 488 285 q 543 333 519 310 l 646 432 q 665 449 653 438 q 694 475 678 460 q 710 481 700 481 q 719 474 719 481 q 653 399 719 461 q 601 347 632 378 q 529 272 569 315 l 536 272 q 596 266 558 272 q 689 249 633 260 q 699 320 693 285 q 713 392 706 356 q 735 469 724 436 q 763 526 747 503 q 772 532 768 532 q 785 521 785 532 q 782 514 785 517 q 729 240 729 406 q 769 235 750 238 q 806 233 788 233 q 917 272 917 233 q 842 311 917 311 q 795 305 822 311 q 768 281 768 299 q 781 271 768 271 q 808 277 793 271 q 826 283 822 283 q 838 271 838 283 q 815 255 838 261 q 779 249 792 249 q 744 281 744 249 q 761 315 744 303 q 801 331 778 326 q 842 336 824 336 q 908 322 874 336 q 942 272 942 307 q 903 216 942 235 q 821 197 864 197 q 779 199 801 197 q 731 208 757 201 q 743 125 731 183 q 752 76 750 96 q 754 44 754 56 q 739 28 754 35 q 714 19 725 19 z "},"":{"ha":290,"x_min":43,"x_max":207,"o":"m 56 471 q 43 482 43 471 q 75 507 43 492 q 115 525 97 519 q 108 581 108 549 q 117 704 108 639 q 144 846 126 769 q 74 806 92 806 q 67 811 67 806 q 78 825 67 818 q 124 854 107 842 q 157 893 147 872 q 188 919 171 919 q 206 906 206 919 q 167 757 206 865 q 128 585 128 646 q 138 531 128 549 q 154 533 146 532 q 171 533 163 533 q 207 519 207 533 q 196 507 207 507 q 190 508 193 507 q 183 508 188 508 q 171 510 179 510 q 63 474 115 510 q 56 471 60 471 z "},"":{"ha":1125,"x_min":38,"x_max":1038,"o":"m 117 432 q 38 493 38 432 q 55 544 38 522 q 98 578 72 565 q 149 590 124 590 q 185 546 185 590 q 172 535 185 535 q 161 551 164 535 q 149 567 158 567 q 90 546 118 567 q 63 494 63 525 q 117 456 63 456 q 211 476 168 456 q 281 533 254 496 q 308 619 308 569 q 264 696 308 671 q 113 644 188 644 q 79 661 78 644 l 81 663 q 125 719 83 701 q 211 736 167 736 q 248 734 231 736 q 281 725 265 732 q 336 839 336 775 q 257 894 336 894 q 179 884 224 894 q 101 856 135 874 q 63 819 67 839 q 94 808 74 808 q 137 816 119 808 q 176 824 154 824 q 188 813 188 824 q 178 801 188 806 q 96 793 147 793 q 39 819 39 793 q 61 855 39 839 q 117 883 83 871 q 188 903 151 896 q 251 910 224 910 q 358 836 358 910 q 297 719 358 772 q 369 618 369 689 q 333 522 369 564 q 238 456 296 479 q 117 432 179 432 m 318 151 q 299 165 308 151 q 292 190 292 176 q 461 497 292 250 q 672 758 624 739 q 685 756 674 758 q 705 750 696 754 q 708 739 714 746 q 482 467 625 651 q 314 190 314 249 q 318 175 314 186 q 322 158 322 163 q 318 151 322 151 m 149 668 q 251 703 196 668 q 194 714 221 714 q 148 706 174 714 q 122 678 122 697 l 122 675 q 149 668 133 668 m 810 19 q 800 25 801 19 q 782 171 782 63 l 782 221 q 629 249 671 249 l 621 249 q 614 249 618 249 q 604 246 610 249 q 581 240 592 240 q 564 247 575 240 q 556 261 556 254 q 576 282 556 272 q 599 297 583 285 q 639 333 615 310 l 742 432 q 761 449 749 438 q 790 475 774 460 q 806 481 796 481 q 815 474 815 481 q 749 399 815 461 q 697 347 728 378 q 625 272 665 315 l 632 272 q 692 266 654 272 q 785 249 729 260 q 795 320 789 285 q 808 392 801 356 q 831 469 819 436 q 858 526 843 503 q 868 532 864 532 q 881 521 881 532 q 878 514 881 517 q 825 240 825 406 q 865 235 846 238 q 901 233 883 233 q 1013 272 1013 233 q 938 311 1013 311 q 890 305 915 311 q 864 281 864 299 q 876 271 864 271 q 903 277 889 271 q 922 283 918 283 q 933 271 933 283 q 912 255 933 261 q 875 249 890 249 q 840 281 840 249 q 874 324 840 313 q 938 336 907 336 q 1006 320 974 336 q 1038 272 1038 304 q 999 216 1038 235 q 917 197 960 197 q 875 199 897 197 q 826 208 853 201 q 839 125 826 183 q 848 76 846 96 q 850 44 850 56 q 835 28 850 35 q 810 19 821 19 z "},"":{"ha":450,"x_min":38,"x_max":369,"o":"m 117 432 q 38 493 38 432 q 55 544 38 522 q 99 578 72 565 q 149 590 125 590 q 185 546 185 590 q 172 535 185 535 q 161 551 164 535 q 149 567 158 567 q 90 547 118 567 q 63 494 63 526 q 117 456 63 456 q 210 476 167 456 q 281 533 254 496 q 308 619 308 569 q 264 696 308 671 q 113 644 188 644 q 79 661 78 644 l 81 663 q 103 706 82 690 q 156 729 125 722 q 211 736 186 736 q 248 734 231 736 q 281 725 265 732 q 336 839 336 775 q 257 894 336 894 q 119 864 190 894 q 63 819 67 843 q 94 808 74 808 q 138 817 111 808 q 162 822 153 821 q 176 824 171 824 q 188 813 188 824 q 178 801 188 806 q 96 793 147 793 q 39 819 39 793 q 96 874 39 849 q 175 901 136 893 q 251 910 214 910 q 358 836 358 910 q 297 719 358 772 q 369 618 369 689 q 331 519 369 561 q 235 455 293 478 q 117 432 178 432 m 149 668 q 251 703 196 668 q 194 714 221 714 q 149 706 175 714 q 122 678 122 697 l 122 675 q 149 668 133 668 z "},"":{"ha":506,"x_min":18,"x_max":433,"o":"m 331 447 q 163 529 253 447 q 72 506 108 506 q 18 550 18 506 q 39 595 18 578 q 88 613 60 613 q 193 560 111 613 q 321 674 268 604 q 386 826 386 756 q 318 886 386 886 q 231 869 283 886 q 149 832 179 854 q 111 788 111 807 q 139 772 111 772 q 196 796 160 772 q 226 821 229 818 q 229 813 229 818 q 221 799 229 807 q 210 792 215 796 q 201 785 206 789 l 165 756 q 117 743 143 743 q 89 754 100 743 q 78 779 78 765 q 108 833 78 811 l 165 867 q 331 908 235 908 q 433 835 433 908 q 353 671 433 760 q 207 550 289 599 q 351 486 304 486 q 413 518 413 486 q 408 532 413 524 q 404 546 404 543 q 413 554 404 554 q 425 540 419 554 q 428 526 428 535 q 397 467 428 486 q 331 447 365 447 m 90 528 q 150 540 119 528 q 88 589 101 589 q 60 556 60 589 q 90 528 60 528 z "},"":{"ha":347,"x_min":143,"x_max":272,"o":"m 144 421 q 152 619 147 524 q 167 789 157 714 q 192 906 178 864 q 206 910 194 910 q 240 901 217 910 q 272 879 264 893 q 271 868 272 876 q 268 857 269 860 q 242 672 253 789 q 226 421 232 556 l 144 421 m 231 -254 q 206 -242 217 -254 q 186 -210 194 -229 q 165 -112 174 -179 q 151 46 156 -46 q 143 240 146 138 l 222 243 q 225 35 222 135 q 234 -138 228 -64 q 251 -249 240 -212 q 231 -254 242 -254 z "},"":{"ha":665,"x_min":144,"x_max":585,"o":"m 324 275 q 222 278 268 275 q 154 289 175 282 q 165 305 144 292 q 208 324 185 318 q 278 328 240 328 q 419 321 344 328 q 547 318 493 314 q 556 319 551 318 q 564 319 561 319 q 585 314 585 319 q 540 290 585 304 q 453 279 517 283 q 324 275 390 275 z "},"":{"ha":675,"x_min":142,"x_max":560,"o":"m 150 100 q 142 113 142 96 q 148 143 142 124 q 167 179 154 163 q 222 243 189 211 q 292 307 254 275 q 203 401 243 356 q 154 471 164 446 q 165 479 150 479 q 197 473 178 479 q 233 454 217 467 q 287 408 260 435 q 342 351 314 382 q 414 415 379 383 q 472 476 449 446 q 507 506 497 506 q 511 491 514 506 q 490 444 508 476 q 450 388 479 425 q 381 308 421 351 q 457 220 419 264 q 531 149 494 176 q 560 114 560 124 q 545 110 560 108 q 499 131 531 113 q 432 178 476 142 q 338 263 388 215 q 231 159 282 207 q 150 100 179 111 z "},"":{"ha":836,"x_min":146,"x_max":778,"o":"m 692 0 q 647 21 661 0 q 633 72 633 42 q 661 124 633 103 q 719 144 689 144 q 764 124 750 144 q 778 72 778 103 q 750 21 778 42 q 692 0 722 0 m 204 0 q 160 21 174 0 q 146 72 146 42 q 174 124 146 103 q 232 144 201 144 q 276 124 263 144 q 290 72 290 103 q 263 21 290 42 q 204 0 235 0 m 436 0 q 392 21 406 0 q 378 72 378 42 q 406 124 378 103 q 464 144 433 144 q 508 124 494 144 q 522 72 522 103 q 494 21 522 42 q 436 0 467 0 z "},"":{"ha":1321,"x_min":0,"x_max":1293,"o":"m 499 -112 q 376 -53 418 -112 q 335 97 335 6 q 347 238 335 160 q 382 400 358 317 q 439 558 406 483 q 342 554 389 554 q 168 578 246 554 q 45 658 90 603 q 0 803 0 713 q 45 943 0 875 q 176 1059 90 1011 q 382 1115 261 1107 q 490 1101 439 1119 q 574 1045 542 1082 q 607 956 607 1008 q 594 890 607 925 q 550 817 581 856 q 467 738 514 774 q 370 681 421 703 q 272 660 319 660 q 199 685 224 660 q 174 747 174 711 q 204 834 174 789 q 294 914 235 879 q 440 956 353 949 q 494 946 468 958 q 521 903 521 933 q 517 885 521 889 q 513 892 513 882 q 499 921 513 913 q 468 930 486 929 q 435 931 450 931 q 335 897 382 928 q 261 826 289 867 q 233 750 233 785 q 253 706 233 724 q 317 689 272 689 q 403 710 358 689 q 485 764 447 732 q 543 828 524 796 q 570 882 563 857 q 578 928 578 907 q 554 990 578 967 q 497 1024 531 1014 q 429 1032 463 1035 q 239 983 321 1025 q 110 881 157 940 q 64 764 64 822 q 101 648 64 692 q 203 585 139 604 q 349 565 268 565 q 396 567 372 565 q 444 571 419 568 q 599 813 508 706 q 803 982 689 919 q 1051 1044 917 1044 q 1165 1017 1131 1044 q 1200 951 1200 990 q 1157 853 1200 903 q 1040 756 1114 803 q 1074 620 1054 696 q 1121 463 1094 544 q 1176 306 1147 382 q 1234 165 1204 229 q 1293 61 1264 101 q 1260 35 1282 53 q 1219 4 1239 18 q 1193 -10 1200 -10 q 1159 85 1181 22 q 1112 228 1138 147 q 1058 394 1086 308 q 1006 558 1031 479 q 942 401 983 489 q 848 222 901 313 q 734 56 794 132 q 613 -66 674 -19 q 499 -112 553 -112 m 578 593 q 774 653 678 617 q 951 732 871 689 l 936 781 q 970 809 939 790 q 1026 847 1001 828 q 1035 782 1029 819 q 1132 865 1096 824 q 1168 946 1168 907 q 1143 1000 1168 978 q 1069 1022 1118 1022 q 865 964 957 1022 q 701 808 772 906 q 578 593 631 710 m 500 -74 q 604 -40 551 -75 q 708 53 657 -6 q 806 185 760 113 q 892 335 853 258 q 957 480 931 411 q 994 597 983 549 l 958 710 q 776 633 875 667 q 572 578 676 599 q 484 297 514 439 q 454 42 454 154 q 469 -42 454 -10 q 500 -74 483 -74 m 1004 1118 q 972 1133 982 1118 q 963 1171 963 1149 q 983 1208 963 1193 q 1025 1224 1003 1224 q 1058 1208 1047 1224 q 1068 1171 1068 1193 q 1048 1133 1068 1149 q 1004 1118 1028 1118 m 835 1118 q 803 1133 813 1118 q 793 1171 793 1149 q 813 1208 793 1193 q 856 1224 833 1224 q 888 1208 878 1224 q 899 1171 899 1193 q 878 1133 899 1149 q 835 1118 858 1118 z "},"":{"ha":1321,"x_min":0,"x_max":1293,"o":"m 499 -112 q 376 -53 418 -112 q 335 97 335 6 q 347 238 335 160 q 382 400 358 317 q 439 558 406 483 q 342 554 389 554 q 168 578 246 554 q 45 658 90 603 q 0 803 0 713 q 45 943 0 875 q 176 1059 90 1011 q 382 1115 261 1107 q 490 1101 439 1119 q 574 1045 542 1082 q 607 956 607 1008 q 594 890 607 925 q 550 817 581 856 q 467 738 514 774 q 370 681 421 703 q 272 660 319 660 q 199 685 224 660 q 174 747 174 711 q 204 834 174 789 q 294 914 235 879 q 440 956 353 949 q 494 946 468 958 q 521 903 521 933 q 517 885 521 889 q 513 892 513 882 q 499 921 513 913 q 468 930 486 929 q 435 931 450 931 q 335 897 382 928 q 261 826 289 867 q 233 750 233 785 q 253 706 233 724 q 317 689 272 689 q 403 710 358 689 q 485 764 447 732 q 543 828 524 796 q 570 882 563 857 q 578 928 578 907 q 554 990 578 967 q 497 1024 531 1014 q 429 1032 463 1035 q 239 983 321 1025 q 110 881 157 940 q 64 764 64 822 q 101 648 64 692 q 203 585 139 604 q 349 565 268 565 q 396 567 372 565 q 444 571 419 568 q 599 813 508 706 q 803 982 689 919 q 1051 1044 917 1044 q 1165 1017 1131 1044 q 1200 951 1200 990 q 1157 853 1200 903 q 1040 756 1114 803 q 1074 620 1054 696 q 1121 463 1094 544 q 1176 306 1147 382 q 1234 165 1204 229 q 1293 61 1264 101 q 1260 35 1282 53 q 1219 4 1239 18 q 1193 -10 1200 -10 q 1159 85 1181 22 q 1112 228 1138 147 q 1058 394 1086 308 q 1006 558 1031 479 q 942 401 983 489 q 848 222 901 313 q 734 56 794 132 q 613 -66 674 -19 q 499 -112 553 -112 m 578 593 q 774 653 678 617 q 951 732 871 689 l 936 781 q 970 809 939 790 q 1026 847 1001 828 q 1035 782 1029 819 q 1132 865 1096 824 q 1168 946 1168 907 q 1143 1000 1168 978 q 1069 1022 1118 1022 q 865 964 957 1022 q 701 808 772 906 q 578 593 631 710 m 500 -74 q 604 -40 551 -75 q 708 53 657 -6 q 806 185 760 113 q 892 335 853 258 q 957 480 931 411 q 994 597 983 549 l 958 710 q 776 633 875 667 q 572 578 676 599 q 484 297 514 439 q 454 42 454 154 q 469 -42 454 -10 q 500 -74 483 -74 m 925 1132 q 870 1153 888 1132 q 853 1203 853 1174 q 874 1276 853 1242 q 930 1332 894 1310 q 1006 1354 965 1354 q 1059 1329 1042 1354 q 1076 1272 1076 1304 q 1056 1203 1076 1235 q 1000 1151 1035 1171 q 925 1132 965 1132 m 942 1172 q 1040 1253 1040 1172 q 1025 1292 1040 1276 q 985 1307 1010 1307 q 927 1283 949 1307 q 906 1222 906 1258 q 915 1187 906 1201 q 942 1172 924 1172 z "},"":{"ha":911,"x_min":56,"x_max":939,"o":"m 310 -68 q 238 -64 274 -68 q 165 -50 201 -60 q 81 23 106 -33 q 56 156 56 79 q 69 294 56 221 q 106 439 83 368 q 151 568 128 510 q 216 703 179 638 q 294 824 253 769 q 375 913 335 878 q 503 1003 439 968 q 651 1038 567 1038 q 845 979 779 1038 q 911 797 911 921 q 872 618 911 708 q 758 471 832 528 q 669 422 718 439 q 575 404 621 404 q 463 442 511 404 q 415 564 415 479 q 433 664 415 608 q 471 754 451 719 q 565 869 519 835 q 644 904 610 904 q 699 875 679 904 q 719 797 719 846 q 704 710 719 756 q 664 626 689 665 q 609 563 639 588 q 550 538 579 538 q 515 546 533 538 q 490 568 497 554 q 489 575 489 571 q 493 579 489 579 q 503 574 499 579 q 522 562 507 567 q 543 557 538 557 q 606 589 576 557 q 653 667 635 621 q 671 754 671 713 q 652 823 671 797 q 604 849 633 849 q 546 825 578 849 q 482 747 514 801 q 447 672 461 711 q 432 599 433 633 q 462 501 432 531 q 533 472 492 472 q 617 495 574 472 q 692 554 661 518 q 758 655 728 597 q 805 772 788 713 q 822 882 822 832 q 801 963 822 932 q 728 993 779 993 q 588 954 664 993 q 429 824 513 915 q 309 662 356 743 q 222 492 263 581 q 171 363 196 435 q 131 220 146 292 q 115 90 115 149 q 129 8 115 42 q 175 -36 143 -26 q 217 -44 194 -42 q 265 -47 240 -47 q 431 -23 340 -47 q 613 46 521 1 q 785 152 704 90 q 922 288 865 214 q 936 300 931 300 q 934 291 939 300 q 914 258 929 282 q 762 92 858 165 q 548 -25 665 18 q 310 -68 431 -68 m 275 -412 q 218 -393 244 -412 q 192 -343 192 -374 q 215 -290 192 -314 q 265 -267 239 -267 q 283 -272 283 -267 q 275 -280 283 -275 q 261 -287 267 -285 q 238 -308 246 -294 q 231 -336 231 -321 q 244 -371 231 -354 q 281 -387 257 -387 q 360 -367 329 -387 q 390 -307 390 -346 q 380 -259 390 -283 q 356 -215 369 -235 q 325 -136 325 -179 q 349 -60 325 -92 q 410 -28 374 -28 q 431 -36 431 -28 q 410 -43 431 -43 q 383 -61 396 -43 q 371 -97 371 -79 q 383 -143 371 -119 q 410 -186 396 -167 q 444 -272 444 -233 q 419 -349 444 -317 q 356 -397 394 -381 q 275 -412 318 -412 z "},"":{"ha":1081,"x_min":-100,"x_max":1039,"o":"m 196 -256 q 48 -231 115 -256 q -60 -158 -19 -206 q -100 -46 -100 -111 q -72 41 -100 8 q 6 90 -43 74 q 116 111 54 106 q 244 117 178 117 q 336 115 289 117 q 432 107 383 113 q 449 285 436 197 q 479 457 461 372 q 419 445 446 451 q 369 429 392 439 q 326 404 343 418 q 310 382 310 390 q 319 374 310 375 q 326 368 325 372 q 321 361 326 364 q 292 366 310 358 q 278 389 275 374 q 293 416 281 400 q 342 447 306 432 q 405 468 369 458 q 485 485 440 478 q 535 690 508 592 q 582 881 561 789 q 555 887 568 883 q 528 894 542 890 q 472 899 501 897 q 413 901 443 901 q 295 892 353 901 q 201 864 238 883 q 164 810 164 844 q 186 753 164 783 q 239 693 208 722 q 316 632 275 657 q 397 582 357 607 q 406 569 408 575 q 396 567 403 563 q 304 626 354 597 q 206 683 254 656 q 153 712 182 694 q 103 753 124 729 q 82 807 82 776 q 117 883 81 856 q 209 924 153 911 q 328 942 265 938 q 444 946 392 946 q 594 940 510 946 q 763 920 678 933 q 920 888 849 907 q 1029 840 992 868 q 1039 824 1039 832 q 1026 799 1039 811 q 996 780 1013 786 q 968 778 979 774 q 800 828 893 806 q 603 875 707 850 l 667 793 q 623 660 646 736 q 581 493 600 583 q 603 494 592 494 q 626 494 614 494 q 713 490 667 494 q 810 479 758 486 q 835 457 835 472 q 821 449 835 449 q 816 449 819 449 q 808 450 813 449 q 633 467 733 467 q 604 467 619 467 q 574 465 589 467 q 540 282 554 376 q 522 96 526 188 q 631 86 564 92 q 764 81 697 81 q 861 85 817 81 q 932 103 906 90 q 947 115 944 110 q 950 122 949 119 q 974 144 954 144 q 990 132 985 144 q 994 108 994 119 q 940 50 994 65 q 811 35 886 35 q 702 40 758 35 q 598 53 646 46 q 521 65 550 60 q 520 36 521 51 q 519 6 519 21 q 520 -23 519 -8 q 522 -53 521 -37 l 432 -24 q 430 29 431 3 q 431 82 429 56 q 232 99 322 99 q 130 93 182 99 q 33 74 78 88 q -38 38 -11 60 q -65 -18 -65 15 q -25 -92 -65 -57 q 89 -147 15 -126 q 261 -168 163 -168 q 368 -149 336 -167 q 397 -104 400 -131 q 372 -58 396 -76 q 313 -31 349 -40 q 240 -22 278 -22 q 159 -35 196 -22 q 114 -74 122 -49 l 115 -81 q 124 -86 124 -82 q 117 -89 124 -89 q 98 -78 103 -89 q 93 -61 93 -68 q 117 -27 93 -39 q 178 -11 142 -15 q 249 -7 214 -7 q 334 -22 290 -10 q 408 -62 378 -35 q 438 -139 438 -89 q 395 -210 435 -185 q 301 -246 356 -236 q 196 -256 246 -256 m 667 986 q 660 992 661 986 q 661 1000 660 999 q 694 1031 671 1013 q 741 1065 717 1049 q 775 1089 765 1082 q 836 1127 813 1117 q 874 1135 860 1138 q 900 1114 900 1132 q 882 1092 900 1100 q 777 1045 833 1074 q 678 990 721 1017 q 667 986 669 986 z "},"":{"ha":1394,"x_min":47,"x_max":1393,"o":"m 1268 -229 q 1261 -228 1265 -229 q 1251 -226 1257 -228 q 1146 -165 1186 -212 q 1088 -49 1106 -118 q 1071 97 1071 19 q 1078 218 1071 153 q 1099 349 1086 283 q 1125 468 1111 415 q 1191 676 1157 574 q 1253 865 1225 779 q 1294 1006 1282 951 q 1299 1040 1299 1026 q 1278 1071 1299 1071 q 1234 1051 1260 1071 q 1190 1010 1208 1031 q 972 702 1063 865 q 817 390 881 539 q 731 182 769 282 q 651 -7 692 82 q 622 -12 639 -12 q 597 -3 608 -12 q 576 31 585 6 q 665 218 621 117 q 745 427 708 319 q 804 638 782 535 q 826 829 826 740 q 810 952 826 893 q 760 1049 793 1011 q 678 1088 726 1088 q 581 1058 633 1088 q 474 981 528 1028 q 371 878 419 933 q 260 745 313 815 q 176 601 208 675 q 144 451 144 526 q 159 367 144 407 q 203 301 174 326 q 275 275 232 275 q 380 303 322 275 q 490 378 438 332 q 577 476 543 424 q 611 574 611 528 q 577 667 611 625 q 479 708 543 708 q 399 688 440 708 q 322 637 357 668 q 264 569 286 606 q 242 500 242 533 q 263 456 242 471 q 314 440 283 440 q 379 456 346 440 q 442 495 413 471 q 490 547 472 519 q 508 600 508 575 q 502 625 508 613 q 481 643 496 638 q 467 647 472 646 q 458 650 461 649 q 447 655 451 651 q 456 660 442 658 q 493 651 475 660 q 524 626 515 642 q 533 592 533 610 q 512 519 533 557 q 456 451 490 482 q 381 401 422 421 q 301 382 340 382 q 230 404 258 382 q 201 469 201 426 q 230 565 201 517 q 304 655 258 614 q 403 721 350 696 q 507 746 457 746 q 612 717 567 746 q 683 642 657 688 q 708 546 708 596 q 672 426 708 482 q 578 326 636 369 q 453 259 521 283 q 322 235 386 235 q 249 244 285 235 q 185 276 214 254 q 76 387 104 333 q 47 497 47 440 q 107 706 47 607 q 257 896 167 806 q 383 997 313 950 q 527 1074 453 1044 q 669 1103 601 1103 q 797 1063 746 1103 q 873 954 847 1022 q 899 801 899 886 q 865 558 899 694 q 922 665 894 615 q 974 754 950 714 q 1063 894 1014 825 q 1169 1029 1111 963 q 1238 1092 1208 1074 q 1290 1110 1268 1110 q 1335 1096 1311 1110 q 1376 1054 1358 1082 q 1393 983 1393 1026 q 1381 910 1393 951 q 1356 846 1375 896 q 1309 722 1336 796 q 1252 559 1282 649 q 1197 374 1222 469 q 1155 188 1171 279 q 1139 18 1139 96 q 1165 -130 1139 -68 q 1253 -210 1190 -192 q 1274 -226 1274 -221 q 1268 -229 1274 -229 m 1131 1192 q 1087 1207 1104 1192 q 1054 1236 1069 1222 q 1020 1250 1038 1250 q 984 1231 1002 1250 q 960 1193 966 1212 q 950 1200 954 1193 q 945 1217 945 1207 q 947 1231 945 1224 q 950 1243 949 1237 q 981 1290 961 1273 q 1025 1307 1002 1307 q 1065 1293 1044 1307 q 1104 1265 1085 1279 q 1138 1252 1123 1252 q 1170 1266 1157 1252 q 1199 1302 1183 1280 q 1211 1293 1210 1303 q 1210 1276 1212 1283 q 1176 1212 1194 1232 q 1131 1192 1158 1192 z "},"":{"ha":829,"x_min":72,"x_max":817,"o":"m 290 -1 q 186 35 228 -1 q 119 131 144 71 q 83 267 94 192 q 72 422 72 343 q 83 586 72 504 q 113 740 93 668 q 161 864 133 813 q 303 1039 221 974 q 510 1104 386 1104 q 628 1059 578 1104 q 705 943 678 1014 q 732 792 732 872 q 711 665 732 726 q 653 553 690 603 q 566 473 615 503 q 460 443 517 443 q 369 476 404 443 q 318 564 335 510 q 301 679 301 618 q 311 769 301 721 q 339 858 321 817 q 383 927 357 900 q 440 954 408 954 q 516 899 485 954 q 540 753 547 843 q 532 700 538 731 q 515 640 526 669 q 482 590 503 610 q 429 569 461 569 q 390 582 406 569 q 386 589 386 586 q 400 590 386 596 q 421 585 407 585 q 474 610 456 585 q 499 672 492 636 q 507 735 507 707 q 480 847 507 807 q 418 888 453 888 q 360 853 383 888 q 324 768 336 818 q 313 674 313 718 q 325 588 313 628 q 363 524 338 549 q 424 499 388 499 q 508 528 472 499 q 568 608 544 558 q 603 718 592 658 q 615 836 615 778 q 603 952 615 899 q 566 1038 590 1006 q 503 1071 542 1071 q 401 1031 451 1071 q 310 928 351 990 q 243 799 269 865 q 182 572 201 697 q 163 332 163 446 q 176 184 163 251 q 221 77 190 117 q 299 38 251 38 q 409 73 353 38 q 516 164 465 108 q 607 279 567 219 q 671 386 647 339 q 751 595 717 483 q 785 811 785 707 q 754 970 785 897 q 649 1090 724 1043 q 642 1100 642 1096 q 656 1101 642 1106 q 780 954 743 1046 q 817 756 817 863 q 793 567 817 663 q 729 386 769 471 q 681 299 711 349 q 608 196 650 249 q 517 99 567 143 q 409 26 467 54 q 290 -1 351 -1 m 583 1175 q 551 1190 561 1175 q 542 1228 542 1206 q 562 1265 542 1250 q 604 1281 582 1281 q 637 1265 626 1281 q 647 1228 647 1250 q 627 1190 647 1206 q 583 1175 607 1175 m 414 1175 q 382 1190 392 1175 q 372 1228 372 1206 q 392 1265 372 1250 q 435 1281 413 1281 q 467 1265 457 1281 q 478 1228 478 1250 q 458 1190 478 1206 q 414 1175 438 1175 z "},"":{"ha":943,"x_min":7,"x_max":963,"o":"m 179 683 q 98 703 138 683 q 33 766 58 724 q 7 875 7 808 q 53 956 7 926 q 174 999 99 986 q 336 1008 250 1011 q 388 1010 353 1008 q 462 1015 422 1011 q 536 1028 501 1019 q 588 1053 571 1038 q 594 1064 593 1060 q 594 1071 594 1068 q 599 1088 594 1088 q 606 1078 603 1088 q 608 1063 608 1068 q 583 1024 608 1039 q 520 1000 558 1008 q 443 988 482 992 q 375 985 404 985 q 253 981 315 985 q 140 967 192 978 q 56 934 88 956 q 25 875 25 913 q 65 800 25 828 q 174 772 106 772 q 232 777 201 772 q 284 794 263 782 q 306 828 306 807 q 246 883 306 864 q 236 892 236 883 q 251 897 236 901 q 303 869 285 886 q 326 835 321 853 q 332 815 331 825 q 333 794 333 804 q 306 730 333 754 q 243 694 279 706 q 179 683 207 683 m 868 -158 q 829 -139 860 -158 q 747 -56 783 -111 q 683 74 710 0 q 642 232 657 149 q 477 60 558 126 q 335 -7 396 -7 q 254 38 282 -6 q 226 156 226 82 q 253 360 226 256 q 319 569 279 464 q 403 776 360 674 q 479 971 446 878 l 556 874 q 518 795 544 851 q 459 663 492 739 q 397 501 426 586 q 347 335 367 417 q 328 189 328 254 q 342 108 328 142 q 388 75 357 75 q 442 94 410 75 q 511 144 475 114 q 581 208 547 175 q 636 269 614 242 q 625 371 629 319 q 621 474 621 422 q 637 677 621 579 q 686 853 653 775 q 771 976 719 931 q 893 1021 822 1021 q 947 988 932 1021 q 963 918 963 956 q 929 747 963 847 q 840 538 896 647 q 713 328 783 429 q 728 142 715 231 q 769 -16 742 53 q 840 -122 797 -85 q 867 -145 857 -132 q 868 -158 878 -158 m 711 382 q 806 549 760 463 q 882 723 851 636 q 913 889 913 810 q 906 947 913 918 q 879 976 900 976 q 814 925 844 976 q 761 788 783 874 q 726 597 739 703 q 711 382 713 492 m 811 1101 q 779 1117 789 1101 q 769 1154 769 1132 q 790 1192 769 1176 q 832 1207 810 1207 q 865 1192 854 1207 q 875 1154 875 1176 q 855 1117 875 1132 q 811 1101 835 1101 m 642 1101 q 610 1117 619 1101 q 600 1154 600 1132 q 620 1192 600 1176 q 663 1207 640 1207 q 695 1192 685 1207 q 706 1154 706 1176 q 685 1117 706 1132 q 642 1101 665 1101 z "},"":{"ha":540,"x_min":-37,"x_max":583,"o":"m 54 1 q 37 8 49 1 q 14 22 25 14 q -20 52 -8 28 q -35 110 -32 76 q -33 176 -37 143 q -19 232 -29 210 q 19 321 -4 274 q 76 411 42 368 q 160 483 111 454 q 275 514 208 511 q 338 498 310 514 q 367 461 367 482 q 349 426 367 443 q 300 401 332 408 q 288 399 294 400 q 275 399 282 399 q 256 403 256 399 q 264 407 256 407 q 307 424 288 407 q 326 465 326 440 q 308 489 326 490 q 210 441 253 481 q 138 347 168 401 q 89 238 108 293 q 58 140 69 182 q 47 85 51 113 q 44 38 42 57 q 57 19 46 19 q 113 44 81 19 q 180 109 146 69 q 244 194 214 149 q 294 278 275 239 q 290 311 292 294 q 288 344 289 328 q 299 362 288 350 q 326 385 311 374 q 353 401 342 396 q 363 400 364 407 q 374 317 364 365 q 400 219 383 269 q 440 125 417 168 q 490 57 463 82 q 544 32 518 32 q 558 34 551 32 q 569 38 564 36 q 581 40 575 40 q 583 38 583 40 q 572 26 583 29 q 489 7 529 7 q 407 38 442 7 q 334 138 358 82 q 299 254 310 193 q 249 168 278 213 q 186 85 219 124 q 119 24 153 47 q 54 1 85 1 m 197 590 q 191 597 192 590 q 192 604 190 603 q 224 635 201 617 q 272 669 247 653 q 306 693 296 686 q 367 731 343 721 q 404 739 390 742 q 431 718 431 736 q 413 696 431 704 q 308 649 364 678 q 208 594 251 621 q 197 590 200 590 z "},"":{"ha":540,"x_min":-37,"x_max":583,"o":"m 54 1 q 37 8 49 1 q 14 22 25 14 q -20 52 -8 28 q -35 110 -32 76 q -33 176 -37 143 q -19 232 -29 210 q 19 321 -4 274 q 76 411 42 368 q 160 483 111 454 q 275 514 208 511 q 338 498 310 514 q 367 461 367 482 q 349 426 367 443 q 300 401 332 408 q 288 399 294 400 q 275 399 282 399 q 256 403 256 399 q 264 407 256 407 q 307 424 288 407 q 326 465 326 440 q 308 489 326 490 q 210 441 253 481 q 138 347 168 401 q 89 238 108 293 q 58 140 69 182 q 47 85 51 113 q 44 38 42 57 q 57 19 46 19 q 113 44 81 19 q 180 109 146 69 q 244 194 214 149 q 294 278 275 239 q 290 311 292 294 q 288 344 289 328 q 299 362 288 350 q 326 385 311 374 q 353 401 342 396 q 363 400 364 407 q 374 317 364 365 q 400 219 383 269 q 440 125 417 168 q 490 57 463 82 q 544 32 518 32 q 558 34 551 32 q 569 38 564 36 q 581 40 575 40 q 583 38 583 40 q 572 26 583 29 q 489 7 529 7 q 407 38 442 7 q 334 138 358 82 q 299 254 310 193 q 249 168 278 213 q 186 85 219 124 q 119 24 153 47 q 54 1 85 1 m 383 588 q 372 592 379 588 q 272 644 329 618 q 168 693 215 669 q 150 715 150 701 q 176 736 150 733 q 214 728 190 739 q 275 690 238 718 q 309 666 286 683 q 355 631 332 649 q 389 601 378 613 q 390 596 390 600 q 383 588 390 588 z "},"":{"ha":540,"x_min":-37,"x_max":583,"o":"m 54 1 q 37 8 49 1 q 14 22 25 14 q -20 52 -8 28 q -35 110 -32 76 q -33 176 -37 143 q -19 232 -29 210 q 19 321 -4 274 q 76 411 42 368 q 160 483 111 454 q 275 514 208 511 q 338 498 310 514 q 367 461 367 482 q 349 426 367 443 q 300 401 332 408 q 288 399 294 400 q 275 399 282 399 q 256 403 256 399 q 264 407 256 407 q 307 424 288 407 q 326 465 326 440 q 308 489 326 490 q 210 441 253 481 q 138 347 168 401 q 89 238 108 293 q 58 140 69 182 q 47 85 51 113 q 44 38 42 57 q 57 19 46 19 q 113 44 81 19 q 180 109 146 69 q 244 194 214 149 q 294 278 275 239 q 290 311 292 294 q 288 344 289 328 q 299 362 288 350 q 326 385 311 374 q 353 401 342 396 q 363 400 364 407 q 374 317 364 365 q 400 219 383 269 q 440 125 417 168 q 490 57 463 82 q 544 32 518 32 q 558 34 551 32 q 569 38 564 36 q 581 40 575 40 q 583 38 583 40 q 572 26 583 29 q 489 7 529 7 q 407 38 442 7 q 334 138 358 82 q 299 254 310 193 q 249 168 278 213 q 186 85 219 124 q 119 24 153 47 q 54 1 85 1 m 392 590 q 372 603 385 590 q 327 640 354 618 q 281 667 300 661 q 244 651 263 664 q 215 632 226 639 q 175 609 199 622 q 149 596 151 596 q 136 604 136 596 q 152 632 136 613 q 200 676 168 651 q 283 724 264 721 q 342 686 303 724 q 390 638 374 660 q 406 606 406 615 q 392 590 406 592 z "},"":{"ha":540,"x_min":-37,"x_max":583,"o":"m 54 1 q 37 8 49 1 q 14 22 25 14 q -20 52 -8 28 q -35 110 -32 76 q -33 176 -37 143 q -19 232 -29 210 q 19 321 -4 274 q 76 411 42 368 q 160 483 111 454 q 275 514 208 511 q 338 498 310 514 q 367 461 367 482 q 349 426 367 443 q 300 401 332 408 q 288 399 294 400 q 275 399 282 399 q 256 403 256 399 q 264 407 256 407 q 307 424 288 407 q 326 465 326 440 q 308 489 326 490 q 210 441 253 481 q 138 347 168 401 q 89 238 108 293 q 58 140 69 182 q 47 85 51 113 q 44 38 42 57 q 57 19 46 19 q 113 44 81 19 q 180 109 146 69 q 244 194 214 149 q 294 278 275 239 q 290 311 292 294 q 288 344 289 328 q 299 362 288 350 q 326 385 311 374 q 353 401 342 396 q 363 400 364 407 q 374 317 364 365 q 400 219 383 269 q 440 125 417 168 q 490 57 463 82 q 544 32 518 32 q 558 34 551 32 q 569 38 564 36 q 581 40 575 40 q 583 38 583 40 q 572 26 583 29 q 489 7 529 7 q 407 38 442 7 q 334 138 358 82 q 299 254 310 193 q 249 168 278 213 q 186 85 219 124 q 119 24 153 47 q 54 1 85 1 m 344 585 q 313 600 322 585 q 303 638 303 615 q 323 675 303 660 q 365 690 343 690 q 398 675 388 690 q 408 638 408 660 q 388 600 408 615 q 344 585 368 585 m 175 585 q 143 600 153 585 q 133 638 133 615 q 153 675 133 660 q 196 690 174 690 q 228 675 218 690 q 239 638 239 660 q 219 600 239 615 q 175 585 199 585 z "},"":{"ha":540,"x_min":-37,"x_max":583,"o":"m 54 1 q 37 8 49 1 q 14 22 25 14 q -20 52 -8 28 q -35 110 -32 76 q -33 176 -37 143 q -19 232 -29 210 q 19 321 -4 274 q 76 411 42 368 q 160 483 111 454 q 275 514 208 511 q 338 498 310 514 q 367 461 367 482 q 349 426 367 443 q 300 401 332 408 q 288 399 294 400 q 275 399 282 399 q 256 403 256 399 q 264 407 256 407 q 307 424 288 407 q 326 465 326 440 q 308 489 326 490 q 210 441 253 481 q 138 347 168 401 q 89 238 108 293 q 58 140 69 182 q 47 85 51 113 q 44 38 42 57 q 57 19 46 19 q 113 44 81 19 q 180 109 146 69 q 244 194 214 149 q 294 278 275 239 q 290 311 292 294 q 288 344 289 328 q 299 362 288 350 q 326 385 311 374 q 353 401 342 396 q 363 400 364 407 q 374 317 364 365 q 400 219 383 269 q 440 125 417 168 q 490 57 463 82 q 544 32 518 32 q 558 34 551 32 q 569 38 564 36 q 581 40 575 40 q 583 38 583 40 q 572 26 583 29 q 489 7 529 7 q 407 38 442 7 q 334 138 358 82 q 299 254 310 193 q 249 168 278 213 q 186 85 219 124 q 119 24 153 47 q 54 1 85 1 m 324 594 q 280 609 298 594 q 247 639 262 624 q 213 653 231 653 q 177 634 195 653 q 153 596 159 614 q 143 603 147 596 q 138 620 138 610 q 140 634 138 627 q 143 646 142 640 q 174 693 154 676 q 218 710 195 710 q 258 696 238 710 q 297 668 278 682 q 331 654 316 654 q 363 669 350 654 q 392 704 376 683 q 404 696 403 706 q 403 679 405 686 q 369 614 387 634 q 324 594 351 594 z "},"":{"ha":540,"x_min":-37,"x_max":583,"o":"m 54 1 q 37 8 49 1 q 14 22 25 14 q -20 52 -8 28 q -35 110 -32 76 q -33 176 -37 143 q -19 232 -29 210 q 19 321 -4 274 q 76 411 42 368 q 160 483 111 454 q 275 514 208 511 q 338 498 310 514 q 367 461 367 482 q 349 426 367 443 q 300 401 332 408 q 288 399 294 400 q 275 399 282 399 q 256 403 256 399 q 264 407 256 407 q 307 424 288 407 q 326 465 326 440 q 308 489 326 490 q 210 441 253 481 q 138 347 168 401 q 89 238 108 293 q 58 140 69 182 q 47 85 51 113 q 44 38 42 57 q 57 19 46 19 q 113 44 81 19 q 180 109 146 69 q 244 194 214 149 q 294 278 275 239 q 290 311 292 294 q 288 344 289 328 q 299 362 288 350 q 326 385 311 374 q 353 401 342 396 q 363 400 364 407 q 374 317 364 365 q 400 219 383 269 q 440 125 417 168 q 490 57 463 82 q 544 32 518 32 q 558 34 551 32 q 569 38 564 36 q 581 40 575 40 q 583 38 583 40 q 572 26 583 29 q 489 7 529 7 q 407 38 442 7 q 334 138 358 82 q 299 254 310 193 q 249 168 278 213 q 186 85 219 124 q 119 24 153 47 q 54 1 85 1 m 265 599 q 210 619 228 599 q 193 669 193 640 q 214 742 193 708 q 270 799 235 776 q 346 821 306 821 q 399 796 382 821 q 417 739 417 771 q 396 669 417 701 q 340 618 375 638 q 265 599 306 599 m 282 639 q 381 719 381 639 q 365 758 381 743 q 325 774 350 774 q 267 749 289 774 q 246 689 246 725 q 255 653 246 668 q 282 639 264 639 z "},"":{"ha":411,"x_min":-14,"x_max":478,"o":"m 172 -11 q 67 52 100 -11 q 33 213 33 115 q 40 319 33 263 q 63 424 47 375 q 106 501 79 474 q 218 543 140 543 q 286 523 251 543 q 321 456 321 503 q 310 404 321 431 q 281 360 300 378 q 238 342 263 342 q 229 342 233 342 q 219 344 225 343 q 214 352 217 349 q 211 358 211 356 q 225 368 211 364 q 239 365 233 365 q 269 381 258 365 q 281 417 281 396 q 274 458 281 435 q 253 498 267 481 q 221 515 240 515 q 157 457 185 515 q 124 360 135 418 q 114 244 114 303 q 119 156 114 203 q 141 78 125 110 q 189 46 157 46 q 248 71 217 46 q 310 135 279 96 q 370 216 342 174 q 422 293 399 258 q 460 344 446 328 q 469 353 467 353 q 468 340 478 353 q 408 253 442 306 q 340 143 375 200 q 271 38 306 86 q 223 -2 249 7 q 172 -11 197 -11 m 69 -376 q 13 -357 39 -376 q -14 -307 -14 -337 q 10 -254 -14 -278 q 60 -231 33 -231 q 78 -236 78 -231 q 69 -244 78 -239 q 56 -251 61 -249 q 33 -272 40 -258 q 25 -300 25 -285 q 38 -335 25 -318 q 75 -351 51 -351 q 154 -331 124 -351 q 185 -271 185 -310 q 174 -223 185 -247 q 150 -179 164 -199 q 119 -100 119 -143 q 144 -24 119 -56 q 204 8 168 8 q 225 0 225 8 q 204 -7 225 -7 q 178 -25 190 -7 q 165 -61 165 -43 q 178 -107 165 -83 q 204 -150 190 -131 q 239 -236 239 -197 q 214 -312 239 -281 q 151 -360 189 -344 q 69 -376 113 -376 z "},"":{"ha":411,"x_min":33,"x_max":478,"o":"m 178 -19 q 99 13 131 -19 q 50 97 67 44 q 33 213 33 150 q 40 319 33 263 q 63 424 47 375 q 106 501 79 474 q 218 543 140 543 q 308 515 283 543 q 332 444 332 488 q 326 399 332 424 q 314 351 321 375 q 285 283 303 317 q 240 226 268 249 q 169 200 213 203 q 147 203 164 200 q 114 219 129 207 q 124 144 117 182 q 149 80 131 106 q 201 54 167 54 q 267 84 235 54 q 325 152 299 114 q 368 215 351 190 q 415 285 392 250 q 460 344 439 321 q 469 353 467 353 q 468 340 478 353 q 378 203 425 283 q 301 78 332 128 q 243 5 271 29 q 178 -19 215 -19 m 167 217 q 198 236 183 217 q 224 283 213 256 q 242 336 235 311 q 250 374 249 361 q 255 419 251 393 q 258 468 258 446 q 252 508 258 492 q 228 525 246 525 q 192 505 213 525 q 157 457 172 485 q 126 363 136 418 q 114 251 115 308 q 135 228 124 239 q 167 217 147 217 m 132 590 q 126 597 126 590 q 126 604 125 603 q 159 635 136 617 q 206 669 182 653 q 240 693 231 686 q 301 731 278 721 q 339 739 325 742 q 365 718 365 736 q 347 696 365 704 q 242 649 299 678 q 143 594 186 621 q 132 590 135 590 z "},"":{"ha":411,"x_min":33,"x_max":478,"o":"m 178 -19 q 99 13 131 -19 q 50 97 67 44 q 33 213 33 150 q 40 319 33 263 q 63 424 47 375 q 106 501 79 474 q 218 543 140 543 q 308 515 283 543 q 332 444 332 488 q 326 399 332 424 q 314 351 321 375 q 285 283 303 317 q 240 226 268 249 q 169 200 213 203 q 147 203 164 200 q 114 219 129 207 q 124 144 117 182 q 149 80 131 106 q 201 54 167 54 q 267 84 235 54 q 325 152 299 114 q 368 215 351 190 q 415 285 392 250 q 460 344 439 321 q 469 353 467 353 q 468 340 478 353 q 378 203 425 283 q 301 78 332 128 q 243 5 271 29 q 178 -19 215 -19 m 167 217 q 198 236 183 217 q 224 283 213 256 q 242 336 235 311 q 250 374 249 361 q 255 419 251 393 q 258 468 258 446 q 252 508 258 492 q 228 525 246 525 q 192 505 213 525 q 157 457 172 485 q 126 363 136 418 q 114 251 115 308 q 135 228 124 239 q 167 217 147 217 m 318 588 q 307 592 314 588 q 207 644 264 618 q 103 693 150 669 q 85 715 85 701 q 111 736 85 733 q 149 728 125 739 q 210 690 172 718 q 244 666 221 683 q 290 631 267 649 q 324 601 313 613 q 325 596 325 600 q 318 588 325 588 z "},"":{"ha":411,"x_min":33,"x_max":478,"o":"m 178 -19 q 99 13 131 -19 q 50 97 67 44 q 33 213 33 150 q 40 319 33 263 q 63 424 47 375 q 106 501 79 474 q 218 543 140 543 q 308 515 283 543 q 332 444 332 488 q 326 399 332 424 q 314 351 321 375 q 285 283 303 317 q 240 226 268 249 q 169 200 213 203 q 147 203 164 200 q 114 219 129 207 q 124 144 117 182 q 149 80 131 106 q 201 54 167 54 q 267 84 235 54 q 325 152 299 114 q 368 215 351 190 q 415 285 392 250 q 460 344 439 321 q 469 353 467 353 q 468 340 478 353 q 378 203 425 283 q 301 78 332 128 q 243 5 271 29 q 178 -19 215 -19 m 167 217 q 198 236 183 217 q 224 283 213 256 q 242 336 235 311 q 250 374 249 361 q 255 419 251 393 q 258 468 258 446 q 252 508 258 492 q 228 525 246 525 q 192 505 213 525 q 157 457 172 485 q 126 363 136 418 q 114 251 115 308 q 135 228 124 239 q 167 217 147 217 m 326 590 q 307 603 319 590 q 262 640 289 618 q 215 667 235 661 q 179 651 197 664 q 150 632 161 639 q 110 609 133 622 q 83 596 86 596 q 71 604 71 596 q 87 632 71 613 q 135 676 103 651 q 218 724 199 721 q 276 686 238 724 q 324 638 308 660 q 340 606 340 615 q 326 590 340 592 z "},"":{"ha":411,"x_min":33,"x_max":478,"o":"m 178 -19 q 99 13 131 -19 q 50 97 67 44 q 33 213 33 150 q 40 319 33 263 q 63 424 47 375 q 106 501 79 474 q 218 543 140 543 q 308 515 283 543 q 332 444 332 488 q 326 399 332 424 q 314 351 321 375 q 285 283 303 317 q 240 226 268 249 q 169 200 213 203 q 147 203 164 200 q 114 219 129 207 q 124 144 117 182 q 149 80 131 106 q 201 54 167 54 q 267 84 235 54 q 325 152 299 114 q 368 215 351 190 q 415 285 392 250 q 460 344 439 321 q 469 353 467 353 q 468 340 478 353 q 378 203 425 283 q 301 78 332 128 q 243 5 271 29 q 178 -19 215 -19 m 167 217 q 198 236 183 217 q 224 283 213 256 q 242 336 235 311 q 250 374 249 361 q 255 419 251 393 q 258 468 258 446 q 252 508 258 492 q 228 525 246 525 q 192 505 213 525 q 157 457 172 485 q 126 363 136 418 q 114 251 115 308 q 135 228 124 239 q 167 217 147 217 m 279 585 q 247 600 257 585 q 238 638 238 615 q 258 675 238 660 q 300 690 278 690 q 333 675 322 690 q 343 638 343 660 q 323 600 343 615 q 279 585 303 585 m 110 585 q 78 600 88 585 q 68 638 68 615 q 88 675 68 660 q 131 690 108 690 q 163 675 153 690 q 174 638 174 660 q 153 600 174 615 q 110 585 133 585 z "},"":{"ha":278,"x_min":13,"x_max":346,"o":"m 118 -46 q 92 -37 114 -50 q 49 -8 69 -25 q 25 19 28 10 q 13 128 13 61 q 23 248 13 186 q 53 363 33 310 q 100 442 72 415 q 119 442 106 447 q 149 428 133 438 q 174 408 165 418 q 178 393 183 399 q 150 351 167 381 q 115 274 133 322 q 94 193 103 240 q 85 103 85 146 q 90 54 85 76 q 104 19 94 32 q 159 111 122 53 q 241 235 196 169 q 331 353 286 300 q 342 358 338 361 q 340 349 346 356 q 310 305 325 329 q 278 254 294 281 q 178 83 222 163 q 118 -46 133 3 m 78 518 q 72 524 72 518 q 72 532 71 531 q 105 563 82 544 q 152 597 128 581 q 186 621 176 614 q 247 659 224 649 q 285 667 271 669 q 311 646 311 664 q 293 624 311 632 q 188 577 244 606 q 89 522 132 549 q 78 518 81 518 z "},"":{"ha":278,"x_min":13,"x_max":346,"o":"m 118 -46 q 92 -37 114 -50 q 49 -8 69 -25 q 25 19 28 10 q 13 128 13 61 q 23 248 13 186 q 53 363 33 310 q 100 442 72 415 q 119 442 106 447 q 149 428 133 438 q 174 408 165 418 q 178 393 183 399 q 150 351 167 381 q 115 274 133 322 q 94 193 103 240 q 85 103 85 146 q 90 54 85 76 q 104 19 94 32 q 159 111 122 53 q 241 235 196 169 q 331 353 286 300 q 342 358 338 361 q 340 349 346 356 q 310 305 325 329 q 278 254 294 281 q 178 83 222 163 q 118 -46 133 3 m 264 515 q 253 519 260 515 q 153 572 210 546 q 49 621 96 597 q 31 643 31 629 q 57 664 31 661 q 94 656 71 667 q 156 618 118 646 q 190 594 167 611 q 235 558 213 576 q 269 529 258 540 q 271 524 271 528 q 264 515 271 515 z "},"":{"ha":278,"x_min":13,"x_max":346,"o":"m 118 -46 q 92 -37 114 -50 q 49 -8 69 -25 q 25 19 28 10 q 13 128 13 61 q 23 248 13 186 q 53 363 33 310 q 100 442 72 415 q 119 442 106 447 q 149 428 133 438 q 174 408 165 418 q 178 393 183 399 q 150 351 167 381 q 115 274 133 322 q 94 193 103 240 q 85 103 85 146 q 90 54 85 76 q 104 19 94 32 q 159 111 122 53 q 241 235 196 169 q 331 353 286 300 q 342 358 338 361 q 340 349 346 356 q 310 305 325 329 q 278 254 294 281 q 178 83 222 163 q 118 -46 133 3 m 272 518 q 253 531 265 518 q 208 567 235 546 q 161 594 181 589 q 125 579 143 592 q 96 560 107 567 q 56 537 79 550 q 29 524 32 524 q 17 532 17 524 q 33 560 17 540 q 81 604 49 579 q 164 651 144 649 q 222 614 183 651 q 270 565 254 588 q 286 533 286 543 q 272 518 286 519 z "},"":{"ha":278,"x_min":13,"x_max":346,"o":"m 118 -46 q 92 -37 114 -50 q 49 -8 69 -25 q 25 19 28 10 q 13 128 13 61 q 23 248 13 186 q 53 363 33 310 q 100 442 72 415 q 119 442 106 447 q 149 428 133 438 q 174 408 165 418 q 178 393 183 399 q 150 351 167 381 q 115 274 133 322 q 94 193 103 240 q 85 103 85 146 q 90 54 85 76 q 104 19 94 32 q 159 111 122 53 q 241 235 196 169 q 331 353 286 300 q 342 358 338 361 q 340 349 346 356 q 310 305 325 329 q 278 254 294 281 q 178 83 222 163 q 118 -46 133 3 m 225 513 q 193 528 203 513 q 183 565 183 543 q 203 603 183 588 q 246 618 224 618 q 278 603 268 618 q 289 565 289 588 q 269 528 289 543 q 225 513 249 513 m 56 513 q 24 528 33 513 q 14 565 14 543 q 34 603 14 588 q 76 618 54 618 q 109 603 99 618 q 119 565 119 588 q 99 528 119 543 q 56 513 79 513 z "},"":{"ha":479,"x_min":7,"x_max":547,"o":"m 71 -14 q 58 -8 63 -14 q 39 37 44 7 q 33 103 33 67 q 40 198 33 149 q 53 288 46 247 q 64 347 61 329 q 46 323 54 336 q 18 285 38 310 q 14 283 17 283 q 9 287 11 283 q 8 293 7 290 q 58 369 36 333 q 94 433 79 406 q 113 428 99 442 q 141 395 128 414 q 153 369 154 376 q 135 306 143 346 q 122 221 126 265 q 117 139 117 176 q 188 283 149 214 q 275 415 226 353 q 363 469 318 469 q 397 429 397 469 q 392 394 397 413 q 376 341 385 376 q 358 263 367 306 q 345 181 350 221 q 340 110 340 140 q 346 68 340 79 q 420 194 375 117 q 532 353 465 271 q 543 358 539 361 q 542 349 547 356 q 428 174 475 260 q 361 26 382 89 q 333 31 357 22 q 286 53 308 39 q 261 75 264 67 q 274 238 263 158 q 300 375 286 317 q 293 389 304 389 q 274 381 286 389 q 250 356 263 374 q 197 270 226 324 q 145 158 167 217 q 124 49 124 99 q 128 6 124 17 q 99 -6 115 1 q 71 -14 82 -14 m 263 529 q 219 544 236 529 q 186 573 201 559 q 152 588 170 588 q 116 568 134 588 q 92 530 98 549 q 82 538 86 530 q 77 555 77 545 q 79 568 77 562 q 82 581 81 575 q 113 628 93 611 q 157 645 134 645 q 197 631 176 645 q 236 603 217 616 q 269 589 255 589 q 302 603 289 589 q 331 639 315 618 q 343 631 342 641 q 342 613 344 621 q 308 549 326 569 q 263 529 290 529 z "},"":{"ha":401,"x_min":21,"x_max":361,"o":"m 189 -35 q 117 -6 149 -35 q 65 66 86 22 q 32 156 43 110 q 21 239 21 203 q 50 439 21 350 q 139 561 81 529 q 210 576 172 576 l 226 576 q 240 576 233 576 q 253 574 246 576 q 268 563 268 564 q 246 561 268 561 q 149 528 183 561 q 101 447 115 496 q 83 345 86 397 q 79 254 79 293 q 83 205 79 236 q 99 142 88 174 q 134 90 111 111 q 194 68 157 68 q 258 99 231 68 q 303 173 286 131 q 319 249 319 215 q 310 341 319 293 q 279 421 300 389 q 201 474 243 474 q 150 399 150 474 q 181 314 150 314 q 195 321 188 314 q 207 336 203 328 q 213 346 210 342 q 218 353 215 350 q 221 357 221 356 q 228 347 228 357 q 207 306 228 322 q 172 290 188 290 q 138 316 149 290 q 126 389 126 342 q 194 496 126 496 q 293 439 249 496 q 329 366 315 407 q 346 278 343 325 q 347 255 346 267 q 347 228 347 243 q 338 151 347 196 q 310 65 329 107 q 261 -6 292 22 q 189 -35 231 -35 m 128 650 q 122 656 122 650 q 122 664 121 663 q 155 694 132 676 q 202 729 178 713 q 236 753 226 746 q 297 791 274 781 q 335 799 321 801 q 361 778 361 796 q 343 756 361 764 q 238 709 294 738 q 139 654 182 681 q 128 650 131 650 z "}}}
